<svg xmlns="http://www.w3.org/2000/svg" viewBox="0 0 1155.7 223.2"><defs><style>.cls-1{fill:#333;}.cls-2{isolation:isolate;font-size:120px;fill:#f15a24;font-family:NiagaraEngraved-Reg, Niagara Engraved;}.cls-3{fill:#999;}</style></defs><title>1900_title</title><g id="Слой_2" data-name="Слой 2"><g id="Слой_1-2" data-name="Слой 1"><circle class="cls-1" cx="578.3" cy="133.2" r="90"/><text class="cls-2" transform="translate(514.68 172.46)">1900</text><path class="cls-3" d="M659.2,82.7c4.5,4.4,14.6,22.1,15,49,.4,28.2-11.7,47.8-16,52l497.5-.3-89-50,89-50Z"/><path class="cls-3" d="M496.5,183.7c-4.5-4.4-14.6-22.1-15-49-.4-28.2,11.7-47.8,16-52L0,83l89,50L0,183Z"/><rect class="cls-3" x="545.2" width="26.1" height="9.6"/><rect class="cls-3" x="545.2" y="12.2" width="26.1" height="9.6"/><rect class="cls-3" x="545.2" y="24.4" width="26.1" height="9.6"/><rect class="cls-3" x="584.5" width="26.1" height="9.6"/><rect class="cls-3" x="584.5" y="12.2" width="26.1" height="9.6"/><rect class="cls-3" x="584.5" y="24.4" width="26.1" height="9.6"/></g></g></svg>