<svg xmlns="http://www.w3.org/2000/svg" viewBox="0 0 700.81 700.81"><defs><style>.cls-1{fill:#333;}.cls-2{fill:#ccc;}</style></defs><title>circle1</title><g id="Слой_2" data-name="Слой 2"><g id="Слой_1-2" data-name="Слой 1"><rect class="cls-1" x="342.61" y="633" width="15.59" height="41.38" transform="translate(-306.31 998.4) rotate(-89.5)"/><rect class="cls-1" x="342.61" y="652.56" width="15.59" height="41.38" transform="translate(-325.87 1017.79) rotate(-89.5)"/><rect class="cls-1" x="342.61" y="672.13" width="15.59" height="41.38" transform="translate(-345.44 1037.19) rotate(-89.5)"/><rect class="cls-1" x="342.61" y="593.86" width="15.59" height="41.38" transform="translate(-267.17 959.6) rotate(-89.5)"/><rect class="cls-1" x="342.61" y="613.43" width="15.59" height="41.38" transform="translate(-286.74 979) rotate(-89.5)"/><rect class="cls-1" x="342.61" y="515.6" width="15.59" height="41.38" transform="translate(-188.91 882.02) rotate(-89.5)"/><rect class="cls-1" x="342.61" y="535.16" width="15.59" height="41.38" transform="translate(-208.48 901.41) rotate(-89.5)"/><rect class="cls-1" x="342.61" y="554.73" width="15.59" height="41.38" transform="translate(-228.04 920.81) rotate(-89.5)"/><rect class="cls-1" x="342.61" y="574.3" width="15.59" height="41.38" transform="translate(-247.61 940.21) rotate(-89.5)"/><rect class="cls-1" x="342.61" y="476.46" width="15.59" height="41.38" transform="translate(-149.78 843.22) rotate(-89.5)"/><rect class="cls-1" x="342.61" y="496.03" width="15.59" height="41.38" transform="matrix(0.01, -1, 1, 0.01, -169.34, 862.62)"/><rect class="cls-1" x="329.71" y="391.52" width="41.38" height="15.59" transform="translate(-3.46 3.06) rotate(-0.5)"/><rect class="cls-1" x="329.71" y="411.09" width="41.38" height="15.59" transform="translate(-3.63 3.06) rotate(-0.5)"/><rect class="cls-1" x="329.71" y="430.66" width="41.38" height="15.59" transform="translate(-3.8 3.06) rotate(-0.5)"/><rect class="cls-1" x="329.71" y="450.22" width="41.38" height="15.59" transform="translate(-3.97 3.06) rotate(-0.5)"/><rect class="cls-1" x="329.71" y="469.79" width="41.38" height="15.59" transform="translate(-4.14 3.06) rotate(-0.5)"/><rect class="cls-1" x="329.71" y="274.12" width="41.38" height="15.59" transform="translate(-2.44 3.06) rotate(-0.5)"/><rect class="cls-1" x="329.71" y="293.69" width="41.38" height="15.59" transform="translate(-2.61 3.06) rotate(-0.5)"/><rect class="cls-1" x="329.71" y="313.26" width="41.38" height="15.59" transform="translate(-2.78 3.06) rotate(-0.5)"/><rect class="cls-1" x="329.71" y="332.82" width="41.38" height="15.59" transform="translate(-2.95 3.06) rotate(-0.5)"/><rect class="cls-1" x="329.71" y="352.39" width="41.38" height="15.59" transform="translate(-3.12 3.06) rotate(-0.5)"/><rect class="cls-1" x="329.71" y="371.96" width="41.38" height="15.59" transform="translate(-3.29 3.06) rotate(-0.5)"/><rect class="cls-1" x="329.71" y="156.72" width="41.38" height="15.59" transform="translate(-1.42 3.05) rotate(-0.5)"/><rect class="cls-1" x="329.71" y="176.29" width="41.38" height="15.59" transform="translate(-1.59 3.05) rotate(-0.5)"/><rect class="cls-1" x="329.71" y="195.86" width="41.38" height="15.59" transform="translate(-1.76 3.05) rotate(-0.5)"/><rect class="cls-1" x="329.71" y="215.42" width="41.38" height="15.59" transform="translate(-1.93 3.05) rotate(-0.5)"/><rect class="cls-1" x="329.71" y="234.99" width="41.38" height="15.59" transform="translate(-2.1 3.05) rotate(-0.5)"/><rect class="cls-1" x="329.71" y="254.56" width="41.38" height="15.59" transform="translate(-2.27 3.05) rotate(-0.5)"/><rect class="cls-1" x="329.71" y="117.59" width="41.38" height="15.59" transform="translate(-1.08 3.05) rotate(-0.5)"/><rect class="cls-1" x="329.71" y="137.16" width="41.38" height="15.59" transform="translate(-1.25 3.05) rotate(-0.5)"/><rect class="cls-1" x="329.71" y="0.19" width="41.38" height="15.59" transform="translate(-0.06 3.05) rotate(-0.5)"/><rect class="cls-1" x="329.71" y="19.76" width="41.38" height="15.59" transform="translate(-0.23 3.05) rotate(-0.5)"/><rect class="cls-1" x="329.71" y="39.32" width="41.38" height="15.59" transform="translate(-0.4 3.05) rotate(-0.5)"/><rect class="cls-1" x="329.71" y="58.89" width="41.38" height="15.59" transform="translate(-0.57 3.05) rotate(-0.5)"/><rect class="cls-1" x="329.71" y="78.46" width="41.38" height="15.59" transform="translate(-0.74 3.05) rotate(-0.5)"/><rect class="cls-1" x="329.71" y="98.02" width="41.38" height="15.59" transform="translate(-0.91 3.05) rotate(-0.5)"/><rect class="cls-1" x="481.32" y="605.39" width="41.38" height="15.59" transform="translate(-236.87 326.72) rotate(-29.5)"/><rect class="cls-1" x="491.1" y="622.33" width="41.38" height="15.59" transform="translate(-243.95 333.74) rotate(-29.5)"/><rect class="cls-1" x="500.88" y="639.28" width="41.38" height="15.59" transform="translate(-251.03 340.75) rotate(-29.5)"/><rect class="cls-1" x="461.75" y="571.5" width="41.38" height="15.59" transform="translate(-222.72 312.69) rotate(-29.5)"/><rect class="cls-1" x="471.53" y="588.44" width="41.38" height="15.59" transform="translate(-229.8 319.71) rotate(-29.5)"/><rect class="cls-1" x="422.62" y="503.72" width="41.38" height="15.59" transform="translate(-194.42 284.63) rotate(-29.5)"/><rect class="cls-1" x="432.4" y="520.66" width="41.38" height="15.59" transform="translate(-201.49 291.65) rotate(-29.5)"/><rect class="cls-1" x="442.18" y="537.61" width="41.38" height="15.59" transform="translate(-208.57 298.66) rotate(-29.5)"/><rect class="cls-1" x="451.97" y="554.55" width="41.38" height="15.59" transform="translate(-215.65 305.68) rotate(-29.5)"/><rect class="cls-1" x="403.05" y="469.83" width="41.38" height="15.59" transform="translate(-180.26 270.6) rotate(-29.5)"/><rect class="cls-1" x="412.83" y="486.77" width="41.38" height="15.59" transform="translate(-187.34 277.62) rotate(-29.5)"/><rect class="cls-1" x="354.13" y="385.1" width="41.38" height="15.59" transform="matrix(0.86, -0.51, 0.51, 0.86, -147.54, 244.58)"/><rect class="cls-1" x="363.92" y="402.05" width="41.38" height="15.59" transform="translate(-154.79 251.89) rotate(-30.5)"/><rect class="cls-1" x="373.7" y="418.99" width="41.38" height="15.59" transform="translate(-162.03 259.2) rotate(-30.5)"/><rect class="cls-1" x="383.48" y="435.94" width="41.38" height="15.59" transform="translate(-169.28 266.51) rotate(-30.5)"/><rect class="cls-1" x="393.27" y="452.88" width="41.38" height="15.59" transform="translate(-176.52 273.82) rotate(-30.5)"/><rect class="cls-1" x="295.43" y="283.43" width="41.38" height="15.59" transform="matrix(0.86, -0.51, 0.51, 0.86, -104.06, 200.73)"/><rect class="cls-1" x="305.22" y="300.37" width="41.38" height="15.59" transform="translate(-111.31 208.04) rotate(-30.5)"/><rect class="cls-1" x="315" y="317.32" width="41.38" height="15.59" transform="translate(-118.55 215.35) rotate(-30.5)"/><rect class="cls-1" x="324.78" y="334.26" width="41.38" height="15.59" transform="translate(-125.8 222.66) rotate(-30.5)"/><rect class="cls-1" x="334.57" y="351.21" width="41.38" height="15.59" transform="translate(-133.05 229.97) rotate(-30.5)"/><rect class="cls-1" x="344.35" y="368.15" width="41.38" height="15.59" transform="translate(-140.29 237.27) rotate(-30.5)"/><rect class="cls-1" x="236.73" y="181.76" width="41.38" height="15.59" transform="translate(-60.58 156.87) rotate(-30.5)"/><rect class="cls-1" x="246.52" y="198.7" width="41.38" height="15.59" transform="translate(-67.83 164.18) rotate(-30.5)"/><rect class="cls-1" x="256.3" y="215.65" width="41.38" height="15.59" transform="translate(-75.08 171.49) rotate(-30.5)"/><rect class="cls-1" x="266.08" y="232.59" width="41.38" height="15.59" transform="matrix(0.86, -0.51, 0.51, 0.86, -82.32, 178.8)"/><rect class="cls-1" x="275.87" y="249.54" width="41.38" height="15.59" transform="translate(-89.57 186.11) rotate(-30.5)"/><rect class="cls-1" x="285.65" y="266.48" width="41.38" height="15.59" transform="translate(-96.81 193.42) rotate(-30.5)"/><rect class="cls-1" x="217.17" y="147.87" width="41.38" height="15.59" transform="matrix(0.86, -0.51, 0.51, 0.86, -46.09, 142.25)"/><rect class="cls-1" x="226.95" y="164.81" width="41.38" height="15.59" transform="translate(-53.34 149.56) rotate(-30.5)"/><rect class="cls-1" x="158.47" y="46.19" width="41.38" height="15.59" transform="translate(-2.61 98.39) rotate(-30.5)"/><rect class="cls-1" x="168.25" y="63.14" width="41.38" height="15.59" transform="translate(-9.86 105.7) rotate(-30.5)"/><rect class="cls-1" x="178.03" y="80.08" width="41.38" height="15.59" transform="translate(-17.11 113.01) rotate(-30.5)"/><rect class="cls-1" x="187.82" y="97.03" width="41.38" height="15.59" transform="matrix(0.86, -0.51, 0.51, 0.86, -24.35, 120.32)"/><rect class="cls-1" x="197.6" y="113.97" width="41.38" height="15.59" transform="translate(-31.6 127.63) rotate(-30.5)"/><rect class="cls-1" x="207.38" y="130.92" width="41.38" height="15.59" transform="translate(-38.84 134.94) rotate(-30.5)"/><rect class="cls-1" x="592.23" y="494.29" width="41.38" height="15.59" transform="translate(-130.76 775.4) rotate(-59.5)"/><rect class="cls-1" x="609.18" y="504.07" width="41.38" height="15.59" transform="translate(-130.84 794.82) rotate(-59.5)"/><rect class="cls-1" x="626.12" y="513.85" width="41.38" height="15.59" transform="translate(-130.92 814.24) rotate(-59.5)"/><rect class="cls-1" x="558.34" y="474.72" width="41.38" height="15.59" transform="translate(-130.59 736.56) rotate(-59.5)"/><rect class="cls-1" x="575.29" y="484.5" width="41.38" height="15.59" transform="translate(-130.67 755.98) rotate(-59.5)"/><rect class="cls-1" x="490.56" y="435.58" width="41.38" height="15.59" transform="translate(-130.25 658.88) rotate(-59.5)"/><rect class="cls-1" x="507.51" y="445.37" width="41.38" height="15.59" transform="translate(-130.33 678.3) rotate(-59.5)"/><rect class="cls-1" x="524.45" y="455.15" width="41.38" height="15.59" transform="matrix(0.51, -0.86, 0.86, 0.51, -130.42, 697.72)"/><rect class="cls-1" x="541.4" y="464.93" width="41.38" height="15.59" transform="translate(-130.5 717.14) rotate(-59.5)"/><rect class="cls-1" x="456.67" y="416.02" width="41.38" height="15.59" transform="translate(-130.08 620.04) rotate(-59.5)"/><rect class="cls-1" x="473.62" y="425.8" width="41.38" height="15.59" transform="translate(-130.16 639.46) rotate(-59.5)"/><rect class="cls-1" x="371.94" y="367.1" width="41.38" height="15.59" transform="translate(-127.01 532) rotate(-60.5)"/><rect class="cls-1" x="388.89" y="376.88" width="41.38" height="15.59" transform="translate(-126.92 551.72) rotate(-60.5)"/><rect class="cls-1" x="405.84" y="386.67" width="41.38" height="15.59" transform="translate(-126.83 571.43) rotate(-60.5)"/><rect class="cls-1" x="422.78" y="396.45" width="41.38" height="15.59" transform="translate(-126.75 591.14) rotate(-60.5)"/><rect class="cls-1" x="439.73" y="406.23" width="41.38" height="15.59" transform="translate(-126.66 610.86) rotate(-60.5)"/><rect class="cls-1" x="270.27" y="308.4" width="41.38" height="15.59" transform="translate(-127.52 413.72) rotate(-60.5)"/><rect class="cls-1" x="287.22" y="318.18" width="41.38" height="15.59" transform="translate(-127.43 433.43) rotate(-60.5)"/><rect class="cls-1" x="304.16" y="327.97" width="41.38" height="15.59" transform="translate(-127.35 453.15) rotate(-60.5)"/><rect class="cls-1" x="321.11" y="337.75" width="41.38" height="15.59" transform="translate(-127.26 472.86) rotate(-60.5)"/><rect class="cls-1" x="338.05" y="347.53" width="41.38" height="15.59" transform="translate(-127.18 492.58) rotate(-60.5)"/><rect class="cls-1" x="355" y="357.32" width="41.38" height="15.59" transform="translate(-127.09 512.29) rotate(-60.5)"/><rect class="cls-1" x="168.6" y="249.7" width="41.38" height="15.59" transform="translate(-128.03 295.44) rotate(-60.5)"/><rect class="cls-1" x="185.55" y="259.48" width="41.38" height="15.59" transform="translate(-127.95 315.15) rotate(-60.5)"/><rect class="cls-1" x="202.49" y="269.27" width="41.38" height="15.59" transform="translate(-127.86 334.87) rotate(-60.5)"/><rect class="cls-1" x="219.44" y="279.05" width="41.38" height="15.59" transform="translate(-127.78 354.58) rotate(-60.5)"/><rect class="cls-1" x="236.38" y="288.83" width="41.38" height="15.59" transform="translate(-127.69 374.29) rotate(-60.5)"/><rect class="cls-1" x="253.33" y="298.62" width="41.38" height="15.59" transform="translate(-127.61 394.01) rotate(-60.5)"/><rect class="cls-1" x="134.71" y="230.13" width="41.38" height="15.59" transform="translate(-128.21 256.01) rotate(-60.5)"/><rect class="cls-1" x="151.66" y="239.92" width="41.38" height="15.59" transform="translate(-128.12 275.73) rotate(-60.5)"/><rect class="cls-1" x="33.04" y="171.43" width="41.38" height="15.59" transform="translate(-128.72 137.73) rotate(-60.5)"/><rect class="cls-1" x="49.98" y="181.22" width="41.38" height="15.59" transform="translate(-128.63 157.44) rotate(-60.5)"/><rect class="cls-1" x="66.93" y="191" width="41.38" height="15.59" transform="translate(-128.55 177.16) rotate(-60.5)"/><rect class="cls-1" x="83.87" y="200.78" width="41.38" height="15.59" transform="translate(-128.46 196.87) rotate(-60.5)"/><rect class="cls-1" x="100.82" y="210.57" width="41.38" height="15.59" transform="translate(-128.38 216.58) rotate(-60.5)"/><rect class="cls-1" x="117.77" y="220.35" width="41.38" height="15.59" transform="translate(-128.29 236.3) rotate(-60.5)"/><rect class="cls-1" x="633" y="342.61" width="41.38" height="15.59" transform="translate(297.62 1001.02) rotate(-89.5)"/><rect class="cls-1" x="652.56" y="342.61" width="41.38" height="15.59" transform="translate(317.01 1020.59) rotate(-89.5)"/><rect class="cls-1" x="672.13" y="342.61" width="41.38" height="15.59" transform="translate(336.41 1040.15) rotate(-89.5)"/><rect class="cls-1" x="593.86" y="342.61" width="41.38" height="15.59" transform="translate(258.82 961.89) rotate(-89.5)"/><rect class="cls-1" x="613.43" y="342.61" width="41.38" height="15.59" transform="translate(278.22 981.45) rotate(-89.5)"/><rect class="cls-1" x="515.6" y="342.61" width="41.38" height="15.59" transform="translate(181.24 883.62) rotate(-89.5)"/><rect class="cls-1" x="535.16" y="342.61" width="41.38" height="15.59" transform="matrix(0.01, -1, 1, 0.01, 200.63, 903.19)"/><rect class="cls-1" x="554.73" y="342.61" width="41.38" height="15.59" transform="translate(220.03 922.76) rotate(-89.5)"/><rect class="cls-1" x="574.3" y="342.61" width="41.38" height="15.59" transform="translate(239.43 942.32) rotate(-89.5)"/><rect class="cls-1" x="476.46" y="342.61" width="41.38" height="15.59" transform="translate(142.44 844.49) rotate(-89.5)"/><rect class="cls-1" x="496.03" y="342.61" width="41.38" height="15.59" transform="translate(161.84 864.06) rotate(-89.5)"/><rect class="cls-1" x="391.52" y="329.71" width="15.59" height="41.38" transform="translate(-3.03 3.48) rotate(-0.5)"/><rect class="cls-1" x="411.09" y="329.71" width="15.59" height="41.38" transform="translate(-3.03 3.65) rotate(-0.5)"/><rect class="cls-1" x="430.66" y="329.71" width="15.59" height="41.38" transform="translate(-3.03 3.82) rotate(-0.5)"/><rect class="cls-1" x="450.22" y="329.71" width="15.59" height="41.38" transform="translate(-3.03 3.99) rotate(-0.5)"/><rect class="cls-1" x="469.79" y="329.71" width="15.59" height="41.38" transform="translate(-3.03 4.16) rotate(-0.5)"/><rect class="cls-1" x="274.12" y="329.71" width="15.59" height="41.38" transform="translate(-3.03 2.46) rotate(-0.5)"/><rect class="cls-1" x="293.69" y="329.71" width="15.59" height="41.38" transform="translate(-3.03 2.63) rotate(-0.5)"/><rect class="cls-1" x="313.26" y="329.71" width="15.59" height="41.38" transform="translate(-3.03 2.8) rotate(-0.5)"/><rect class="cls-1" x="332.82" y="329.71" width="15.59" height="41.38" transform="translate(-3.03 2.97) rotate(-0.5)"/><rect class="cls-1" x="352.39" y="329.71" width="15.59" height="41.38" transform="translate(-3.03 3.14) rotate(-0.5)"/><rect class="cls-1" x="371.96" y="329.71" width="15.59" height="41.38" transform="translate(-3.03 3.31) rotate(-0.5)"/><rect class="cls-1" x="156.72" y="329.71" width="15.59" height="41.38" transform="translate(-3.04 1.44) rotate(-0.5)"/><rect class="cls-1" x="176.29" y="329.71" width="15.59" height="41.38" transform="translate(-3.04 1.61) rotate(-0.5)"/><rect class="cls-1" x="195.86" y="329.71" width="15.59" height="41.38" transform="translate(-3.04 1.78) rotate(-0.5)"/><rect class="cls-1" x="215.42" y="329.71" width="15.59" height="41.38" transform="translate(-3.04 1.95) rotate(-0.5)"/><rect class="cls-1" x="234.99" y="329.71" width="15.59" height="41.38" transform="translate(-3.04 2.12) rotate(-0.5)"/><rect class="cls-1" x="254.56" y="329.71" width="15.59" height="41.38" transform="translate(-3.03 2.29) rotate(-0.5)"/><rect class="cls-1" x="117.59" y="329.71" width="15.59" height="41.38" transform="translate(-3.04 1.1) rotate(-0.5)"/><rect class="cls-1" x="137.16" y="329.71" width="15.59" height="41.38" transform="translate(-3.04 1.27) rotate(-0.5)"/><rect class="cls-1" x="0.19" y="329.71" width="15.59" height="41.38" transform="translate(-3.04 0.08) rotate(-0.5)"/><rect class="cls-1" x="19.76" y="329.71" width="15.59" height="41.38" transform="matrix(1, -0.01, 0.01, 1, -3.04, 0.25)"/><rect class="cls-1" x="39.32" y="329.71" width="15.59" height="41.38" transform="translate(-3.04 0.42) rotate(-0.5)"/><rect class="cls-1" x="58.89" y="329.71" width="15.59" height="41.38" transform="translate(-3.04 0.59) rotate(-0.5)"/><rect class="cls-1" x="78.46" y="329.71" width="15.59" height="41.38" transform="translate(-3.04 0.76) rotate(-0.5)"/><rect class="cls-1" x="98.02" y="329.71" width="15.59" height="41.38" transform="translate(-3.04 0.93) rotate(-0.5)"/><rect class="cls-1" x="605.39" y="178.1" width="15.59" height="41.38" transform="translate(-18.39 327.74) rotate(-29.5)"/><rect class="cls-1" x="622.33" y="168.32" width="15.59" height="41.38" transform="translate(-11.38 334.82) rotate(-29.5)"/><rect class="cls-1" x="639.28" y="158.54" width="15.59" height="41.38" transform="translate(-4.36 341.89) rotate(-29.5)"/><rect class="cls-1" x="571.5" y="197.67" width="15.59" height="41.38" transform="translate(-32.42 313.59) rotate(-29.5)"/><rect class="cls-1" x="588.44" y="187.89" width="15.59" height="41.38" transform="translate(-25.41 320.67) rotate(-29.5)"/><rect class="cls-1" x="503.72" y="236.8" width="15.59" height="41.38" transform="translate(-60.48 285.28) rotate(-29.5)"/><rect class="cls-1" x="520.66" y="227.02" width="15.59" height="41.38" transform="translate(-53.47 292.36) rotate(-29.5)"/><rect class="cls-1" x="537.61" y="217.24" width="15.59" height="41.38" transform="translate(-46.45 299.44) rotate(-29.5)"/><rect class="cls-1" x="554.55" y="207.45" width="15.59" height="41.38" transform="translate(-39.44 306.51) rotate(-29.5)"/><rect class="cls-1" x="469.83" y="256.37" width="15.59" height="41.38" transform="translate(-74.51 271.13) rotate(-29.5)"/><rect class="cls-1" x="486.77" y="246.59" width="15.59" height="41.38" transform="translate(-67.5 278.21) rotate(-29.5)"/><rect class="cls-1" x="385.1" y="305.29" width="15.59" height="41.38" transform="translate(-111.08 244.5) rotate(-30.5)"/><rect class="cls-1" x="402.05" y="295.5" width="15.59" height="41.38" transform="translate(-103.77 251.74) rotate(-30.5)"/><rect class="cls-1" x="418.99" y="285.72" width="15.59" height="41.38" transform="translate(-96.46 258.99) rotate(-30.5)"/><rect class="cls-1" x="435.94" y="275.94" width="15.59" height="41.38" transform="matrix(0.86, -0.51, 0.51, 0.86, -89.15, 266.24)"/><rect class="cls-1" x="452.88" y="266.15" width="15.59" height="41.38" transform="translate(-81.84 273.48) rotate(-30.5)"/><rect class="cls-1" x="283.43" y="363.99" width="15.59" height="41.38" transform="translate(-154.94 201.02) rotate(-30.5)"/><rect class="cls-1" x="300.37" y="354.21" width="15.59" height="41.38" transform="matrix(0.86, -0.51, 0.51, 0.86, -147.63, 208.27)"/><rect class="cls-1" x="317.32" y="344.42" width="15.59" height="41.38" transform="translate(-140.32 215.51) rotate(-30.5)"/><rect class="cls-1" x="334.26" y="334.64" width="15.59" height="41.38" transform="translate(-133.01 222.76) rotate(-30.5)"/><rect class="cls-1" x="351.21" y="324.86" width="15.59" height="41.38" transform="translate(-125.7 230) rotate(-30.5)"/><rect class="cls-1" x="368.15" y="315.07" width="15.59" height="41.38" transform="translate(-118.39 237.25) rotate(-30.5)"/><rect class="cls-1" x="181.76" y="422.69" width="15.59" height="41.38" transform="translate(-198.79 157.54) rotate(-30.5)"/><rect class="cls-1" x="198.7" y="412.91" width="15.59" height="41.38" transform="translate(-191.48 164.79) rotate(-30.5)"/><rect class="cls-1" x="215.65" y="403.12" width="15.59" height="41.38" transform="matrix(0.86, -0.51, 0.51, 0.86, -184.17, 172.03)"/><rect class="cls-1" x="232.59" y="393.34" width="15.59" height="41.38" transform="translate(-176.86 179.28) rotate(-30.5)"/><rect class="cls-1" x="249.54" y="383.56" width="15.59" height="41.38" transform="translate(-169.56 186.53) rotate(-30.5)"/><rect class="cls-1" x="266.48" y="373.77" width="15.59" height="41.38" transform="translate(-162.25 193.77) rotate(-30.5)"/><rect class="cls-1" x="147.87" y="442.26" width="15.59" height="41.38" transform="translate(-213.41 143.05) rotate(-30.5)"/><rect class="cls-1" x="164.81" y="432.47" width="15.59" height="41.38" transform="matrix(0.86, -0.51, 0.51, 0.86, -206.1, 150.29)"/><rect class="cls-1" x="46.19" y="500.96" width="15.59" height="41.38" transform="translate(-257.27 99.57) rotate(-30.5)"/><rect class="cls-1" x="63.14" y="491.17" width="15.59" height="41.38" transform="translate(-249.96 106.82) rotate(-30.5)"/><rect class="cls-1" x="80.08" y="481.39" width="15.59" height="41.38" transform="translate(-242.65 114.06) rotate(-30.5)"/><rect class="cls-1" x="97.03" y="471.61" width="15.59" height="41.38" transform="translate(-235.34 121.31) rotate(-30.5)"/><rect class="cls-1" x="113.97" y="461.82" width="15.59" height="41.38" transform="translate(-228.03 128.56) rotate(-30.5)"/><rect class="cls-1" x="130.92" y="452.04" width="15.59" height="41.38" transform="translate(-220.72 135.8) rotate(-30.5)"/><rect class="cls-1" x="494.29" y="67.19" width="15.59" height="41.38" transform="translate(171.55 475.9) rotate(-59.5)"/><rect class="cls-1" x="504.07" y="50.24" width="15.59" height="41.38" transform="translate(190.97 475.98) rotate(-59.5)"/><rect class="cls-1" x="513.85" y="33.3" width="15.59" height="41.38" transform="translate(210.39 476.07) rotate(-59.5)"/><rect class="cls-1" x="474.72" y="101.08" width="15.59" height="41.38" transform="translate(132.71 475.73) rotate(-59.5)"/><rect class="cls-1" x="484.5" y="84.13" width="15.59" height="41.38" transform="translate(152.13 475.81) rotate(-59.5)"/><rect class="cls-1" x="435.58" y="168.86" width="15.59" height="41.38" transform="translate(55.04 475.39) rotate(-59.5)"/><rect class="cls-1" x="445.37" y="151.91" width="15.59" height="41.38" transform="translate(74.45 475.47) rotate(-59.5)"/><rect class="cls-1" x="455.15" y="134.97" width="15.59" height="41.38" transform="translate(93.87 475.56) rotate(-59.5)"/><rect class="cls-1" x="464.94" y="118.02" width="15.59" height="41.38" transform="translate(113.29 475.64) rotate(-59.5)"/><rect class="cls-1" x="416.02" y="202.75" width="15.59" height="41.38" transform="translate(16.2 475.22) rotate(-59.5)"/><rect class="cls-1" x="425.8" y="185.81" width="15.59" height="41.38" transform="translate(35.62 475.31) rotate(-59.5)"/><rect class="cls-1" x="367.1" y="287.48" width="15.59" height="41.38" transform="translate(-77.93 482.7) rotate(-60.5)"/><rect class="cls-1" x="376.88" y="270.53" width="15.59" height="41.38" transform="translate(-58.22 482.61) rotate(-60.5)"/><rect class="cls-1" x="386.67" y="253.59" width="15.59" height="41.38" transform="translate(-38.51 482.52) rotate(-60.5)"/><rect class="cls-1" x="396.45" y="236.64" width="15.59" height="41.38" transform="translate(-18.79 482.44) rotate(-60.5)"/><rect class="cls-1" x="406.23" y="219.7" width="15.59" height="41.38" transform="translate(0.92 482.35) rotate(-60.5)"/><rect class="cls-1" x="308.4" y="389.15" width="15.59" height="41.38" transform="translate(-196.22 483.21) rotate(-60.5)"/><rect class="cls-1" x="318.18" y="372.2" width="15.59" height="41.38" transform="translate(-176.5 483.12) rotate(-60.5)"/><rect class="cls-1" x="327.97" y="355.26" width="15.59" height="41.38" transform="translate(-156.79 483.04) rotate(-60.5)"/><rect class="cls-1" x="337.75" y="338.31" width="15.59" height="41.38" transform="translate(-137.08 482.95) rotate(-60.5)"/><rect class="cls-1" x="347.53" y="321.37" width="15.59" height="41.38" transform="translate(-117.36 482.87) rotate(-60.5)"/><rect class="cls-1" x="357.32" y="304.42" width="15.59" height="41.38" transform="translate(-97.65 482.78) rotate(-60.5)"/><rect class="cls-1" x="249.7" y="490.82" width="15.59" height="41.38" transform="translate(-314.5 483.72) rotate(-60.5)"/><rect class="cls-1" x="259.48" y="473.88" width="15.59" height="41.38" transform="translate(-294.78 483.64) rotate(-60.5)"/><rect class="cls-1" x="269.27" y="456.93" width="15.59" height="41.38" transform="translate(-275.07 483.55) rotate(-60.5)"/><rect class="cls-1" x="279.05" y="439.99" width="15.59" height="41.38" transform="translate(-255.36 483.47) rotate(-60.5)"/><rect class="cls-1" x="288.83" y="423.04" width="15.59" height="41.38" transform="translate(-235.64 483.38) rotate(-60.5)"/><rect class="cls-1" x="298.62" y="406.09" width="15.59" height="41.38" transform="translate(-215.93 483.3) rotate(-60.5)"/><rect class="cls-1" x="230.13" y="524.71" width="15.59" height="41.38" transform="translate(-353.93 483.9) rotate(-60.5)"/><rect class="cls-1" x="239.92" y="507.77" width="15.59" height="41.38" transform="translate(-334.21 483.81) rotate(-60.5)"/><rect class="cls-1" x="171.43" y="626.38" width="15.59" height="41.38" transform="translate(-472.21 484.41) rotate(-60.5)"/><rect class="cls-1" x="181.22" y="609.44" width="15.59" height="41.38" transform="translate(-452.49 484.32) rotate(-60.5)"/><rect class="cls-1" x="191" y="592.49" width="15.59" height="41.38" transform="translate(-432.78 484.24) rotate(-60.5)"/><rect class="cls-1" x="200.78" y="575.55" width="15.59" height="41.38" transform="translate(-413.07 484.15) rotate(-60.5)"/><rect class="cls-1" x="210.57" y="558.6" width="15.59" height="41.38" transform="translate(-393.35 484.07) rotate(-60.5)"/><rect class="cls-1" x="220.35" y="541.66" width="15.59" height="41.38" transform="translate(-373.64 483.98) rotate(-60.5)"/><circle class="cls-1" cx="350.4" cy="350.4" r="262.84"/><circle class="cls-2" cx="350.4" cy="350.4" r="248.93"/></g></g></svg>