<svg xmlns="http://www.w3.org/2000/svg" viewBox="0 0 1430.66 1149.13"><defs><style>.cls-1,.cls-6{fill:#333;}.cls-2{fill:#999;}.cls-3{fill:#424242;}.cls-4{fill:#757575;}.cls-5{fill:#f63;}.cls-6{font-size:120px;font-family:Izvestija;}</style></defs><title>dialogLogo_2</title><g id="Слой_2" data-name="Слой 2"><g id="Слой_1-2" data-name="Слой 1"><polygon class="cls-1" points="202.43 127.03 186.84 126.92 187.22 94.69 202.81 94.8 202.43 127.03"/><polygon class="cls-1" points="183.27 127.03 167.68 126.92 168.06 94.69 183.65 94.8 183.27 127.03"/><polygon class="cls-1" points="164.11 127.03 148.52 126.92 148.9 94.69 164.49 94.8 164.11 127.03"/><polygon class="cls-1" points="144.95 127.03 129.36 126.92 129.73 94.69 145.32 94.8 144.95 127.03"/><polygon class="cls-1" points="124.19 127.03 108.6 126.92 108.98 94.69 124.57 94.8 124.19 127.03"/><polygon class="cls-1" points="105.03 127.03 89.44 126.92 89.81 94.69 105.41 94.8 105.03 127.03"/><rect class="cls-1" x="0.33" y="276.02" width="41.38" height="15.59" transform="translate(-2.47 0.19) rotate(-0.5)"/><rect class="cls-1" x="0.33" y="256.86" width="41.38" height="15.59" transform="translate(-2.3 0.19) rotate(-0.5)"/><rect class="cls-1" x="0.33" y="237.69" width="41.38" height="15.59" transform="translate(-2.13 0.19) rotate(-0.5)"/><rect class="cls-1" x="0.33" y="216.94" width="41.38" height="15.59" transform="translate(-1.95 0.19) rotate(-0.5)"/><rect class="cls-1" x="0.33" y="197.77" width="41.38" height="15.59" transform="translate(-1.79 0.19) rotate(-0.5)"/><rect class="cls-1" x="0.33" y="178.61" width="41.38" height="15.59" transform="translate(-1.62 0.19) rotate(-0.5)"/><path class="cls-1" d="M41.72,163.74V173.8H0V147.7a10.72,10.72,0,0,1,4.22-8.52L37.5,113.9a10.69,10.69,0,0,0,4.22-8.52h0a10.7,10.7,0,0,1,10.7-10.69H83.56V127L46,155.19A10.69,10.69,0,0,0,41.72,163.74Z"/><polygon class="cls-1" points="202.65 460.98 187.06 461.09 187.44 493.32 203.03 493.21 202.65 460.98"/><polygon class="cls-1" points="183.49 460.98 167.9 461.09 168.28 493.32 183.87 493.21 183.49 460.98"/><polygon class="cls-1" points="164.33 460.98 148.74 461.09 149.12 493.32 164.71 493.21 164.33 460.98"/><polygon class="cls-1" points="145.17 460.98 129.58 461.09 129.96 493.32 145.55 493.21 145.17 460.98"/><polygon class="cls-1" points="124.41 460.98 108.82 461.09 109.2 493.32 124.79 493.21 124.41 460.98"/><polygon class="cls-1" points="105.25 460.98 89.66 461.09 90.04 493.32 105.63 493.21 105.25 460.98"/><rect class="cls-1" x="13.45" y="283.51" width="15.59" height="41.38" transform="translate(-283.13 322.8) rotate(-89.5)"/><rect class="cls-1" x="13.45" y="302.67" width="15.59" height="41.38" transform="translate(-302.29 341.79) rotate(-89.5)"/><rect class="cls-1" x="13.45" y="321.83" width="15.59" height="41.38" transform="translate(-321.45 360.79) rotate(-89.5)"/><rect class="cls-1" x="13.45" y="342.59" width="15.59" height="41.38" transform="translate(-342.21 381.36) rotate(-89.5)"/><rect class="cls-1" x="13.45" y="361.75" width="15.59" height="41.38" transform="translate(-361.37 400.36) rotate(-89.5)"/><rect class="cls-1" x="13.45" y="380.91" width="15.59" height="41.38" transform="translate(-380.53 419.35) rotate(-89.5)"/><path class="cls-1" d="M42,424.27V414.21H.22v26.1a10.7,10.7,0,0,0,4.23,8.52l33.27,25.28A10.7,10.7,0,0,1,42,482.63h0a10.69,10.69,0,0,0,10.69,10.69H83.78V461L46.22,432.83A10.7,10.7,0,0,1,42,424.27Z"/><rect class="cls-2" x="506.92" y="178.91" width="260" height="101" transform="translate(1303.21 109.62) rotate(150)"/><polygon class="cls-3" points="714.61 183.97 724.25 120.67 774.75 208.14 765.11 271.44 714.61 183.97"/><rect class="cls-2" x="730.54" y="142.43" width="139.11" height="101" transform="translate(1589.47 -40.04) rotate(150)"/><polygon class="cls-4" points="689.61 140.67 718.46 240.64 739.88 227.74 715.11 184.84 724.25 120.67 689.61 140.67"/><path class="cls-2" d="M1084.31,86.94,974.24,92.53,1034.12,0,744.42,166.76c17.45,28.77,35.1,57.64,52.93,86.07Z"/><path class="cls-2" d="M362.81,830.13,413,732l50.19,98.12.43-334.27c-33.64.73-67.47,1.58-101,2.81Z"/><circle class="cls-1" cx="413.13" cy="294.01" r="288"/><circle class="cls-2" cx="413.13" cy="294.01" r="254.06"/><path class="cls-5" d="M486,158.38a12.61,12.61,0,0,1,4.8,12.4c-1.6,7.6,0,16.4,0,24.4-.4,16.81-7.2,33.21-4,50,3.6,19.61,20.8,23.21,30,40.41,2.41,4.4-.8,9.61-5.6,10.41-3.6.4-6.8,2-7.6,5.6-.8,2.4.8,13.2.8,15.6,0,9.2-26.4,14.8-34.41,19.21,6.41,1.2,23.61,6.4,28.41,12.4a2.78,2.78,0,0,1-1.6,4.4c-6.8,2.4-11.2,10.4-12.4,18-1.2,8.8.4,17.61-1.6,26-4.4,18.4-30.41,12-47.21,2.8l1.6,48.41-119.23-20V417.63s3.2-40-10.8-66c-7.6-14.4-13.21-28-20.81-42.41-10-20-14.4-41.61-15.6-63.62C265.5,144.37,383.12,80,486,158.38Z"/><rect class="cls-5" x="521.56" y="332.01" width="81.62" height="12.4"/><polygon class="cls-5" points="526.76 316.81 576.37 295.21 571.17 284 521.96 305.61 526.76 316.81"/><polygon class="cls-5" points="526.76 359.22 576.37 380.82 571.17 392.43 521.96 370.82 526.76 359.22"/><rect class="cls-1" x="690.14" y="595.67" width="41.38" height="15.59" transform="translate(101.22 1309.03) rotate(-89.5)"/><rect class="cls-1" x="670.98" y="595.67" width="41.38" height="15.59" transform="translate(82.23 1289.87) rotate(-89.5)"/><rect class="cls-1" x="651.82" y="595.67" width="41.38" height="15.59" transform="translate(63.23 1270.7) rotate(-89.5)"/><rect class="cls-1" x="632.66" y="595.67" width="41.38" height="15.59" transform="translate(44.24 1251.54) rotate(-89.5)"/><rect class="cls-1" x="613.5" y="595.67" width="41.38" height="15.59" transform="translate(25.24 1232.38) rotate(-89.5)"/><rect class="cls-1" x="592.74" y="595.67" width="41.38" height="15.59" transform="translate(4.66 1211.63) rotate(-89.5)"/><rect class="cls-1" x="573.58" y="595.67" width="41.38" height="15.59" transform="translate(-14.33 1192.47) rotate(-89.5)"/><rect class="cls-1" x="554.42" y="595.67" width="41.38" height="15.59" transform="translate(-33.33 1173.3) rotate(-89.5)"/><rect class="cls-1" x="535.26" y="595.67" width="41.38" height="15.59" transform="translate(-52.32 1154.14) rotate(-89.5)"/><rect class="cls-1" x="516.09" y="595.67" width="41.38" height="15.59" transform="translate(-71.32 1134.98) rotate(-89.5)"/><rect class="cls-1" x="495.34" y="595.67" width="41.38" height="15.59" transform="translate(-91.89 1114.23) rotate(-89.5)"/><rect class="cls-1" x="476.18" y="595.67" width="41.38" height="15.59" transform="translate(-110.89 1095.06) rotate(-89.5)"/><rect class="cls-1" x="457.01" y="595.67" width="41.38" height="15.59" transform="translate(-129.88 1075.9) rotate(-89.5)"/><rect class="cls-1" x="747.63" y="595.67" width="41.38" height="15.59" transform="translate(158.21 1366.51) rotate(-89.5)"/><rect class="cls-1" x="728.47" y="595.67" width="41.38" height="15.59" transform="translate(139.21 1347.35) rotate(-89.5)"/><rect class="cls-1" x="709.31" y="595.67" width="41.38" height="15.59" transform="translate(120.22 1328.19) rotate(-89.5)"/><rect class="cls-1" x="533.66" y="640.4" width="41.38" height="15.59" transform="translate(-98.64 1196.9) rotate(-89.5)"/><rect class="cls-1" x="514.5" y="640.4" width="41.38" height="15.59" transform="translate(-117.64 1177.74) rotate(-89.5)"/><rect class="cls-1" x="495.34" y="640.4" width="41.38" height="15.59" transform="translate(-136.63 1158.58) rotate(-89.5)"/><rect class="cls-1" x="476.18" y="640.4" width="41.38" height="15.59" transform="translate(-155.63 1139.41) rotate(-89.5)"/><rect class="cls-1" x="457.01" y="640.4" width="41.38" height="15.59" transform="translate(-174.62 1120.25) rotate(-89.5)"/><rect class="cls-1" x="591.14" y="640.4" width="41.38" height="15.59" transform="translate(-41.66 1254.38) rotate(-89.5)"/><rect class="cls-1" x="571.98" y="640.4" width="41.38" height="15.59" transform="translate(-60.65 1235.22) rotate(-89.5)"/><rect class="cls-1" x="552.82" y="640.4" width="41.38" height="15.59" transform="translate(-79.65 1216.06) rotate(-89.5)"/><rect class="cls-1" x="457.01" y="685.14" width="41.38" height="15.59" transform="translate(-219.36 1164.6) rotate(-89.5)"/><rect class="cls-1" x="514.5" y="685.14" width="41.38" height="15.59" transform="translate(-162.37 1222.09) rotate(-89.5)"/><rect class="cls-1" x="495.34" y="685.14" width="41.38" height="15.59" transform="translate(-181.37 1202.93) rotate(-89.5)"/><rect class="cls-1" x="476.18" y="685.14" width="41.38" height="15.59" transform="translate(-200.36 1183.77) rotate(-89.5)"/><rect class="cls-1" x="476.18" y="729.88" width="41.38" height="15.59" transform="translate(-245.1 1228.12) rotate(-89.5)"/><rect class="cls-1" x="457.01" y="729.88" width="41.38" height="15.59" transform="translate(-264.1 1208.95) rotate(-89.5)"/><text class="cls-6" transform="translate(621.42 737.68)">ЯЗЫК</text><rect class="cls-1" x="392.44" y="930.58" width="41.38" height="15.59" transform="translate(-8.14 3.63) rotate(-0.5)"/><rect class="cls-1" x="392.44" y="911.42" width="41.38" height="15.59" transform="translate(-7.97 3.62) rotate(-0.5)"/><rect class="cls-1" x="392.44" y="892.26" width="41.38" height="15.59" transform="translate(-7.81 3.62) rotate(-0.5)"/><rect class="cls-1" x="392.44" y="871.5" width="41.38" height="15.59" transform="translate(-7.63 3.62) rotate(-0.5)"/><rect class="cls-1" x="392.44" y="852.34" width="41.38" height="15.59" transform="translate(-7.46 3.62) rotate(-0.5)"/><rect class="cls-1" x="392.44" y="833.18" width="41.38" height="15.59" transform="translate(-7.29 3.62) rotate(-0.5)"/><rect class="cls-1" x="392.44" y="1047.15" width="41.38" height="15.59" transform="matrix(1, -0.01, 0.01, 1, -9.15, 3.63)"/><rect class="cls-1" x="392.44" y="1027.99" width="41.38" height="15.59" transform="translate(-8.99 3.63) rotate(-0.5)"/><rect class="cls-1" x="392.44" y="1008.83" width="41.38" height="15.59" transform="translate(-8.82 3.63) rotate(-0.5)"/><rect class="cls-1" x="392.44" y="988.07" width="41.38" height="15.59" transform="translate(-8.64 3.63) rotate(-0.5)"/><rect class="cls-1" x="392.44" y="968.91" width="41.38" height="15.59" transform="translate(-8.47 3.63) rotate(-0.5)"/><rect class="cls-1" x="392.44" y="949.75" width="41.38" height="15.59" transform="translate(-8.31 3.63) rotate(-0.5)"/><rect class="cls-1" x="593.03" y="1107.42" width="15.59" height="41.38" transform="translate(-9.78 5.26) rotate(-0.5)"/><rect class="cls-1" x="573.86" y="1107.42" width="15.59" height="41.38" transform="translate(-9.78 5.1) rotate(-0.5)"/><rect class="cls-1" x="554.7" y="1107.42" width="15.59" height="41.38" transform="translate(-9.78 4.93) rotate(-0.5)"/><rect class="cls-1" x="533.94" y="1107.42" width="15.59" height="41.38" transform="translate(-9.78 4.75) rotate(-0.5)"/><rect class="cls-1" x="514.78" y="1107.42" width="15.59" height="41.38" transform="translate(-9.78 4.58) rotate(-0.5)"/><rect class="cls-1" x="495.62" y="1107.42" width="15.59" height="41.38" transform="translate(-9.78 4.42) rotate(-0.5)"/><path class="cls-1" d="M479.3,1107.41H492v41.72H459.11a14.91,14.91,0,0,1-10.72-4.22l-31.83-33.28a14.91,14.91,0,0,0-10.72-4.22h0c-7.44,0-13.47-4.79-13.47-10.7v-31.14H433l35.51,37.56A14.87,14.87,0,0,0,479.3,1107.41Z"/><rect class="cls-1" x="710.02" y="1107.42" width="15.59" height="41.38" transform="translate(-9.78 6.28) rotate(-0.5)"/><rect class="cls-1" x="690.86" y="1107.42" width="15.59" height="41.38" transform="translate(-9.78 6.11) rotate(-0.5)"/><rect class="cls-1" x="671.7" y="1107.42" width="15.59" height="41.38" transform="translate(-9.78 5.95) rotate(-0.5)"/><rect class="cls-1" x="650.94" y="1107.42" width="15.59" height="41.38" transform="translate(-9.78 5.77) rotate(-0.5)"/><rect class="cls-1" x="631.78" y="1107.42" width="15.59" height="41.38" transform="translate(-9.78 5.6) rotate(-0.5)"/><rect class="cls-1" x="612.62" y="1107.42" width="15.59" height="41.38" transform="translate(-9.78 5.43) rotate(-0.5)"/><rect class="cls-1" x="827.59" y="1107.42" width="15.59" height="41.38" transform="translate(-9.77 7.3) rotate(-0.5)"/><rect class="cls-1" x="808.43" y="1107.42" width="15.59" height="41.38" transform="translate(-9.77 7.14) rotate(-0.5)"/><rect class="cls-1" x="789.27" y="1107.42" width="15.59" height="41.38" transform="translate(-9.77 6.97) rotate(-0.5)"/><rect class="cls-1" x="768.51" y="1107.42" width="15.59" height="41.38" transform="translate(-9.77 6.79) rotate(-0.5)"/><rect class="cls-1" x="749.35" y="1107.42" width="15.59" height="41.38" transform="translate(-9.77 6.62) rotate(-0.5)"/><rect class="cls-1" x="730.19" y="1107.42" width="15.59" height="41.38" transform="translate(-9.78 6.46) rotate(-0.5)"/><rect class="cls-1" x="944.59" y="1107.42" width="15.59" height="41.38" transform="translate(-9.77 8.32) rotate(-0.5)"/><rect class="cls-1" x="925.43" y="1107.42" width="15.59" height="41.38" transform="translate(-9.77 8.15) rotate(-0.5)"/><rect class="cls-1" x="906.27" y="1107.42" width="15.59" height="41.38" transform="translate(-9.77 7.99) rotate(-0.5)"/><rect class="cls-1" x="885.51" y="1107.42" width="15.59" height="41.38" transform="translate(-9.77 7.81) rotate(-0.5)"/><rect class="cls-1" x="866.35" y="1107.42" width="15.59" height="41.38" transform="translate(-9.77 7.64) rotate(-0.5)"/><rect class="cls-1" x="847.18" y="1107.42" width="15.59" height="41.38" transform="translate(-9.77 7.47) rotate(-0.5)"/><rect class="cls-1" x="1063.32" y="1107.42" width="15.59" height="41.38" transform="translate(-9.76 9.35) rotate(-0.5)"/><rect class="cls-1" x="1044.16" y="1107.42" width="15.59" height="41.38" transform="translate(-9.76 9.18) rotate(-0.5)"/><rect class="cls-1" x="1025" y="1107.42" width="15.59" height="41.38" transform="translate(-9.76 9.02) rotate(-0.5)"/><rect class="cls-1" x="1004.24" y="1107.42" width="15.59" height="41.38" transform="translate(-9.76 8.84) rotate(-0.5)"/><rect class="cls-1" x="985.08" y="1107.42" width="15.59" height="41.38" transform="translate(-9.77 8.67) rotate(-0.5)"/><rect class="cls-1" x="965.91" y="1107.42" width="15.59" height="41.38" transform="translate(-9.77 8.5) rotate(-0.5)"/><rect class="cls-1" x="1180.32" y="1107.42" width="15.59" height="41.38" transform="translate(-9.76 10.37) rotate(-0.5)"/><rect class="cls-1" x="1161.16" y="1107.42" width="15.59" height="41.38" transform="translate(-9.76 10.2) rotate(-0.5)"/><rect class="cls-1" x="1142" y="1107.42" width="15.59" height="41.38" transform="translate(-9.76 10.03) rotate(-0.5)"/><rect class="cls-1" x="1121.24" y="1107.42" width="15.59" height="41.38" transform="translate(-9.76 9.85) rotate(-0.5)"/><rect class="cls-1" x="1102.08" y="1107.42" width="15.59" height="41.38" transform="translate(-9.76 9.69) rotate(-0.5)"/><rect class="cls-1" x="1082.91" y="1107.42" width="15.59" height="41.38" transform="translate(-9.76 9.52) rotate(-0.5)"/><rect class="cls-1" x="1297.88" y="1107.42" width="15.59" height="41.38" transform="translate(-9.75 11.39) rotate(-0.5)"/><rect class="cls-1" x="1278.72" y="1107.42" width="15.59" height="41.38" transform="translate(-9.75 11.22) rotate(-0.5)"/><rect class="cls-1" x="1259.56" y="1107.42" width="15.59" height="41.38" transform="translate(-9.76 11.06) rotate(-0.5)"/><rect class="cls-1" x="1238.8" y="1107.42" width="15.59" height="41.38" transform="translate(-9.76 10.88) rotate(-0.5)"/><rect class="cls-1" x="1219.64" y="1107.42" width="15.59" height="41.38" transform="translate(-9.76 10.71) rotate(-0.5)"/><rect class="cls-1" x="1200.48" y="1107.42" width="15.59" height="41.38" transform="translate(-9.76 10.54) rotate(-0.5)"/><rect class="cls-1" x="1414.88" y="1107.42" width="15.59" height="41.38" transform="translate(-9.75 12.41) rotate(-0.5)"/><rect class="cls-1" x="1395.72" y="1107.42" width="15.59" height="41.38" transform="translate(-9.75 12.24) rotate(-0.5)"/><rect class="cls-1" x="1376.56" y="1107.42" width="15.59" height="41.38" transform="translate(-9.75 12.07) rotate(-0.5)"/><rect class="cls-1" x="1355.8" y="1107.42" width="15.59" height="41.38" transform="translate(-9.75 11.89) rotate(-0.5)"/><rect class="cls-1" x="1336.64" y="1107.42" width="15.59" height="41.38" transform="translate(-9.75 11.73) rotate(-0.5)"/><rect class="cls-1" x="1317.48" y="1107.42" width="15.59" height="41.38" transform="translate(-9.75 11.56) rotate(-0.5)"/></g></g></svg>