<?xml version="1.0" encoding="utf-8"?>
<!-- Generator: Adobe Illustrator 24.1.1, SVG Export Plug-In . SVG Version: 6.00 Build 0)  -->
<svg version="1.1" id="Capa_1" xmlns="http://www.w3.org/2000/svg" xmlns:xlink="http://www.w3.org/1999/xlink" x="0px" y="0px"
	 viewBox="0 0 512 512" style="enable-background:new 0 0 512 512;" xml:space="preserve">
<style type="text/css">
	.st0{fill:#FFFFFF;}
</style>
<g>
	<g>
		<path class="st0" d="M420.1,425.2c-4.1,0-7.5,3.4-7.5,7.5v60.2c0,2.2-1.8,4.1-4.1,4.1h-40V350c0-4.1-3.4-7.5-7.5-7.5
			s-7.5,3.4-7.5,7.5v147h-90V393.4c0-4.1-3.4-7.5-7.5-7.5s-7.5,3.4-7.5,7.5V497h-29.9c-4.1,0-7.5,3.4-7.5,7.5s3.4,7.5,7.5,7.5h189.9
			c10.5,0,19.1-8.6,19.1-19.1v-60.2C427.6,428.6,424.2,425.2,420.1,425.2z"/>
	</g>
</g>
<g>
	<g>
		<path class="st0" d="M388.2,276.8c0,0-0.1,0-0.1-0.1L299,242.2V237h32.8c10.5,0,19.1-8.6,19.1-19.1v-54.4c4.1-5.4,6.3-12,6.3-19
			c0-6.9-2.2-13.6-6.3-19V94.8C350.8,42.5,308.3,0,256,0c-52.3,0-94.8,42.5-94.8,94.8v123.1c0,10.5,8.6,19.1,19.1,19.1H213v5.2
			l-89,34.5c0,0-0.1,0-0.1,0.1c-1.6,0.7-39.4,16.7-39.4,60.8v155.3c0,10.5,8.6,19.1,19.1,19.1h80.1c4.1,0,7.5-3.4,7.5-7.5
			s-3.4-7.5-7.5-7.5h-25.1V350c0-4.1-3.4-7.5-7.5-7.5s-7.5,3.4-7.5,7.5v147h-40c-2.2,0-4.1-1.8-4.1-4.1V337.6
			c0-33.5,28.3-46.2,30-46.9l53.5-20.7l23.5,47.1c0,0,0,0,0,0c1.5,3,4.1,5.3,7.3,6.5c-7.5,11.9-12.3,23.8-14.5,29.8
			c-2.2,6.1,0.8,12.7,6.7,15.2l21.9,9c3.2,1.3,6.9,1.2,10.1-0.5c3.1-1.6,5.4-4.6,6.1-8c2.9-13,7.5-24,11.8-32.3
			c4.3,8.2,9,19.2,11.8,32.3c0.8,3.5,3,6.4,6.1,8c3.2,1.7,6.9,1.8,10.1,0.5l21.9-9c6-2.4,8.9-9.1,6.7-15.2
			c-2.2-6-6.9-17.9-14.5-29.8c3.1-1.1,5.7-3.4,7.3-6.5l0,0l23.5-47.1l53.5,20.7c1.3,0.6,30,13.4,30,46.9v60.1c0,4.1,3.4,7.5,7.5,7.5
			s7.5-3.4,7.5-7.5v-60.1C427.6,293.5,389.8,277.4,388.2,276.8z M335.8,217.9c0,2.2-1.8,4.1-4.1,4.1h-31.6
			c13.8-10.9,23.6-27,26.1-45.6c3.1-0.1,6.6-0.8,9.6-1.9L335.8,217.9L335.8,217.9z M342.1,144.6c0,8.5-6.4,15.8-15.3,16.8v-33.5
			C335.6,128.8,342.1,136,342.1,144.6z M180.3,222c-2.2,0-4.1-1.8-4.1-4.1V94.8c0-44,35.8-79.8,79.8-79.8c44,0,79.8,35.8,79.8,79.8
			v19.8c-2.8-1-6.3-1.7-9.1-1.8c-0.6-5.1-4.2-9.5-9.3-11c0,0,0,0,0,0C306.1,98.3,293.6,91,282.9,80c-5.1-5.2-13.3-5.4-18.6-0.5
			c-1.9,1.8-31.3,37.6-70.5,52.1c-5.2,1.9-8.7,6.9-8.7,12.5v23.1c0,22.2,10.4,42.2,26.7,54.9L180.3,222L180.3,222z M200.2,167.1
			v-21.9c4.3-1.6,8.5-3.5,12.6-5.5c28.5-14.2,50.7-36.8,60.7-47.9c13.8,13.7,28,20.4,36.7,23.4c0.6,0.2,1.1,0.4,1.7,0.6v5v46.4
			c0,30-24.4,54.9-54.9,54.9C221.8,222,200.2,194.6,200.2,167.1z M283.9,231.6v13.1l-28,34.5l-28-34.6v-13.3
			c9,3.7,18.8,5.6,28.9,5.6C266.5,237,275.7,235,283.9,231.6z M197,264.5l21.1-8.2l27,33.4l-0.3,0.2c-4.1,2.9-23,16.3-26,18.5
			L197,264.5z M230.3,362.2l-16-6.5c3-7.7,8.9-21.1,17.9-32.5c2.8,3.1,6.3,5.6,10,7.3C238,338.9,233.4,349.6,230.3,362.2z
			 M256,318.6c-5.6,0-11.2-2.8-14.5-7.9l14.5-10.3c11.8,8.4,8.7,6.2,14.5,10.3C267.2,315.7,261.7,318.6,256,318.6z M281.7,362.2
			c-3.1-12.6-7.7-23.4-12-31.8c3.8-1.8,7.2-4.3,10-7.3c9,11.4,15,24.9,17.9,32.6L281.7,362.2z M293.1,308.3
			c-5.4-3.9-20.9-14.9-26.3-18.7l27-33.4l21.1,8.2L293.1,308.3z"/>
	</g>
</g>
</svg>
