<svg xmlns="http://www.w3.org/2000/svg" viewBox="0 0 166.17 147.53"><title>fish_arrow_1</title><g id="Слой_2" data-name="Слой 2"><g id="Слой_1-2" data-name="Слой 1"><polygon points="32.91 50.76 82.83 67.36 133.25 51.02 82.83 147.53 32.91 50.76"/><path d="M3,13.35c5.92.52,19.67,7.11,21.14,7.82a.6.6,0,0,0,.27.07l11.84.9a.77.77,0,0,0,.42-1.44,7.82,7.82,0,0,0-.91-.36.77.77,0,0,1,.23-1.49c2.58-.08,7,1.57,7.89,1.93a.67.67,0,0,0,.37,0L72.93,17a.76.76,0,0,0,.1-1.49l-2.51-.68a.77.77,0,0,1-.31-1.31l5.22-4.6A.72.72,0,0,1,76,8.74l2.5.11-.92-.64a.75.75,0,0,1-.11-1.15l4.33-4.44a.78.78,0,0,1,.67-.22l1.9.32L83.07.81,83.58,0c1.54-.83,15.75,11.33,17.66,13a.74.74,0,0,0,.49.18C147.49,13,163.24,24,165.88,26.11a.73.73,0,0,1,.15,1,6.69,6.69,0,0,1-1.63,1.35.76.76,0,0,0,.3,1.39h0a.76.76,0,0,1,.5,1.22c-7.11,9.17-29.35,9-32.49,8.93a.73.73,0,0,0-.61.29L126,48a.83.83,0,0,0-.17.45c-.19,2.88-3.74-1.22-4.64-2.3a.73.73,0,0,1-.16-.57l.15-1.38a.77.77,0,0,0-.49-.8L119,42.75a.85.85,0,0,0-.42,0c-13.62,2.9-21.69,1.93-24.06,1.5a.77.77,0,0,0-.87.56C92.43,50,84.57,52.64,86.77,50s-.39,3.95-6.77,3.57c-5-.3.25-6.47,2.71-9.07a.76.76,0,0,0-.49-1.28l-23.34-2a.83.83,0,0,0-.38.07l-17,7.68-.11,0-2.17.59a.77.77,0,0,1-.87-.37L38,48.45a.66.66,0,0,1-.09-.33l-.12-3.41a.78.78,0,0,0,0-.22l-1-2.92a.71.71,0,0,1,0-.57l.58-1.24a.77.77,0,0,0-.07-.76l-.46-.66A.76.76,0,0,1,37,37.27l1.46-1a.7.7,0,0,1,.42-.13h4.49l-2.93-.9s11.74.77-.51-.25c-11.76-1-27.63,4-28.9,4.44a.52.52,0,0,1-.18,0l-10,.67a.76.76,0,0,1-.72-1.11l1.48-2.79a.68.68,0,0,0,.07-.2l.3-1.4a.73.73,0,0,1,.3-.45L3.92,33l-1.41-.51v-1a36.36,36.36,0,0,1,1.28-4.6L3.41,26l-1.15-.64.09-.82a.76.76,0,0,0-.18-.58L.85,22.38l.84-.48.11,0,2-.75-1.57-.24-.17,0-.61-.25A.74.74,0,0,1,1,19.72L2.13,14A.77.77,0,0,1,3,13.35Z"/></g></g></svg>