<svg xmlns="http://www.w3.org/2000/svg" viewBox="0 0 283.03 1194.04"><defs><style>.cls-1{fill:#333;}.cls-2{fill:#f63;}</style></defs><g id="Слой_2" data-name="Слой 2"><g id="Слой_1-2" data-name="Слой 1"><rect class="cls-1" x="80.48" y="88.79" width="41.82" height="15.81" transform="matrix(1, -0.01, 0.01, 1, -0.84, 0.89)"/><rect class="cls-1" x="80.48" y="108.31" width="41.82" height="15.81" transform="translate(-1.01 0.89) rotate(-0.5)"/><rect class="cls-1" x="2.68" y="0.35" width="15.76" height="41.96" transform="translate(-0.19 0.09) rotate(-0.5)"/><path class="cls-1" d="M34.93,42.31H22.13V0H55.34A15,15,0,0,1,66.17,4.28L98.35,38a15,15,0,0,0,10.83,4.28h0c7.84.07,7.84.07,13.6,0V84.73H81.69L45.82,46.65A15,15,0,0,0,34.93,42.31Z"/><rect class="cls-1" x="80.48" y="127.83" width="41.82" height="15.81" transform="matrix(1, -0.01, 0.01, 1, -1.18, 0.89)"/><rect class="cls-1" x="80.48" y="147.35" width="41.82" height="15.81" transform="translate(-1.35 0.89) rotate(-0.5)"/><rect class="cls-1" x="80.48" y="166.88" width="41.82" height="15.81" transform="matrix(1, -0.01, 0.01, 1, -1.52, 0.89)"/><rect class="cls-1" x="80.48" y="186.4" width="41.82" height="15.81" transform="translate(-1.69 0.89) rotate(-0.5)"/><rect class="cls-1" x="80.48" y="205.92" width="41.82" height="15.81" transform="matrix(1, -0.01, 0.01, 1, -1.86, 0.89)"/><rect class="cls-1" x="80.48" y="225.44" width="41.82" height="15.81" transform="translate(-2.03 0.89) rotate(-0.5)"/><rect class="cls-1" x="80.48" y="244.96" width="41.82" height="15.81" transform="matrix(1, -0.01, 0.01, 1, -2.2, 0.89)"/><rect class="cls-1" x="80.48" y="264.49" width="41.82" height="15.81" transform="translate(-2.37 0.89) rotate(-0.5)"/><rect class="cls-1" x="80.48" y="284.01" width="41.82" height="15.81" transform="matrix(1, -0.01, 0.01, 1, -2.54, 0.89)"/><rect class="cls-1" x="93.49" y="602.88" width="15.81" height="41.82" transform="translate(-523.25 719.75) rotate(-89.5)"/><rect class="cls-1" x="93.49" y="583.36" width="15.81" height="41.82" transform="translate(-503.73 700.4) rotate(-89.5)"/><rect class="cls-1" x="60.15" y="1151.87" width="15.76" height="41.96" transform="translate(-10.2 0.64) rotate(-0.5)"/><path class="cls-1" d="M170.87,775.78h13.18v42.3h-42v-4.22l-36.52-33.82a15.75,15.75,0,0,0-11.16-4.27h0c-7.73,0-14-4.86-14-10.85V733.35h42.3l36.94,38.09A15.77,15.77,0,0,0,170.87,775.78Z"/><rect class="cls-1" x="93.49" y="563.83" width="15.81" height="41.82" transform="matrix(0.01, -1, 1, 0.01, -484.21, 681.05)"/><rect class="cls-1" x="93.49" y="544.31" width="15.81" height="41.82" transform="translate(-464.69 661.69) rotate(-89.5)"/><rect class="cls-1" x="93.49" y="524.79" width="15.81" height="41.82" transform="translate(-445.17 642.34) rotate(-89.5)"/><rect class="cls-1" x="93.49" y="505.27" width="15.81" height="41.82" transform="translate(-425.65 622.99) rotate(-89.5)"/><rect class="cls-1" x="93.49" y="485.75" width="15.81" height="41.82" transform="matrix(0.01, -1, 1, 0.01, -406.12, 603.64)"/><rect class="cls-1" x="93.49" y="349.09" width="15.81" height="41.82" transform="translate(-269.48 468.17) rotate(-89.5)"/><rect class="cls-1" x="93.49" y="329.57" width="15.81" height="41.82" transform="translate(-249.95 448.82) rotate(-89.5)"/><rect class="cls-1" x="93.49" y="310.05" width="15.81" height="41.82" transform="translate(-230.43 429.47) rotate(-89.5)"/><rect class="cls-1" x="93.49" y="290.53" width="15.81" height="41.82" transform="matrix(0.01, -1, 1, 0.01, -210.91, 410.12)"/><rect class="cls-1" x="93.49" y="466.22" width="15.81" height="41.82" transform="translate(-386.6 584.29) rotate(-89.5)"/><path class="cls-2" d="M218.2,20l61.29,35.56a7.16,7.16,0,0,1,0,12.35L218.2,103.43a7.09,7.09,0,0,1-10.64-6.17V26.13A7.1,7.1,0,0,1,218.2,20Z"/><rect class="cls-1" x="126.48" y="42.43" width="15.81" height="41.82" transform="translate(-0.55 1.17) rotate(-0.5)"/><rect class="cls-1" x="145.95" y="42.43" width="15.81" height="41.82" transform="translate(-0.55 1.34) rotate(-0.5)"/><rect class="cls-1" x="165.42" y="42.43" width="15.81" height="41.82" transform="matrix(1, -0.01, 0.01, 1, -0.54, 1.51)"/><rect class="cls-1" x="184.88" y="42.43" width="15.81" height="41.82" transform="translate(-0.54 1.68) rotate(-0.5)"/><rect class="cls-1" x="93.49" y="427.18" width="15.81" height="41.82" transform="translate(-347.56 545.58) rotate(-89.5)"/><rect class="cls-1" x="93.49" y="407.66" width="15.81" height="41.82" transform="translate(-328.04 526.23) rotate(-89.5)"/><rect class="cls-1" x="93.49" y="388.14" width="15.81" height="41.82" transform="translate(-308.52 506.88) rotate(-89.5)"/><rect class="cls-1" x="93.49" y="368.61" width="15.81" height="41.82" transform="matrix(0.01, -1, 1, 0.01, -289, 487.52)"/><rect class="cls-1" x="93.49" y="446.7" width="15.81" height="41.82" transform="translate(-367.08 564.93) rotate(-89.5)"/><rect class="cls-1" x="80.48" y="713.49" width="41.82" height="15.81" transform="translate(-6.27 0.91) rotate(-0.5)"/><rect class="cls-1" x="80.48" y="693.97" width="41.82" height="15.81" transform="translate(-6.1 0.91) rotate(-0.5)"/><rect class="cls-1" x="80.48" y="674.45" width="41.82" height="15.81" transform="translate(-5.93 0.91) rotate(-0.5)"/><rect class="cls-1" x="80.48" y="654.93" width="41.82" height="15.81" transform="translate(-5.76 0.91) rotate(-0.5)"/><rect class="cls-1" x="93.49" y="622.4" width="15.81" height="41.82" transform="translate(-542.77 739.1) rotate(-89.5)"/><rect class="cls-1" x="142.3" y="1073.93" width="41.87" height="15.76" transform="translate(-9.42 1.46) rotate(-0.5)"/><path class="cls-1" d="M142.29,1106.19v-12.8h42.22v33.2a15,15,0,0,1-4.27,10.84l-33.68,32.18a15.07,15.07,0,0,0-4.27,10.83h0c0,7.51-4.84,13.6-10.82,13.6H100V1153l38-35.88A15,15,0,0,0,142.29,1106.19Z"/><rect class="cls-1" x="80.14" y="1151.94" width="15.77" height="41.82" transform="translate(-10.22 0.81) rotate(-0.5)"/><rect class="cls-1" x="155.19" y="807.25" width="15.77" height="41.82" transform="matrix(0.01, -1, 1, 0.01, -666.47, 984.01)"/><rect class="cls-1" x="155.19" y="826.73" width="15.77" height="41.82" transform="translate(-685.95 1003.32) rotate(-89.5)"/><rect class="cls-1" x="155.19" y="846.21" width="15.77" height="41.82" transform="translate(-705.43 1022.63) rotate(-89.5)"/><rect class="cls-1" x="155.17" y="943.8" width="15.81" height="41.82" transform="translate(-803.01 1119.39) rotate(-89.5)"/><rect class="cls-1" x="155.17" y="924.28" width="15.81" height="41.82" transform="translate(-783.49 1100.03) rotate(-89.5)"/><rect class="cls-1" x="155.17" y="904.75" width="15.81" height="41.82" transform="translate(-763.97 1080.68) rotate(-89.5)"/><rect class="cls-1" x="155.17" y="885.23" width="15.81" height="41.82" transform="translate(-744.45 1061.33) rotate(-89.5)"/><polyline class="cls-1" points="142.24 878.53 184.05 878.9 183.91 894.71 142.1 894.34 142.24 878.53"/><polyline class="cls-1" points="184.05 1070.04 183.91 1054.23 142.1 1054.6 142.24 1070.4"/><rect class="cls-1" x="142.17" y="1034.89" width="41.82" height="15.81" transform="translate(-9.06 1.46) rotate(-0.5)"/><rect class="cls-1" x="142.17" y="1015.37" width="41.82" height="15.81" transform="translate(-8.89 1.46) rotate(-0.5)"/><rect class="cls-1" x="142.17" y="995.85" width="41.82" height="15.81" transform="translate(-8.72 1.46) rotate(-0.5)"/><rect class="cls-1" x="155.17" y="963.32" width="15.81" height="41.82" transform="translate(-822.54 1138.74) rotate(-89.5)"/><rect class="cls-1" x="20.17" y="1151.87" width="15.76" height="41.96" transform="translate(-10.2 0.29) rotate(-0.5)"/><rect class="cls-1" x="40.15" y="1151.94" width="15.77" height="41.82" transform="translate(-10.22 0.46) rotate(-0.5)"/><rect class="cls-1" x="0.18" y="1151.87" width="15.76" height="41.96" transform="translate(-10.2 0.11) rotate(-0.5)"/></g></g></svg>