<svg xmlns="http://www.w3.org/2000/svg" viewBox="0 0 342.18 716.63"><defs><style>.cls-1{fill:#333;}.cls-2{fill:#f63;}</style></defs><g id="Слой_2" data-name="Слой 2"><g id="Слой_1-2" data-name="Слой 1"><rect class="cls-1" x="138.21" y="87.6" width="41.82" height="15.81" transform="matrix(1, -0.01, 0.01, 1, -0.82, 1.39)"/><rect class="cls-1" x="138.21" y="107.07" width="41.82" height="15.81" transform="translate(-0.99 1.39) rotate(-0.5)"/><rect class="cls-1" x="0.18" y="0.35" width="15.76" height="41.96" transform="translate(-0.19 0.07) rotate(-0.5)"/><rect class="cls-1" x="20.09" y="0.34" width="15.76" height="41.96" transform="translate(-0.18 0.24) rotate(-0.5)"/><rect class="cls-1" x="39.99" y="0.35" width="15.76" height="41.96" transform="translate(-0.18 0.42) rotate(-0.5)"/><rect class="cls-1" x="59.89" y="0.35" width="15.76" height="41.96" transform="translate(-0.18 0.59) rotate(-0.5)"/><path class="cls-1" d="M92.15,42.31H79.34V0h33.21a15.07,15.07,0,0,1,10.84,4.28L155.56,38a15,15,0,0,0,10.84,4.28h0c7.84.07,7.84.07,13.6,0V84.73H138.91L103,46.65A15,15,0,0,0,92.15,42.31Z"/><rect class="cls-1" x="138.21" y="126.54" width="41.82" height="15.81" transform="matrix(1, -0.01, 0.01, 1, -1.16, 1.39)"/><rect class="cls-1" x="138.21" y="146.01" width="41.82" height="15.81" transform="translate(-1.33 1.39) rotate(-0.5)"/><rect class="cls-1" x="138.21" y="165.47" width="41.82" height="15.81" transform="matrix(1, -0.01, 0.01, 1, -1.5, 1.39)"/><rect class="cls-1" x="138.21" y="184.94" width="41.82" height="15.81" transform="translate(-1.67 1.39) rotate(-0.5)"/><rect class="cls-1" x="138.21" y="204.41" width="41.82" height="15.81" transform="matrix(1, -0.01, 0.01, 1, -1.84, 1.39)"/><rect class="cls-1" x="138.21" y="223.87" width="41.82" height="15.81" transform="translate(-2.01 1.39) rotate(-0.5)"/><rect class="cls-1" x="138.21" y="243.34" width="41.82" height="15.81" transform="matrix(1, -0.01, 0.01, 1, -2.18, 1.39)"/><rect class="cls-1" x="138.21" y="262.81" width="41.82" height="15.81" transform="translate(-2.35 1.39) rotate(-0.5)"/><rect class="cls-1" x="138.21" y="282.27" width="41.82" height="15.81" transform="matrix(1, -0.01, 0.01, 1, -2.52, 1.39)"/><rect class="cls-1" x="151.21" y="600.21" width="15.81" height="41.82" transform="translate(-463.36 774.83) rotate(-89.5)"/><rect class="cls-1" x="151.21" y="580.74" width="15.81" height="41.82" transform="translate(-443.89 755.53) rotate(-89.5)"/><rect class="cls-1" x="-12.61" y="687.42" width="41.96" height="15.76" transform="translate(-686.97 697.62) rotate(-89.5)"/><rect class="cls-1" x="7.3" y="687.43" width="41.96" height="15.76" transform="translate(-667.25 717.54) rotate(-89.5)"/><rect class="cls-1" x="27.2" y="687.42" width="41.96" height="15.76" transform="translate(-647.51 737.43) rotate(-89.5)"/><rect class="cls-1" x="47.11" y="687.42" width="41.96" height="15.76" transform="translate(-627.78 757.34) rotate(-89.5)"/><path class="cls-1" d="M92.46,674.32H79.66v42.3h33.21a15,15,0,0,0,10.83-4.28l32.18-33.74a15,15,0,0,1,10.83-4.28h0c7.51,0,13.6-4.86,13.6-10.85V631.89H139.22L103.35,670A15,15,0,0,1,92.46,674.32Z"/><rect class="cls-1" x="151.21" y="561.27" width="15.81" height="41.82" transform="matrix(0.01, -1, 1, 0.01, -424.43, 736.23)"/><rect class="cls-1" x="151.21" y="541.81" width="15.81" height="41.82" transform="translate(-404.96 716.93) rotate(-89.5)"/><rect class="cls-1" x="151.21" y="522.34" width="15.81" height="41.82" transform="translate(-385.5 697.64) rotate(-89.5)"/><rect class="cls-1" x="151.21" y="502.87" width="15.81" height="41.82" transform="translate(-366.03 678.34) rotate(-89.5)"/><rect class="cls-1" x="151.21" y="483.41" width="15.81" height="41.82" transform="matrix(0.01, -1, 1, 0.01, -346.56, 659.04)"/><rect class="cls-1" x="151.21" y="347.14" width="15.81" height="41.82" transform="translate(-210.3 523.96) rotate(-89.5)"/><rect class="cls-1" x="151.21" y="327.67" width="15.81" height="41.82" transform="translate(-190.83 504.66) rotate(-89.5)"/><rect class="cls-1" x="151.21" y="308.2" width="15.81" height="41.82" transform="translate(-171.37 485.36) rotate(-89.5)"/><rect class="cls-1" x="151.21" y="288.74" width="15.81" height="41.82" transform="matrix(0.01, -1, 1, 0.01, -151.9, 466.06)"/><rect class="cls-1" x="151.21" y="463.94" width="15.81" height="41.82" transform="translate(-327.1 639.74) rotate(-89.5)"/><path class="cls-2" d="M277.35,21.61l61.3,35.56a7.15,7.15,0,0,1,0,12.34l-61.3,35.56a7.08,7.08,0,0,1-10.63-6.17V27.78A7.09,7.09,0,0,1,277.35,21.61Z"/><rect class="cls-1" x="183.7" y="42.43" width="15.81" height="41.82" transform="translate(-0.54 1.67) rotate(-0.5)"/><rect class="cls-1" x="203.16" y="42.43" width="15.81" height="41.82" transform="translate(-0.54 1.84) rotate(-0.5)"/><rect class="cls-1" x="222.63" y="42.43" width="15.81" height="41.82" transform="matrix(1, -0.01, 0.01, 1, -0.54, 2.01)"/><rect class="cls-1" x="242.1" y="42.43" width="15.81" height="41.82" transform="translate(-0.54 2.18) rotate(-0.5)"/><rect class="cls-1" x="151.21" y="425.01" width="15.81" height="41.82" transform="translate(-288.16 601.15) rotate(-89.5)"/><rect class="cls-1" x="151.21" y="405.54" width="15.81" height="41.82" transform="translate(-268.7 581.85) rotate(-89.5)"/><rect class="cls-1" x="151.21" y="386.07" width="15.81" height="41.82" transform="translate(-249.23 562.55) rotate(-89.5)"/><rect class="cls-1" x="151.21" y="366.6" width="15.81" height="41.82" transform="matrix(0.01, -1, 1, 0.01, -229.77, 543.26)"/><rect class="cls-1" x="151.21" y="444.47" width="15.81" height="41.82" transform="translate(-307.63 620.45) rotate(-89.5)"/></g></g></svg>