<svg xmlns="http://www.w3.org/2000/svg" viewBox="0 0 280.54 818.09"><defs><style>.cls-1{fill:#333;}.cls-2{fill:#f63;}</style></defs><g id="Слой_2" data-name="Слой 2"><g id="Слой_1-2" data-name="Слой 1"><rect class="cls-1" x="78.5" y="88.79" width="41.82" height="15.81" transform="matrix(1, -0.01, 0.01, 1, -0.84, 0.87)"/><rect class="cls-1" x="78.5" y="108.31" width="41.82" height="15.81" transform="translate(-1.01 0.87) rotate(-0.5)"/><rect class="cls-1" x="0.18" y="0.35" width="15.76" height="41.96" transform="translate(-0.19 0.07) rotate(-0.5)"/><path class="cls-1" d="M32.44,42.31H19.63V0H52.84A15.07,15.07,0,0,1,63.68,4.28L95.85,38a15,15,0,0,0,10.84,4.28h0c7.83.07,7.83.07,13.6,0V84.73H79.2L43.32,46.65A15,15,0,0,0,32.44,42.31Z"/><rect class="cls-1" x="78.5" y="127.83" width="41.82" height="15.81" transform="matrix(1, -0.01, 0.01, 1, -1.18, 0.87)"/><rect class="cls-1" x="78.5" y="147.35" width="41.82" height="15.81" transform="translate(-1.35 0.87) rotate(-0.5)"/><rect class="cls-1" x="78.5" y="166.88" width="41.82" height="15.81" transform="matrix(1, -0.01, 0.01, 1, -1.52, 0.87)"/><rect class="cls-1" x="78.5" y="186.4" width="41.82" height="15.81" transform="translate(-1.69 0.87) rotate(-0.5)"/><rect class="cls-1" x="78.5" y="205.92" width="41.82" height="15.81" transform="matrix(1, -0.01, 0.01, 1, -1.86, 0.87)"/><rect class="cls-1" x="78.5" y="225.44" width="41.82" height="15.81" transform="translate(-2.03 0.87) rotate(-0.5)"/><rect class="cls-1" x="78.5" y="244.96" width="41.82" height="15.81" transform="matrix(1, -0.01, 0.01, 1, -2.2, 0.87)"/><rect class="cls-1" x="78.5" y="264.49" width="41.82" height="15.81" transform="translate(-2.37 0.87) rotate(-0.5)"/><rect class="cls-1" x="78.5" y="284.01" width="41.82" height="15.81" transform="matrix(1, -0.01, 0.01, 1, -2.54, 0.88)"/><rect class="cls-1" x="91.5" y="602.88" width="15.81" height="41.82" transform="translate(-525.22 717.76) rotate(-89.5)"/><rect class="cls-1" x="91.5" y="583.36" width="15.81" height="41.82" transform="translate(-505.7 698.41) rotate(-89.5)"/><rect class="cls-1" x="-12.61" y="788.89" width="41.96" height="15.76" transform="translate(-788.43 798.21) rotate(-89.5)"/><path class="cls-1" d="M32.75,775.78H20v42.31H53.16A15,15,0,0,0,64,813.81l32.18-33.75A15,15,0,0,1,107,775.78h0c7.51,0,13.6-4.85,13.6-10.85V733.36H79.51L43.64,771.44A15,15,0,0,1,32.75,775.78Z"/><rect class="cls-1" x="91.5" y="563.83" width="15.81" height="41.82" transform="matrix(0.01, -1, 1, 0.01, -486.18, 679.06)"/><rect class="cls-1" x="91.5" y="544.31" width="15.81" height="41.82" transform="translate(-466.66 659.71) rotate(-89.5)"/><rect class="cls-1" x="91.5" y="524.79" width="15.81" height="41.82" transform="translate(-447.14 640.36) rotate(-89.5)"/><rect class="cls-1" x="91.5" y="505.27" width="15.81" height="41.82" transform="translate(-427.62 621) rotate(-89.5)"/><rect class="cls-1" x="91.5" y="485.75" width="15.81" height="41.82" transform="matrix(0.01, -1, 1, 0.01, -408.09, 601.65)"/><rect class="cls-1" x="91.5" y="349.09" width="15.81" height="41.82" transform="translate(-271.44 466.19) rotate(-89.5)"/><rect class="cls-1" x="91.5" y="329.57" width="15.81" height="41.82" transform="translate(-251.92 446.83) rotate(-89.5)"/><rect class="cls-1" x="91.5" y="310.05" width="15.81" height="41.82" transform="translate(-232.4 427.48) rotate(-89.5)"/><rect class="cls-1" x="91.5" y="290.53" width="15.81" height="41.82" transform="matrix(0.01, -1, 1, 0.01, -212.88, 408.13)"/><rect class="cls-1" x="91.5" y="466.22" width="15.81" height="41.82" transform="translate(-388.57 582.3) rotate(-89.5)"/><path class="cls-2" d="M215.71,20,277,55.52a7.16,7.16,0,0,1,0,12.35l-61.29,35.56a7.09,7.09,0,0,1-10.64-6.17V26.13A7.1,7.1,0,0,1,215.71,20Z"/><rect class="cls-1" x="123.99" y="42.43" width="15.81" height="41.82" transform="translate(-0.55 1.15) rotate(-0.5)"/><rect class="cls-1" x="143.45" y="42.43" width="15.81" height="41.82" transform="translate(-0.55 1.32) rotate(-0.5)"/><rect class="cls-1" x="162.92" y="42.43" width="15.81" height="41.82" transform="matrix(1, -0.01, 0.01, 1, -0.54, 1.49)"/><rect class="cls-1" x="182.39" y="42.43" width="15.81" height="41.82" transform="translate(-0.54 1.66) rotate(-0.5)"/><rect class="cls-1" x="91.5" y="427.18" width="15.81" height="41.82" transform="translate(-349.53 543.59) rotate(-89.5)"/><rect class="cls-1" x="91.5" y="407.66" width="15.81" height="41.82" transform="translate(-330.01 524.24) rotate(-89.5)"/><rect class="cls-1" x="91.5" y="388.14" width="15.81" height="41.82" transform="translate(-310.49 504.89) rotate(-89.5)"/><rect class="cls-1" x="91.5" y="368.61" width="15.81" height="41.82" transform="matrix(0.01, -1, 1, 0.01, -290.97, 485.54)"/><rect class="cls-1" x="91.5" y="446.7" width="15.81" height="41.82" transform="translate(-369.05 562.95) rotate(-89.5)"/><rect class="cls-1" x="91.5" y="700.49" width="15.81" height="41.82" transform="translate(-622.83 814.53) rotate(-89.5)"/><rect class="cls-1" x="91.5" y="680.97" width="15.81" height="41.82" transform="translate(-603.31 795.17) rotate(-89.5)"/><rect class="cls-1" x="91.5" y="661.44" width="15.81" height="41.82" transform="translate(-583.79 775.82) rotate(-89.5)"/><rect class="cls-1" x="91.5" y="641.92" width="15.81" height="41.82" transform="translate(-564.26 756.47) rotate(-89.5)"/><rect class="cls-1" x="91.5" y="622.4" width="15.81" height="41.82" transform="translate(-544.74 737.12) rotate(-89.5)"/></g></g></svg>