<svg xmlns="http://www.w3.org/2000/svg" viewBox="0 0 709.92 502.87"><defs><style>.cls-1{fill:#999;}.cls-2{fill:#424242;}.cls-3{fill:#757575;}</style></defs><title>leftPlace</title><g id="Слой_2" data-name="Слой 2"><g id="Слой_1-2" data-name="Слой 1"><rect class="cls-1" x="40.12" y="200.3" width="260" height="101" transform="translate(340.23 501.6) rotate(180)"/><polygon class="cls-2" points="260.12 250.3 300.12 200.3 300.12 301.3 260.12 351.3 260.12 250.3"/><path class="cls-1" d="M709.92,351.12l-98.12-50.2,98.12-50.19-334.28-.43c.74,33.64,1.59,67.47,2.82,101Z"/><rect class="cls-1" x="260.12" y="250.3" width="139.11" height="101" transform="translate(659.34 601.6) rotate(180)"/><polygon class="cls-3" points="260.12 200.3 235.12 301.3 260.12 300.84 260.12 251.3 300.12 200.3 260.12 200.3"/><rect class="cls-1" x="54.74" y="168.43" width="15.59" height="41.38" transform="translate(-127.12 250.01) rotate(-89.5)"/><rect class="cls-1" x="54.74" y="149.27" width="15.59" height="41.38" transform="translate(-107.96 231.02) rotate(-89.5)"/><rect class="cls-1" x="54.74" y="130.11" width="15.59" height="41.38" transform="translate(-88.8 212.02) rotate(-89.5)"/><rect class="cls-1" x="54.74" y="109.35" width="15.59" height="41.38" transform="translate(-68.04 191.44) rotate(-89.5)"/><rect class="cls-1" x="54.74" y="90.19" width="15.59" height="41.38" transform="translate(-48.88 172.45) rotate(-89.5)"/><rect class="cls-1" x="54.74" y="71.03" width="15.59" height="41.38" transform="translate(-29.72 153.45) rotate(-89.5)"/><path class="cls-1" d="M41.83,69.05V79.11H83.56V53a10.73,10.73,0,0,0-4.23-8.52L46.06,19.21a10.67,10.67,0,0,1-4.23-8.52h0A10.7,10.7,0,0,0,31.14,0H0V32.3L37.56,60.5A10.68,10.68,0,0,1,41.83,69.05Z"/><rect class="cls-1" x="41.84" y="305.95" width="41.38" height="15.59" transform="translate(-2.72 0.56) rotate(-0.5)"/><rect class="cls-1" x="41.84" y="325.11" width="41.38" height="15.59" transform="translate(-2.89 0.56) rotate(-0.5)"/><rect class="cls-1" x="41.84" y="344.28" width="41.38" height="15.59" transform="translate(-3.06 0.56) rotate(-0.5)"/><rect class="cls-1" x="41.84" y="365.03" width="41.38" height="15.59" transform="translate(-3.24 0.56) rotate(-0.5)"/><rect class="cls-1" x="41.84" y="384.2" width="41.38" height="15.59" transform="translate(-3.4 0.56) rotate(-0.5)"/><rect class="cls-1" x="41.84" y="403.36" width="41.38" height="15.59" transform="translate(-3.57 0.56) rotate(-0.5)"/><path class="cls-1" d="M41.83,433.82V423.76H83.56v26.1a10.73,10.73,0,0,1-4.23,8.52L46.06,483.66a10.67,10.67,0,0,0-4.23,8.52h0a10.7,10.7,0,0,1-10.69,10.69H0v-32.3l37.56-28.19A10.7,10.7,0,0,0,41.83,433.82Z"/></g></g></svg>