<svg xmlns="http://www.w3.org/2000/svg" viewBox="0 0 1097.37 1440.44"><defs><style>.cls-1{fill:#333;}</style></defs><title>lins</title><g id="Слой_2" data-name="Слой 2"><g id="Слой_1-2" data-name="Слой 1"><rect class="cls-1" x="1055.03" y="86.85" width="41.38" height="15.59" transform="translate(-0.78 9.35) rotate(-0.5)"/><rect class="cls-1" x="1055.03" y="106.4" width="41.38" height="15.59" transform="translate(-0.95 9.35) rotate(-0.5)"/><rect class="cls-1" x="880.08" y="0.07" width="15.59" height="41.38" transform="translate(-0.15 7.72) rotate(-0.5)"/><rect class="cls-1" x="899.59" y="0.07" width="15.59" height="41.38" transform="translate(-0.15 7.89) rotate(-0.5)"/><rect class="cls-1" x="919.1" y="0.07" width="15.59" height="41.38" transform="translate(-0.15 8.06) rotate(-0.5)"/><rect class="cls-1" x="938.61" y="0.07" width="15.59" height="41.38" transform="translate(-0.14 8.22) rotate(-0.5)"/><rect class="cls-1" x="958.12" y="0.07" width="15.59" height="41.38" transform="translate(-0.14 8.39) rotate(-0.5)"/><rect class="cls-1" x="977.64" y="0.07" width="15.59" height="41.38" transform="translate(-0.14 8.56) rotate(-0.5)"/><path class="cls-1" d="M1009.55,42.18H996.88V.46h32.86a14.91,14.91,0,0,1,10.72,4.22L1072.29,38A14.91,14.91,0,0,0,1083,42.18h0c7.44,0,13.47,4.79,13.47,10.7V84h-40.67l-35.5-37.55A14.87,14.87,0,0,0,1009.55,42.18Z"/><rect class="cls-1" x="763.01" y="0.07" width="15.59" height="41.38" transform="translate(-0.15 6.7) rotate(-0.5)"/><rect class="cls-1" x="782.52" y="0.07" width="15.59" height="41.38" transform="translate(-0.15 6.87) rotate(-0.5)"/><rect class="cls-1" x="802.03" y="0.07" width="15.59" height="41.38" transform="translate(-0.15 7.04) rotate(-0.5)"/><rect class="cls-1" x="821.54" y="0.07" width="15.59" height="41.38" transform="translate(-0.15 7.21) rotate(-0.5)"/><rect class="cls-1" x="841.05" y="0.07" width="15.59" height="41.38" transform="translate(-0.15 7.38) rotate(-0.5)"/><rect class="cls-1" x="860.57" y="0.07" width="15.59" height="41.38" transform="translate(-0.15 7.55) rotate(-0.5)"/><rect class="cls-1" x="645.93" y="0.07" width="15.59" height="41.38" transform="translate(-0.16 5.68) rotate(-0.5)"/><rect class="cls-1" x="665.45" y="0.07" width="15.59" height="41.38" transform="translate(-0.15 5.85) rotate(-0.5)"/><rect class="cls-1" x="684.96" y="0.07" width="15.59" height="41.38" transform="translate(-0.15 6.02) rotate(-0.5)"/><rect class="cls-1" x="704.47" y="0.07" width="15.59" height="41.38" transform="translate(-0.15 6.19) rotate(-0.5)"/><rect class="cls-1" x="723.98" y="0.07" width="15.59" height="41.38" transform="translate(-0.15 6.36) rotate(-0.5)"/><rect class="cls-1" x="743.49" y="0.07" width="15.59" height="41.38" transform="translate(-0.15 6.53) rotate(-0.5)"/><rect class="cls-1" x="606.91" y="0.07" width="15.59" height="41.38" transform="translate(-0.16 5.34) rotate(-0.5)"/><rect class="cls-1" x="626.42" y="0.07" width="15.59" height="41.38" transform="translate(-0.16 5.51) rotate(-0.5)"/><rect class="cls-1" x="1055.03" y="184.59" width="41.38" height="15.59" transform="translate(-1.63 9.36) rotate(-0.5)"/><rect class="cls-1" x="1055.03" y="165.05" width="41.38" height="15.59" transform="translate(-1.46 9.35) rotate(-0.5)"/><rect class="cls-1" x="1055.03" y="145.5" width="41.38" height="15.59" transform="translate(-1.29 9.35) rotate(-0.5)"/><rect class="cls-1" x="1055.03" y="125.95" width="41.38" height="15.59" transform="translate(-1.12 9.35) rotate(-0.5)"/><rect class="cls-1" x="1055.03" y="301.89" width="41.38" height="15.59" transform="translate(-2.65 9.36) rotate(-0.5)"/><rect class="cls-1" x="1055.03" y="282.34" width="41.38" height="15.59" transform="translate(-2.48 9.36) rotate(-0.5)"/><rect class="cls-1" x="1055.03" y="262.79" width="41.38" height="15.59" transform="translate(-2.31 9.36) rotate(-0.5)"/><rect class="cls-1" x="1055.03" y="243.24" width="41.38" height="15.59" transform="translate(-2.14 9.36) rotate(-0.5)"/><rect class="cls-1" x="1055.03" y="223.69" width="41.38" height="15.59" transform="translate(-1.97 9.36) rotate(-0.5)"/><rect class="cls-1" x="1055.03" y="204.14" width="41.38" height="15.59" transform="translate(-1.8 9.36) rotate(-0.5)"/><rect class="cls-1" x="1055.03" y="419.19" width="41.38" height="15.59" transform="translate(-3.67 9.36) rotate(-0.5)"/><rect class="cls-1" x="1055.03" y="399.64" width="41.38" height="15.59" transform="translate(-3.5 9.36) rotate(-0.5)"/><rect class="cls-1" x="1055.03" y="380.09" width="41.38" height="15.59" transform="translate(-3.33 9.36) rotate(-0.5)"/><rect class="cls-1" x="1055.03" y="360.54" width="41.38" height="15.59" transform="translate(-3.16 9.36) rotate(-0.5)"/><rect class="cls-1" x="1055.03" y="340.99" width="41.38" height="15.59" transform="translate(-2.99 9.36) rotate(-0.5)"/><rect class="cls-1" x="1055.03" y="321.44" width="41.38" height="15.59" transform="translate(-2.82 9.36) rotate(-0.5)"/><rect class="cls-1" x="1055.03" y="536.48" width="41.38" height="15.59" transform="translate(-4.69 9.37) rotate(-0.5)"/><rect class="cls-1" x="1055.03" y="516.93" width="41.38" height="15.59" transform="translate(-4.52 9.37) rotate(-0.5)"/><rect class="cls-1" x="1055.03" y="497.38" width="41.38" height="15.59" transform="translate(-4.35 9.37) rotate(-0.5)"/><rect class="cls-1" x="1055.03" y="477.83" width="41.38" height="15.59" transform="translate(-4.18 9.37) rotate(-0.5)"/><rect class="cls-1" x="1055.03" y="458.28" width="41.38" height="15.59" transform="translate(-4.01 9.37) rotate(-0.5)"/><rect class="cls-1" x="1055.03" y="438.74" width="41.38" height="15.59" transform="translate(-3.84 9.37) rotate(-0.5)"/><rect class="cls-1" x="1055.03" y="653.78" width="41.38" height="15.59" transform="translate(-5.71 9.37) rotate(-0.5)"/><rect class="cls-1" x="1055.03" y="634.23" width="41.38" height="15.59" transform="translate(-5.54 9.37) rotate(-0.5)"/><rect class="cls-1" x="1055.03" y="614.68" width="41.38" height="15.59" transform="translate(-5.37 9.37) rotate(-0.5)"/><rect class="cls-1" x="1055.03" y="595.13" width="41.38" height="15.59" transform="translate(-5.2 9.37) rotate(-0.5)"/><rect class="cls-1" x="1055.03" y="575.58" width="41.38" height="15.59" transform="translate(-5.03 9.37) rotate(-0.5)"/><rect class="cls-1" x="1055.03" y="556.03" width="41.38" height="15.59" transform="translate(-4.86 9.37) rotate(-0.5)"/><rect class="cls-1" x="1055.03" y="771.07" width="41.38" height="15.59" transform="translate(-6.73 9.38) rotate(-0.5)"/><rect class="cls-1" x="1055.03" y="751.52" width="41.38" height="15.59" transform="translate(-6.56 9.38) rotate(-0.5)"/><rect class="cls-1" x="1055.03" y="731.98" width="41.38" height="15.59" transform="translate(-6.39 9.38) rotate(-0.5)"/><rect class="cls-1" x="1055.03" y="712.43" width="41.38" height="15.59" transform="translate(-6.22 9.38) rotate(-0.5)"/><rect class="cls-1" x="1055.03" y="692.88" width="41.38" height="15.59" transform="translate(-6.05 9.37) rotate(-0.5)"/><rect class="cls-1" x="1055.03" y="673.33" width="41.38" height="15.59" transform="translate(-5.88 9.37) rotate(-0.5)"/><rect class="cls-1" x="977.43" y="323.27" width="15.59" height="41.38" transform="translate(-2.95 8.57) rotate(-0.5)"/><path class="cls-1" d="M990.37,343.86l.38,20.79h13c8.49,0,16.53,2,21.82,5.29l6.08,3.83c3.93,2.48,6.08,5.56,6.08,8.74v9.06c0,3.33,5.37,6,12,6h0V343.83Z"/><path class="cls-1" d="M990.37,344.07l.38-20.79h13c8.49,0,16.53-1.95,21.82-5.29l6.08-3.83c3.93-2.48,6.08-5.56,6.08-8.74v-9.06c0-3.33,5.37-6,12-6h0V344.1Z"/><rect class="cls-1" x="978.54" y="701.86" width="15.59" height="41.38" transform="translate(-6.24 8.6) rotate(-0.5)"/><path class="cls-1" d="M991.48,722.44l.38,20.8h13c8.5,0,16.54,2,21.83,5.29l6.08,3.83c3.93,2.48,6.07,5.56,6.07,8.73v9.07c0,3.33,5.37,6,12,6h0V722.42Z"/><path class="cls-1" d="M991.48,722.66l.38-20.79h13c8.5,0,16.54-2,21.83-5.29l6.08-3.83c3.93-2.48,6.07-5.56,6.07-8.74V675c0-3.33,5.37-6,12-6h0v53.77Z"/><rect class="cls-1" x="1055.03" y="868.82" width="41.38" height="15.59" transform="translate(-7.58 9.38) rotate(-0.5)"/><rect class="cls-1" x="1055.03" y="849.27" width="41.38" height="15.59" transform="translate(-7.41 9.38) rotate(-0.5)"/><rect class="cls-1" x="1055.03" y="829.72" width="41.38" height="15.59" transform="translate(-7.24 9.38) rotate(-0.5)"/><rect class="cls-1" x="1055.03" y="810.17" width="41.38" height="15.59" transform="translate(-7.07 9.38) rotate(-0.5)"/><rect class="cls-1" x="1055.03" y="790.62" width="41.38" height="15.59" transform="translate(-6.9 9.38) rotate(-0.5)"/><rect class="cls-1" x="1055.03" y="986.12" width="41.38" height="15.59" transform="translate(-8.6 9.39) rotate(-0.5)"/><rect class="cls-1" x="1055.03" y="966.57" width="41.38" height="15.59" transform="translate(-8.43 9.39) rotate(-0.5)"/><rect class="cls-1" x="1055.03" y="947.02" width="41.38" height="15.59" transform="translate(-8.26 9.38) rotate(-0.5)"/><rect class="cls-1" x="1055.03" y="927.47" width="41.38" height="15.59" transform="translate(-8.09 9.38) rotate(-0.5)"/><rect class="cls-1" x="1055.03" y="907.92" width="41.38" height="15.59" transform="translate(-7.92 9.38) rotate(-0.5)"/><rect class="cls-1" x="1055.03" y="888.37" width="41.38" height="15.59" transform="translate(-7.75 9.38) rotate(-0.5)"/><rect class="cls-1" x="1055.03" y="1103.41" width="41.38" height="15.59" transform="translate(-9.62 9.39) rotate(-0.5)"/><rect class="cls-1" x="1055.03" y="1083.86" width="41.38" height="15.59" transform="translate(-9.45 9.39) rotate(-0.5)"/><rect class="cls-1" x="1055.03" y="1064.31" width="41.38" height="15.59" transform="translate(-9.28 9.39) rotate(-0.5)"/><rect class="cls-1" x="1055.03" y="1044.76" width="41.38" height="15.59" transform="translate(-9.11 9.39) rotate(-0.5)"/><rect class="cls-1" x="1055.03" y="1025.21" width="41.38" height="15.59" transform="translate(-8.94 9.39) rotate(-0.5)"/><rect class="cls-1" x="1055.03" y="1005.67" width="41.38" height="15.59" transform="translate(-8.77 9.39) rotate(-0.5)"/><rect class="cls-1" x="1055.03" y="1142.51" width="41.38" height="15.59" transform="translate(-9.96 9.39) rotate(-0.5)"/><rect class="cls-1" x="1055.03" y="1122.96" width="41.38" height="15.59" transform="translate(-9.79 9.39) rotate(-0.5)"/><rect class="cls-1" x="977.5" y="1080.45" width="15.59" height="41.38" transform="translate(-9.53 8.6) rotate(-0.5)"/><path class="cls-1" d="M990.44,1101l.38,20.8h13c8.5,0,16.54,1.94,21.83,5.28l6.07,3.84c3.94,2.48,6.08,5.56,6.08,8.73v9.07c0,3.33,5.37,6,12,6h0V1101Z"/><path class="cls-1" d="M990.44,1101.25l.38-20.79h13c8.5,0,16.54-2,21.83-5.29l6.07-3.83c3.94-2.49,6.08-5.57,6.08-8.74v-9.06c0-3.33,5.37-6,12-6h0v53.77Z"/><rect class="cls-1" x="958.12" y="322.94" width="15.59" height="41.38" transform="translate(-2.95 8.41) rotate(-0.5)"/><rect class="cls-1" x="841.05" y="322.94" width="15.59" height="41.38" transform="translate(-2.95 7.39) rotate(-0.5)"/><rect class="cls-1" x="860.57" y="322.94" width="15.59" height="41.38" transform="translate(-2.95 7.56) rotate(-0.5)"/><rect class="cls-1" x="880.08" y="322.94" width="15.59" height="41.38" transform="translate(-2.95 7.73) rotate(-0.5)"/><rect class="cls-1" x="899.59" y="322.94" width="15.59" height="41.38" transform="translate(-2.95 7.9) rotate(-0.5)"/><rect class="cls-1" x="919.1" y="322.94" width="15.59" height="41.38" transform="translate(-2.95 8.07) rotate(-0.5)"/><rect class="cls-1" x="938.61" y="322.94" width="15.59" height="41.38" transform="translate(-2.95 8.24) rotate(-0.5)"/><rect class="cls-1" x="723.98" y="322.94" width="15.59" height="41.38" transform="translate(-2.96 6.37) rotate(-0.5)"/><rect class="cls-1" x="743.49" y="322.94" width="15.59" height="41.38" transform="translate(-2.96 6.54) rotate(-0.5)"/><rect class="cls-1" x="763.01" y="322.94" width="15.59" height="41.38" transform="translate(-2.96 6.71) rotate(-0.5)"/><rect class="cls-1" x="782.52" y="322.94" width="15.59" height="41.38" transform="translate(-2.96 6.88) rotate(-0.5)"/><rect class="cls-1" x="802.03" y="322.94" width="15.59" height="41.38" transform="translate(-2.96 7.05) rotate(-0.5)"/><rect class="cls-1" x="821.54" y="322.94" width="15.59" height="41.38" transform="translate(-2.95 7.22) rotate(-0.5)"/><rect class="cls-1" x="684.96" y="322.94" width="15.59" height="41.38" transform="translate(-2.96 6.03) rotate(-0.5)"/><rect class="cls-1" x="704.47" y="322.94" width="15.59" height="41.38" transform="translate(-2.96 6.2) rotate(-0.5)"/><rect class="cls-1" x="959.12" y="702" width="15.59" height="41.38" transform="translate(-6.24 8.43) rotate(-0.5)"/><rect class="cls-1" x="842.05" y="702" width="15.59" height="41.38" transform="translate(-6.25 7.41) rotate(-0.5)"/><rect class="cls-1" x="861.57" y="702" width="15.59" height="41.38" transform="translate(-6.25 7.58) rotate(-0.5)"/><rect class="cls-1" x="881.08" y="702" width="15.59" height="41.38" transform="translate(-6.25 7.75) rotate(-0.5)"/><rect class="cls-1" x="900.59" y="702" width="15.59" height="41.38" transform="translate(-6.25 7.92) rotate(-0.5)"/><rect class="cls-1" x="920.1" y="702" width="15.59" height="41.38" transform="translate(-6.25 8.09) rotate(-0.5)"/><rect class="cls-1" x="939.61" y="702" width="15.59" height="41.38" transform="translate(-6.24 8.26) rotate(-0.5)"/><rect class="cls-1" x="724.98" y="702" width="15.59" height="41.38" transform="translate(-6.25 6.4) rotate(-0.5)"/><rect class="cls-1" x="744.49" y="702" width="15.59" height="41.38" transform="translate(-6.25 6.56) rotate(-0.5)"/><rect class="cls-1" x="764.01" y="702" width="15.59" height="41.38" transform="translate(-6.25 6.73) rotate(-0.5)"/><rect class="cls-1" x="783.52" y="702" width="15.59" height="41.38" transform="translate(-6.25 6.9) rotate(-0.5)"/><rect class="cls-1" x="803.03" y="702" width="15.59" height="41.38" transform="translate(-6.25 7.07) rotate(-0.5)"/><rect class="cls-1" x="822.54" y="702" width="15.59" height="41.38" transform="translate(-6.25 7.24) rotate(-0.5)"/><rect class="cls-1" x="685.96" y="702" width="15.59" height="41.38" transform="translate(-6.25 6.06) rotate(-0.5)"/><rect class="cls-1" x="705.47" y="702" width="15.59" height="41.38" transform="translate(-6.25 6.23) rotate(-0.5)"/><rect class="cls-1" x="958.12" y="1080.59" width="15.59" height="41.38" transform="translate(-9.53 8.44) rotate(-0.5)"/><rect class="cls-1" x="841.05" y="1080.59" width="15.59" height="41.38" transform="translate(-9.54 7.42) rotate(-0.5)"/><rect class="cls-1" x="860.57" y="1080.59" width="15.59" height="41.38" transform="translate(-9.54 7.59) rotate(-0.5)"/><rect class="cls-1" x="880.08" y="1080.59" width="15.59" height="41.38" transform="translate(-9.54 7.76) rotate(-0.5)"/><rect class="cls-1" x="899.59" y="1080.59" width="15.59" height="41.38" transform="translate(-9.54 7.93) rotate(-0.5)"/><rect class="cls-1" x="919.1" y="1080.59" width="15.59" height="41.38" transform="translate(-9.53 8.1) rotate(-0.5)"/><rect class="cls-1" x="938.61" y="1080.59" width="15.59" height="41.38" transform="translate(-9.53 8.27) rotate(-0.5)"/><rect class="cls-1" x="723.98" y="1080.59" width="15.59" height="41.38" transform="translate(-9.54 6.4) rotate(-0.5)"/><rect class="cls-1" x="743.49" y="1080.59" width="15.59" height="41.38" transform="translate(-9.54 6.57) rotate(-0.5)"/><rect class="cls-1" x="763.01" y="1080.59" width="15.59" height="41.38" transform="translate(-9.54 6.74) rotate(-0.5)"/><rect class="cls-1" x="782.52" y="1080.59" width="15.59" height="41.38" transform="translate(-9.54 6.91) rotate(-0.5)"/><rect class="cls-1" x="802.03" y="1080.59" width="15.59" height="41.38" transform="translate(-9.54 7.08) rotate(-0.5)"/><rect class="cls-1" x="821.54" y="1080.59" width="15.59" height="41.38" transform="translate(-9.54 7.25) rotate(-0.5)"/><rect class="cls-1" x="684.96" y="1080.59" width="15.59" height="41.38" transform="translate(-9.54 6.06) rotate(-0.5)"/><rect class="cls-1" x="704.47" y="1080.59" width="15.59" height="41.38" transform="translate(-9.54 6.23) rotate(-0.5)"/><rect class="cls-1" x="528.32" y="0.07" width="15.59" height="41.38" transform="translate(-0.16 4.66) rotate(-0.5)"/><rect class="cls-1" x="547.83" y="0.07" width="15.59" height="41.38" transform="translate(-0.16 4.83) rotate(-0.5)"/><rect class="cls-1" x="567.34" y="0.07" width="15.59" height="41.38" transform="translate(-0.16 5) rotate(-0.5)"/><rect class="cls-1" x="586.85" y="0.07" width="15.59" height="41.38" transform="translate(-0.16 5.17) rotate(-0.5)"/><rect class="cls-1" x="489.29" y="0.07" width="15.59" height="41.38" transform="translate(-0.16 4.32) rotate(-0.5)"/><rect class="cls-1" x="508.81" y="0.07" width="15.59" height="41.38" transform="translate(-0.16 4.49) rotate(-0.5)"/><rect class="cls-1" x="1068.81" y="1325.11" width="15.59" height="41.38" transform="translate(-278.5 2410.67) rotate(-89.5)"/><rect class="cls-1" x="1068.81" y="1305.56" width="15.59" height="41.38" transform="translate(-258.95 2391.29) rotate(-89.5)"/><rect class="cls-1" x="867.8" y="1411.89" width="41.38" height="15.59" transform="matrix(0.01, -1, 1, 0.01, -538.86, 2295.8)"/><rect class="cls-1" x="887.36" y="1411.89" width="41.38" height="15.59" transform="translate(-519.47 2315.37) rotate(-89.5)"/><rect class="cls-1" x="906.93" y="1411.89" width="41.38" height="15.59" transform="translate(-500.07 2334.93) rotate(-89.5)"/><rect class="cls-1" x="926.5" y="1411.89" width="41.38" height="15.59" transform="translate(-480.67 2354.5) rotate(-89.5)"/><rect class="cls-1" x="946.06" y="1411.89" width="41.38" height="15.59" transform="translate(-461.28 2374.07) rotate(-89.5)"/><rect class="cls-1" x="965.63" y="1411.89" width="41.38" height="15.59" transform="matrix(0.01, -1, 1, 0.01, -441.88, 2393.63)"/><path class="cls-1" d="M1010.44,1398.26H997.77V1440h32.86a14.91,14.91,0,0,0,10.72-4.22l31.83-33.28a14.91,14.91,0,0,1,10.72-4.22h0c7.44,0,13.47-4.79,13.47-10.7v-31.13h-40.66L1021.2,1394A14.87,14.87,0,0,1,1010.44,1398.26Z"/><rect class="cls-1" x="750.4" y="1411.89" width="41.38" height="15.59" transform="translate(-655.24 2178.41) rotate(-89.5)"/><rect class="cls-1" x="769.96" y="1411.89" width="41.38" height="15.59" transform="translate(-635.85 2197.97) rotate(-89.5)"/><rect class="cls-1" x="789.53" y="1411.89" width="41.38" height="15.59" transform="translate(-616.45 2217.54) rotate(-89.5)"/><rect class="cls-1" x="809.1" y="1411.89" width="41.38" height="15.59" transform="translate(-597.05 2237.1) rotate(-89.5)"/><rect class="cls-1" x="828.66" y="1411.89" width="41.38" height="15.59" transform="translate(-577.66 2256.67) rotate(-89.5)"/><rect class="cls-1" x="848.23" y="1411.89" width="41.38" height="15.59" transform="matrix(0.01, -1, 1, 0.01, -558.26, 2276.24)"/><rect class="cls-1" x="633" y="1411.89" width="41.38" height="15.59" transform="translate(-771.62 2061.01) rotate(-89.5)"/><rect class="cls-1" x="652.56" y="1411.89" width="41.38" height="15.59" transform="translate(-752.23 2080.58) rotate(-89.5)"/><rect class="cls-1" x="672.13" y="1411.89" width="41.38" height="15.59" transform="translate(-732.83 2100.14) rotate(-89.5)"/><rect class="cls-1" x="691.7" y="1411.89" width="41.38" height="15.59" transform="translate(-713.43 2119.71) rotate(-89.5)"/><rect class="cls-1" x="711.26" y="1411.89" width="41.38" height="15.59" transform="translate(-694.04 2139.27) rotate(-89.5)"/><rect class="cls-1" x="730.83" y="1411.89" width="41.38" height="15.59" transform="matrix(0.01, -1, 1, 0.01, -674.64, 2158.84)"/><rect class="cls-1" x="593.86" y="1411.89" width="41.38" height="15.59" transform="translate(-810.42 2021.88) rotate(-89.5)"/><rect class="cls-1" x="613.43" y="1411.89" width="41.38" height="15.59" transform="matrix(0.01, -1, 1, 0.01, -791.02, 2041.44)"/><rect class="cls-1" x="1068.81" y="1227.36" width="15.59" height="41.38" transform="translate(-180.75 2313.77) rotate(-89.5)"/><rect class="cls-1" x="1068.81" y="1246.91" width="15.59" height="41.38" transform="translate(-200.3 2333.15) rotate(-89.5)"/><rect class="cls-1" x="1068.81" y="1266.46" width="15.59" height="41.38" transform="translate(-219.85 2352.53) rotate(-89.5)"/><rect class="cls-1" x="1068.81" y="1286.01" width="15.59" height="41.38" transform="translate(-239.4 2371.91) rotate(-89.5)"/><rect class="cls-1" x="1068.81" y="1149.16" width="15.59" height="41.38" transform="translate(-102.56 2236.26) rotate(-89.5)"/><rect class="cls-1" x="1068.81" y="1168.71" width="15.59" height="41.38" transform="translate(-122.11 2255.64) rotate(-89.5)"/><rect class="cls-1" x="1068.81" y="1188.26" width="15.59" height="41.38" transform="translate(-141.66 2275.02) rotate(-89.5)"/><rect class="cls-1" x="1068.81" y="1207.81" width="15.59" height="41.38" transform="translate(-161.2 2294.39) rotate(-89.5)"/><rect class="cls-1" x="515.6" y="1411.89" width="41.38" height="15.59" transform="translate(-888 1943.61) rotate(-89.5)"/><rect class="cls-1" x="535.16" y="1411.89" width="41.38" height="15.59" transform="translate(-868.61 1963.18) rotate(-89.5)"/><rect class="cls-1" x="554.73" y="1411.89" width="41.38" height="15.59" transform="translate(-849.21 1982.75) rotate(-89.5)"/><rect class="cls-1" x="574.3" y="1411.89" width="41.38" height="15.59" transform="translate(-829.81 2002.31) rotate(-89.5)"/><rect class="cls-1" x="476.46" y="1411.89" width="41.38" height="15.59" transform="translate(-926.8 1904.48) rotate(-89.5)"/><rect class="cls-1" x="496.03" y="1411.89" width="41.38" height="15.59" transform="matrix(0.01, -1, 1, 0.01, -907.4, 1924.05)"/><rect class="cls-1" x="391.52" y="1398.99" width="15.59" height="41.38" transform="translate(-12.32 3.52) rotate(-0.5)"/><rect class="cls-1" x="411.09" y="1398.99" width="15.59" height="41.38" transform="translate(-12.32 3.69) rotate(-0.5)"/><rect class="cls-1" x="430.66" y="1398.99" width="15.59" height="41.38" transform="translate(-12.32 3.86) rotate(-0.5)"/><rect class="cls-1" x="450.22" y="1398.99" width="15.59" height="41.38" transform="translate(-12.32 4.03) rotate(-0.5)"/><rect class="cls-1" x="469.79" y="1398.99" width="15.59" height="41.38" transform="translate(-12.32 4.2) rotate(-0.5)"/><rect class="cls-1" x="274.12" y="1398.99" width="15.59" height="41.38" transform="translate(-12.33 2.5) rotate(-0.5)"/><rect class="cls-1" x="293.69" y="1398.99" width="15.59" height="41.38" transform="translate(-12.33 2.67) rotate(-0.5)"/><rect class="cls-1" x="313.26" y="1398.99" width="15.59" height="41.38" transform="translate(-12.32 2.84) rotate(-0.5)"/><rect class="cls-1" x="332.82" y="1398.99" width="15.59" height="41.38" transform="translate(-12.32 3.01) rotate(-0.5)"/><rect class="cls-1" x="352.39" y="1398.99" width="15.59" height="41.38" transform="translate(-12.32 3.18) rotate(-0.5)"/><rect class="cls-1" x="371.96" y="1398.99" width="15.59" height="41.38" transform="translate(-12.32 3.35) rotate(-0.5)"/><rect class="cls-1" x="156.72" y="1398.99" width="15.59" height="41.38" transform="translate(-12.33 1.48) rotate(-0.5)"/><rect class="cls-1" x="176.29" y="1398.99" width="15.59" height="41.38" transform="translate(-12.33 1.65) rotate(-0.5)"/><rect class="cls-1" x="195.86" y="1398.99" width="15.59" height="41.38" transform="translate(-12.33 1.82) rotate(-0.5)"/><rect class="cls-1" x="215.42" y="1398.99" width="15.59" height="41.38" transform="translate(-12.33 1.99) rotate(-0.5)"/><rect class="cls-1" x="234.99" y="1398.99" width="15.59" height="41.38" transform="translate(-12.33 2.16) rotate(-0.5)"/><rect class="cls-1" x="254.56" y="1398.99" width="15.59" height="41.38" transform="translate(-12.33 2.33) rotate(-0.5)"/><rect class="cls-1" x="117.59" y="1398.99" width="15.59" height="41.38" transform="translate(-12.33 1.14) rotate(-0.5)"/><rect class="cls-1" x="137.16" y="1398.99" width="15.59" height="41.38" transform="translate(-12.33 1.31) rotate(-0.5)"/><rect class="cls-1" x="39.32" y="1398.99" width="15.59" height="41.38" transform="translate(-12.34 0.46) rotate(-0.5)"/><rect class="cls-1" x="58.89" y="1398.99" width="15.59" height="41.38" transform="translate(-12.33 0.63) rotate(-0.5)"/><rect class="cls-1" x="78.46" y="1398.99" width="15.59" height="41.38" transform="translate(-12.33 0.8) rotate(-0.5)"/><rect class="cls-1" x="98.02" y="1398.99" width="15.59" height="41.38" transform="translate(-12.33 0.97) rotate(-0.5)"/><rect class="cls-1" x="0.19" y="1398.99" width="15.59" height="41.38" transform="translate(-12.34 0.12) rotate(-0.5)"/><rect class="cls-1" x="19.76" y="1398.99" width="15.59" height="41.38" transform="translate(-12.34 0.29) rotate(-0.5)"/></g></g></svg>