<svg xmlns="http://www.w3.org/2000/svg" viewBox="0 0 1306.07 1178.65"><defs><style>.cls-1{fill:#999;}.cls-2{fill:#424242;}.cls-3{fill:#757575;}.cls-4{fill:#333;}.cls-5{fill:#f63;}</style></defs><title>logoDialog_2</title><g id="Слой_2" data-name="Слой 2"><g id="Слой_1-2" data-name="Слой 1"><rect class="cls-1" x="381.79" y="304.64" width="260" height="101" transform="translate(1132.57 406.8) rotate(150)"/><polygon class="cls-2" points="589.48 309.7 599.12 246.4 649.62 333.87 639.98 397.17 589.48 309.7"/><rect class="cls-1" x="605.41" y="268.16" width="139.11" height="101" transform="translate(1418.83 257.14) rotate(150)"/><polygon class="cls-3" points="564.48 266.4 593.33 366.37 614.75 353.47 589.98 310.57 599.12 246.4 564.48 266.4"/><path class="cls-1" d="M959.18,212.67l-110.07,5.59L909,125.73,619.28,292.49c17.46,28.77,35.11,57.64,52.94,86.07Z"/><path class="cls-1" d="M237.68,955.86l50.2-98.12,50.19,98.12.43-334.27c-33.64.73-67.47,1.58-101,2.81Z"/><circle class="cls-4" cx="288" cy="419.74" r="288"/><circle class="cls-1" cx="288" cy="419.74" r="254.06"/><path class="cls-5" d="M360.82,284.11a12.61,12.61,0,0,1,4.8,12.4c-1.6,7.6,0,16.4,0,24.4-.4,16.81-7.2,33.21-4,50,3.6,19.61,20.8,23.21,30,40.41,2.4,4.4-.8,9.61-5.6,10.41-3.6.4-6.8,2-7.6,5.6-.8,2.4.8,13.2.8,15.6,0,9.2-26.41,14.8-34.41,19.21,6.4,1.2,23.61,6.4,28.41,12.4a2.78,2.78,0,0,1-1.6,4.4c-6.8,2.4-11.2,10.4-12.4,18-1.2,8.8.4,17.61-1.6,26-4.41,18.4-30.41,12-47.22,2.8L312,574.17l-119.23-20V543.36s3.2-40-10.8-66c-7.61-14.4-13.21-28-20.81-42.41-10-20-14.4-41.61-15.6-63.62C140.37,270.1,258,205.69,360.82,284.11Z"/><rect class="cls-5" x="396.42" y="457.74" width="81.62" height="12.4"/><polygon class="cls-5" points="401.63 442.54 451.24 420.94 446.04 409.73 396.82 431.34 401.63 442.54"/><polygon class="cls-5" points="401.63 484.95 451.24 506.56 446.04 518.16 396.82 496.55 401.63 484.95"/><rect class="cls-4" x="565.01" y="721.4" width="41.38" height="15.59" transform="translate(-148.55 1308.54) rotate(-89.5)"/><rect class="cls-4" x="545.85" y="721.4" width="41.38" height="15.59" transform="translate(-167.54 1289.38) rotate(-89.5)"/><rect class="cls-4" x="526.69" y="721.4" width="41.38" height="15.59" transform="translate(-186.54 1270.22) rotate(-89.5)"/><rect class="cls-4" x="507.53" y="721.4" width="41.38" height="15.59" transform="translate(-205.53 1251.05) rotate(-89.5)"/><rect class="cls-4" x="488.37" y="721.4" width="41.38" height="15.59" transform="translate(-224.53 1231.89) rotate(-89.5)"/><rect class="cls-4" x="467.61" y="721.4" width="41.38" height="15.59" transform="translate(-245.11 1211.14) rotate(-89.5)"/><rect class="cls-4" x="448.45" y="721.4" width="41.38" height="15.59" transform="translate(-264.1 1191.98) rotate(-89.5)"/><rect class="cls-4" x="429.29" y="721.4" width="41.38" height="15.59" transform="translate(-283.1 1172.81) rotate(-89.5)"/><rect class="cls-4" x="410.12" y="721.4" width="41.38" height="15.59" transform="translate(-302.09 1153.65) rotate(-89.5)"/><rect class="cls-4" x="390.96" y="721.4" width="41.38" height="15.59" transform="translate(-321.09 1134.49) rotate(-89.5)"/><rect class="cls-4" x="370.21" y="721.4" width="41.38" height="15.59" transform="translate(-341.66 1113.74) rotate(-89.5)"/><rect class="cls-4" x="351.04" y="721.4" width="41.38" height="15.59" transform="translate(-360.66 1094.58) rotate(-89.5)"/><rect class="cls-4" x="331.88" y="721.4" width="41.38" height="15.59" transform="translate(-379.65 1075.41) rotate(-89.5)"/><rect class="cls-4" x="622.5" y="721.4" width="41.38" height="15.59" transform="translate(-91.56 1366.02) rotate(-89.5)"/><rect class="cls-4" x="603.34" y="721.4" width="41.38" height="15.59" transform="translate(-110.56 1346.86) rotate(-89.5)"/><rect class="cls-4" x="584.17" y="721.4" width="41.38" height="15.59" transform="translate(-129.55 1327.7) rotate(-89.5)"/><rect class="cls-4" x="408.53" y="766.13" width="41.38" height="15.59" transform="translate(-348.41 1196.41) rotate(-89.5)"/><rect class="cls-4" x="389.37" y="766.13" width="41.38" height="15.59" transform="translate(-367.41 1177.25) rotate(-89.5)"/><rect class="cls-4" x="370.21" y="766.13" width="41.38" height="15.59" transform="translate(-386.4 1158.09) rotate(-89.5)"/><rect class="cls-4" x="351.04" y="766.13" width="41.38" height="15.59" transform="translate(-405.4 1138.93) rotate(-89.5)"/><rect class="cls-4" x="331.88" y="766.13" width="41.38" height="15.59" transform="translate(-424.39 1119.76) rotate(-89.5)"/><rect class="cls-4" x="466.01" y="766.13" width="41.38" height="15.59" transform="translate(-291.43 1253.89) rotate(-89.5)"/><rect class="cls-4" x="446.85" y="766.13" width="41.38" height="15.59" transform="translate(-310.42 1234.73) rotate(-89.5)"/><rect class="cls-4" x="427.69" y="766.13" width="41.38" height="15.59" transform="translate(-329.42 1215.57) rotate(-89.5)"/><rect class="cls-4" x="331.88" y="810.87" width="41.38" height="15.59" transform="translate(-469.13 1164.11) rotate(-89.5)"/><rect class="cls-4" x="389.37" y="810.87" width="41.38" height="15.59" transform="translate(-412.14 1221.6) rotate(-89.5)"/><rect class="cls-4" x="370.21" y="810.87" width="41.38" height="15.59" transform="translate(-431.14 1202.44) rotate(-89.5)"/><rect class="cls-4" x="351.04" y="810.87" width="41.38" height="15.59" transform="translate(-450.13 1183.28) rotate(-89.5)"/><rect class="cls-4" x="351.04" y="855.61" width="41.38" height="15.59" transform="translate(-494.87 1227.63) rotate(-89.5)"/><rect class="cls-4" x="331.88" y="855.61" width="41.38" height="15.59" transform="translate(-513.87 1208.47) rotate(-89.5)"/><rect class="cls-4" x="267.31" y="978.07" width="41.38" height="15.59" transform="translate(-8.56 2.54) rotate(-0.5)"/><rect class="cls-4" x="267.31" y="958.91" width="41.38" height="15.59" transform="translate(-8.39 2.54) rotate(-0.5)"/><rect class="cls-4" x="267.85" y="1076.67" width="41.38" height="15.59" transform="matrix(1, -0.01, 0.01, 1, -9.41, 2.55)"/><rect class="cls-4" x="267.85" y="1057.51" width="41.38" height="15.59" transform="translate(-9.25 2.55) rotate(-0.5)"/><rect class="cls-4" x="267.85" y="1038.35" width="41.38" height="15.59" transform="translate(-9.08 2.55) rotate(-0.5)"/><rect class="cls-4" x="267.85" y="1017.59" width="41.38" height="15.59" transform="translate(-8.9 2.55) rotate(-0.5)"/><rect class="cls-4" x="267.85" y="998.43" width="41.38" height="15.59" transform="translate(-8.73 2.55) rotate(-0.5)"/><rect class="cls-4" x="468.44" y="1136.94" width="15.59" height="41.38" transform="translate(-10.04 4.18) rotate(-0.5)"/><rect class="cls-4" x="449.28" y="1136.94" width="15.59" height="41.38" transform="translate(-10.04 4.02) rotate(-0.5)"/><rect class="cls-4" x="430.12" y="1136.94" width="15.59" height="41.38" transform="translate(-10.04 3.85) rotate(-0.5)"/><rect class="cls-4" x="409.36" y="1136.94" width="15.59" height="41.38" transform="translate(-10.04 3.67) rotate(-0.5)"/><rect class="cls-4" x="390.2" y="1136.94" width="15.59" height="41.38" transform="translate(-10.04 3.5) rotate(-0.5)"/><rect class="cls-4" x="371.03" y="1136.94" width="15.59" height="41.38" transform="translate(-10.05 3.34) rotate(-0.5)"/><path class="cls-4" d="M354.72,1136.93h12.67v41.72H334.52a14.93,14.93,0,0,1-10.72-4.22L292,1141.15a14.91,14.91,0,0,0-10.72-4.22h0c-7.44,0-13.46-4.79-13.46-10.7V1095.1h40.66l35.5,37.56A14.87,14.87,0,0,0,354.72,1136.93Z"/><rect class="cls-4" x="585.44" y="1136.94" width="15.59" height="41.38" transform="translate(-10.04 5.2) rotate(-0.5)"/><rect class="cls-4" x="566.28" y="1136.94" width="15.59" height="41.38" transform="translate(-10.04 5.03) rotate(-0.5)"/><rect class="cls-4" x="547.11" y="1136.94" width="15.59" height="41.38" transform="translate(-10.04 4.87) rotate(-0.5)"/><rect class="cls-4" x="526.36" y="1136.94" width="15.59" height="41.38" transform="translate(-10.04 4.69) rotate(-0.5)"/><rect class="cls-4" x="507.19" y="1136.94" width="15.59" height="41.38" transform="translate(-10.04 4.52) rotate(-0.5)"/><rect class="cls-4" x="488.03" y="1136.94" width="15.59" height="41.38" transform="translate(-10.04 4.35) rotate(-0.5)"/><rect class="cls-4" x="703" y="1136.94" width="15.59" height="41.38" transform="translate(-10.03 6.22) rotate(-0.5)"/><rect class="cls-4" x="683.84" y="1136.94" width="15.59" height="41.38" transform="translate(-10.03 6.05) rotate(-0.5)"/><rect class="cls-4" x="664.68" y="1136.94" width="15.59" height="41.38" transform="translate(-10.03 5.89) rotate(-0.5)"/><rect class="cls-4" x="643.92" y="1136.94" width="15.59" height="41.38" transform="translate(-10.04 5.71) rotate(-0.5)"/><rect class="cls-4" x="624.76" y="1136.94" width="15.59" height="41.38" transform="translate(-10.04 5.54) rotate(-0.5)"/><rect class="cls-4" x="605.6" y="1136.94" width="15.59" height="41.38" transform="translate(-10.04 5.37) rotate(-0.5)"/><rect class="cls-4" x="820" y="1136.94" width="15.59" height="41.38" transform="translate(-10.03 7.24) rotate(-0.5)"/><rect class="cls-4" x="800.84" y="1136.94" width="15.59" height="41.38" transform="translate(-10.03 7.07) rotate(-0.5)"/><rect class="cls-4" x="781.68" y="1136.94" width="15.59" height="41.38" transform="translate(-10.03 6.9) rotate(-0.5)"/><rect class="cls-4" x="760.92" y="1136.94" width="15.59" height="41.38" transform="translate(-10.03 6.72) rotate(-0.5)"/><rect class="cls-4" x="741.76" y="1136.94" width="15.59" height="41.38" transform="translate(-10.03 6.56) rotate(-0.5)"/><rect class="cls-4" x="722.6" y="1136.94" width="15.59" height="41.38" transform="translate(-10.03 6.39) rotate(-0.5)"/><rect class="cls-4" x="938.73" y="1136.94" width="15.59" height="41.38" transform="translate(-10.02 8.27) rotate(-0.5)"/><rect class="cls-4" x="919.57" y="1136.94" width="15.59" height="41.38" transform="translate(-10.02 8.1) rotate(-0.5)"/><rect class="cls-4" x="900.41" y="1136.94" width="15.59" height="41.38" transform="translate(-10.03 7.94) rotate(-0.5)"/><rect class="cls-4" x="879.65" y="1136.94" width="15.59" height="41.38" transform="translate(-10.03 7.76) rotate(-0.5)"/><rect class="cls-4" x="860.49" y="1136.94" width="15.59" height="41.38" transform="translate(-10.03 7.59) rotate(-0.5)"/><rect class="cls-4" x="841.33" y="1136.94" width="15.59" height="41.38" transform="translate(-10.03 7.42) rotate(-0.5)"/><rect class="cls-4" x="1055.73" y="1136.94" width="15.59" height="41.38" transform="translate(-10.02 9.29) rotate(-0.5)"/><rect class="cls-4" x="1036.57" y="1136.94" width="15.59" height="41.38" transform="translate(-10.02 9.12) rotate(-0.5)"/><rect class="cls-4" x="1017.41" y="1136.94" width="15.59" height="41.38" transform="translate(-10.02 8.95) rotate(-0.5)"/><rect class="cls-4" x="996.65" y="1136.94" width="15.59" height="41.38" transform="translate(-10.02 8.77) rotate(-0.5)"/><rect class="cls-4" x="977.49" y="1136.94" width="15.59" height="41.38" transform="translate(-10.02 8.61) rotate(-0.5)"/><rect class="cls-4" x="958.33" y="1136.94" width="15.59" height="41.38" transform="translate(-10.02 8.44) rotate(-0.5)"/><rect class="cls-4" x="1173.3" y="1136.94" width="15.59" height="41.38" transform="translate(-10.02 10.31) rotate(-0.5)"/><rect class="cls-4" x="1154.13" y="1136.94" width="15.59" height="41.38" transform="translate(-10.02 10.14) rotate(-0.5)"/><rect class="cls-4" x="1134.97" y="1136.94" width="15.59" height="41.38" transform="translate(-10.02 9.97) rotate(-0.5)"/><rect class="cls-4" x="1114.21" y="1136.94" width="15.59" height="41.38" transform="translate(-10.02 9.79) rotate(-0.5)"/><rect class="cls-4" x="1095.05" y="1136.94" width="15.59" height="41.38" transform="translate(-10.02 9.63) rotate(-0.5)"/><rect class="cls-4" x="1075.89" y="1136.94" width="15.59" height="41.38" transform="translate(-10.02 9.46) rotate(-0.5)"/><rect class="cls-4" x="1290.29" y="1136.94" width="15.59" height="41.38" transform="translate(-10.01 11.32) rotate(-0.5)"/><rect class="cls-4" x="1271.13" y="1136.94" width="15.59" height="41.38" transform="translate(-10.01 11.16) rotate(-0.5)"/><rect class="cls-4" x="1251.97" y="1136.94" width="15.59" height="41.38" transform="translate(-10.01 10.99) rotate(-0.5)"/><rect class="cls-4" x="1231.21" y="1136.94" width="15.59" height="41.38" transform="translate(-10.01 10.81) rotate(-0.5)"/><rect class="cls-4" x="1212.05" y="1136.94" width="15.59" height="41.38" transform="translate(-10.01 10.64) rotate(-0.5)"/><rect class="cls-4" x="1192.89" y="1136.94" width="15.59" height="41.38" transform="translate(-10.01 10.48) rotate(-0.5)"/><rect class="cls-4" x="279.87" y="73.49" width="15.59" height="41.38" transform="translate(190.99 381.02) rotate(-89.5)"/><rect class="cls-4" x="279.87" y="92.66" width="15.59" height="41.38" transform="translate(171.83 400.02) rotate(-89.5)"/><rect class="cls-4" x="454.67" y="13.22" width="41.38" height="15.59" transform="translate(450.21 496.18) rotate(-89.5)"/><rect class="cls-4" x="435.5" y="13.22" width="41.38" height="15.59" transform="translate(431.21 477.02) rotate(-89.5)"/><rect class="cls-4" x="416.34" y="13.22" width="41.38" height="15.59" transform="translate(412.22 457.86) rotate(-89.5)"/><rect class="cls-4" x="395.59" y="13.22" width="41.38" height="15.59" transform="translate(391.64 437.1) rotate(-89.5)"/><rect class="cls-4" x="376.42" y="13.22" width="41.38" height="15.59" transform="translate(372.65 417.94) rotate(-89.5)"/><rect class="cls-4" x="357.26" y="13.22" width="41.38" height="15.59" transform="translate(353.65 398.78) rotate(-89.5)"/><path class="cls-4" d="M353.84,41.72h12.67V0H333.65a14.89,14.89,0,0,0-10.72,4.22L291.09,37.5a14.89,14.89,0,0,1-10.72,4.22h0c-7.43,0-13.46,4.79-13.46,10.7V83.56h40.66L343.07,46A14.9,14.9,0,0,1,353.84,41.72Z"/><rect class="cls-4" x="571.67" y="13.22" width="41.38" height="15.59" transform="translate(566.19 613.17) rotate(-89.5)"/><rect class="cls-4" x="552.5" y="13.22" width="41.38" height="15.59" transform="translate(547.2 594.01) rotate(-89.5)"/><rect class="cls-4" x="533.34" y="13.22" width="41.38" height="15.59" transform="translate(528.2 574.85) rotate(-89.5)"/><rect class="cls-4" x="512.58" y="13.22" width="41.38" height="15.59" transform="translate(507.62 554.09) rotate(-89.5)"/><rect class="cls-4" x="493.42" y="13.22" width="41.38" height="15.59" transform="translate(488.63 534.93) rotate(-89.5)"/><rect class="cls-4" x="474.26" y="13.22" width="41.38" height="15.59" transform="translate(469.63 515.77) rotate(-89.5)"/><rect class="cls-4" x="689.23" y="13.22" width="41.38" height="15.59" transform="translate(682.73 730.73) rotate(-89.5)"/><rect class="cls-4" x="670.07" y="13.22" width="41.38" height="15.59" transform="translate(663.74 711.57) rotate(-89.5)"/><rect class="cls-4" x="650.91" y="13.22" width="41.38" height="15.59" transform="translate(644.74 692.41) rotate(-89.5)"/><rect class="cls-4" x="630.15" y="13.22" width="41.38" height="15.59" transform="translate(624.17 671.65) rotate(-89.5)"/><rect class="cls-4" x="610.99" y="13.22" width="41.38" height="15.59" transform="translate(605.17 652.49) rotate(-89.5)"/><rect class="cls-4" x="591.83" y="13.22" width="41.38" height="15.59" transform="translate(586.18 633.33) rotate(-89.5)"/><rect class="cls-4" x="727.99" y="13.22" width="41.38" height="15.59" transform="translate(721.15 769.49) rotate(-89.5)"/><rect class="cls-4" x="708.83" y="13.22" width="41.38" height="15.59" transform="translate(702.16 750.33) rotate(-89.5)"/></g></g></svg>