<svg xmlns="http://www.w3.org/2000/svg" viewBox="0 0 1431.21 1233.34"><defs><style>.cls-1{fill:#333;}.cls-2{fill:#999;}.cls-3{fill:#424242;}.cls-4{fill:#757575;}.cls-5{fill:#f63;}</style></defs><title>logoDialog</title><g id="Слой_2" data-name="Слой 2"><g id="Слой_1-2" data-name="Слой 1"><polygon class="cls-1" points="202.43 307.44 186.84 307.34 187.22 275.1 202.81 275.21 202.43 307.44"/><polygon class="cls-1" points="183.27 307.44 167.68 307.34 168.06 275.1 183.65 275.21 183.27 307.44"/><polygon class="cls-1" points="164.11 307.44 148.52 307.34 148.9 275.1 164.49 275.21 164.11 307.44"/><polygon class="cls-1" points="144.95 307.44 129.36 307.34 129.73 275.1 145.32 275.21 144.95 307.44"/><polygon class="cls-1" points="124.19 307.44 108.6 307.34 108.98 275.1 124.57 275.21 124.19 307.44"/><polygon class="cls-1" points="105.03 307.44 89.44 307.34 89.81 275.1 105.41 275.21 105.03 307.44"/><rect class="cls-1" x="0.33" y="456.43" width="41.38" height="15.59" transform="translate(-4.03 0.2) rotate(-0.5)"/><rect class="cls-1" x="0.33" y="437.27" width="41.38" height="15.59" transform="translate(-3.87 0.2) rotate(-0.5)"/><rect class="cls-1" x="0.33" y="418.11" width="41.38" height="15.59" transform="translate(-3.7 0.2) rotate(-0.5)"/><rect class="cls-1" x="0.33" y="397.35" width="41.38" height="15.59" transform="translate(-3.52 0.2) rotate(-0.5)"/><rect class="cls-1" x="0.33" y="378.19" width="41.38" height="15.59" transform="translate(-3.35 0.2) rotate(-0.5)"/><rect class="cls-1" x="0.33" y="359.02" width="41.38" height="15.59" transform="translate(-3.19 0.2) rotate(-0.5)"/><path class="cls-1" d="M41.72,344.15v10.06H0v-26.1a10.69,10.69,0,0,1,4.22-8.51L37.5,294.31a10.69,10.69,0,0,0,4.22-8.51h0a10.7,10.7,0,0,1,10.7-10.7H83.56v32.3L46,335.6A10.7,10.7,0,0,0,41.72,344.15Z"/><polygon class="cls-1" points="202.65 641.39 187.06 641.5 187.44 673.73 203.03 673.63 202.65 641.39"/><polygon class="cls-1" points="183.49 641.39 167.9 641.5 168.28 673.73 183.87 673.63 183.49 641.39"/><polygon class="cls-1" points="164.33 641.39 148.74 641.5 149.12 673.73 164.71 673.63 164.33 641.39"/><polygon class="cls-1" points="145.17 641.39 129.58 641.5 129.96 673.73 145.55 673.63 145.17 641.39"/><polygon class="cls-1" points="124.41 641.39 108.82 641.5 109.2 673.73 124.79 673.63 124.41 641.39"/><polygon class="cls-1" points="105.25 641.39 89.66 641.5 90.04 673.73 105.63 673.63 105.25 641.39"/><rect class="cls-1" x="13.45" y="463.92" width="15.59" height="41.38" transform="translate(-463.54 501.64) rotate(-89.5)"/><rect class="cls-1" x="13.45" y="483.08" width="15.59" height="41.38" transform="translate(-482.7 520.64) rotate(-89.5)"/><rect class="cls-1" x="13.45" y="502.24" width="15.59" height="41.38" transform="translate(-501.86 539.63) rotate(-89.5)"/><rect class="cls-1" x="13.45" y="523" width="15.59" height="41.38" transform="translate(-522.61 560.21) rotate(-89.5)"/><rect class="cls-1" x="13.45" y="542.16" width="15.59" height="41.38" transform="translate(-541.78 579.2) rotate(-89.5)"/><rect class="cls-1" x="13.45" y="561.32" width="15.59" height="41.38" transform="translate(-560.94 598.2) rotate(-89.5)"/><path class="cls-1" d="M42,604.69V594.62H.22v26.1a10.67,10.67,0,0,0,4.23,8.52l33.27,25.28A10.73,10.73,0,0,1,42,663h0a10.69,10.69,0,0,0,10.69,10.69H83.78V641.44l-37.56-28.2A10.69,10.69,0,0,1,42,604.69Z"/><rect class="cls-2" x="506.92" y="359.32" width="260" height="101" transform="translate(1393.41 446.27) rotate(150)"/><polygon class="cls-3" points="714.61 364.38 724.25 301.08 774.75 388.55 765.11 451.85 714.61 364.38"/><rect class="cls-2" x="730.54" y="322.84" width="139.11" height="101" transform="translate(1679.67 296.62) rotate(150)"/><polygon class="cls-4" points="689.61 321.08 718.46 421.05 739.88 408.15 715.11 365.25 724.25 301.08 689.61 321.08"/><path class="cls-2" d="M1084.31,267.35l-110.07,5.59,59.88-92.53L744.42,347.18c17.45,28.76,35.1,57.63,52.93,86.06Z"/><path class="cls-2" d="M362.81,1010.54,413,912.43l50.19,98.11.43-334.27c-33.64.74-67.47,1.58-101,2.81Z"/><circle class="cls-1" cx="413.13" cy="474.42" r="288"/><circle class="cls-2" cx="413.13" cy="474.42" r="254.06"/><path class="cls-5" d="M486,338.79a12.61,12.61,0,0,1,4.8,12.4c-1.6,7.6,0,16.4,0,24.41-.4,16.8-7.2,33.2-4,50,3.6,19.6,20.8,23.2,30,40.41,2.41,4.4-.8,9.6-5.6,10.4-3.6.4-6.8,2-7.6,5.6-.8,2.4.8,13.2.8,15.6,0,9.2-26.4,14.81-34.41,19.21,6.41,1.2,23.61,6.4,28.41,12.4a2.78,2.78,0,0,1-1.6,4.4c-6.8,2.4-11.2,10.4-12.4,18-1.2,8.81.4,17.61-1.6,26-4.4,18.4-30.41,12-47.21,2.8l1.6,48.41-119.23-20v-10.8s3.2-40-10.8-66c-7.6-14.4-13.21-28-20.81-42.41-10-20-14.4-41.61-15.6-63.61C265.5,324.78,383.12,260.37,486,338.79Z"/><rect class="cls-5" x="521.56" y="512.43" width="81.62" height="12.4"/><polygon class="cls-5" points="526.76 497.22 576.37 475.62 571.17 464.42 521.96 486.02 526.76 497.22"/><polygon class="cls-5" points="526.76 539.63 576.37 561.24 571.17 572.84 521.96 551.24 526.76 539.63"/><rect class="cls-1" x="690.14" y="776.08" width="41.38" height="15.59" transform="translate(-79.18 1487.87) rotate(-89.5)"/><rect class="cls-1" x="670.98" y="776.08" width="41.38" height="15.59" transform="translate(-98.18 1468.71) rotate(-89.5)"/><rect class="cls-1" x="651.82" y="776.08" width="41.38" height="15.59" transform="translate(-117.17 1449.55) rotate(-89.5)"/><rect class="cls-1" x="632.66" y="776.08" width="41.38" height="15.59" transform="translate(-136.17 1430.39) rotate(-89.5)"/><rect class="cls-1" x="613.5" y="776.08" width="41.38" height="15.59" transform="translate(-155.16 1411.23) rotate(-89.5)"/><rect class="cls-1" x="592.74" y="776.08" width="41.38" height="15.59" transform="translate(-175.74 1390.47) rotate(-89.5)"/><rect class="cls-1" x="573.58" y="776.08" width="41.38" height="15.59" transform="translate(-194.74 1371.31) rotate(-89.5)"/><rect class="cls-1" x="554.42" y="776.08" width="41.38" height="15.59" transform="translate(-213.73 1352.15) rotate(-89.5)"/><rect class="cls-1" x="535.26" y="776.08" width="41.38" height="15.59" transform="translate(-232.73 1332.99) rotate(-89.5)"/><rect class="cls-1" x="516.09" y="776.08" width="41.38" height="15.59" transform="translate(-251.72 1313.83) rotate(-89.5)"/><rect class="cls-1" x="495.34" y="776.08" width="41.38" height="15.59" transform="translate(-272.3 1293.07) rotate(-89.5)"/><rect class="cls-1" x="476.18" y="776.08" width="41.38" height="15.59" transform="translate(-291.29 1273.91) rotate(-89.5)"/><rect class="cls-1" x="457.01" y="776.08" width="41.38" height="15.59" transform="translate(-310.29 1254.75) rotate(-89.5)"/><rect class="cls-1" x="747.63" y="776.08" width="41.38" height="15.59" transform="translate(-22.2 1545.35) rotate(-89.5)"/><rect class="cls-1" x="728.47" y="776.08" width="41.38" height="15.59" transform="translate(-41.19 1526.19) rotate(-89.5)"/><rect class="cls-1" x="709.31" y="776.08" width="41.38" height="15.59" transform="translate(-60.19 1507.03) rotate(-89.5)"/><rect class="cls-1" x="533.66" y="820.82" width="41.38" height="15.59" transform="translate(-279.05 1375.74) rotate(-89.5)"/><rect class="cls-1" x="514.5" y="820.82" width="41.38" height="15.59" transform="translate(-298.04 1356.58) rotate(-89.5)"/><rect class="cls-1" x="495.34" y="820.82" width="41.38" height="15.59" transform="translate(-317.04 1337.42) rotate(-89.5)"/><rect class="cls-1" x="476.18" y="820.82" width="41.38" height="15.59" transform="translate(-336.03 1318.26) rotate(-89.5)"/><rect class="cls-1" x="457.01" y="820.82" width="41.38" height="15.59" transform="translate(-355.03 1299.1) rotate(-89.5)"/><rect class="cls-1" x="591.14" y="820.82" width="41.38" height="15.59" transform="translate(-222.06 1433.22) rotate(-89.5)"/><rect class="cls-1" x="571.98" y="820.82" width="41.38" height="15.59" transform="translate(-241.06 1414.06) rotate(-89.5)"/><rect class="cls-1" x="552.82" y="820.82" width="41.38" height="15.59" transform="translate(-260.05 1394.9) rotate(-89.5)"/><rect class="cls-1" x="457.01" y="865.56" width="41.38" height="15.59" transform="translate(-399.76 1343.45) rotate(-89.5)"/><rect class="cls-1" x="514.5" y="865.56" width="41.38" height="15.59" transform="translate(-342.78 1400.93) rotate(-89.5)"/><rect class="cls-1" x="495.34" y="865.56" width="41.38" height="15.59" transform="translate(-361.77 1381.77) rotate(-89.5)"/><rect class="cls-1" x="476.18" y="865.56" width="41.38" height="15.59" transform="translate(-380.77 1362.61) rotate(-89.5)"/><rect class="cls-1" x="476.18" y="910.29" width="41.38" height="15.59" transform="translate(-425.51 1406.96) rotate(-89.5)"/><rect class="cls-1" x="457.01" y="910.29" width="41.38" height="15.59" transform="translate(-444.5 1387.8) rotate(-89.5)"/><rect class="cls-1" x="392.44" y="1032.75" width="41.38" height="15.59" transform="translate(-9.03 3.63) rotate(-0.5)"/><rect class="cls-1" x="392.44" y="1013.59" width="41.38" height="15.59" transform="translate(-8.86 3.63) rotate(-0.5)"/><rect class="cls-1" x="392.98" y="1131.36" width="41.38" height="15.59" transform="matrix(1, -0.01, 0.01, 1, -9.88, 3.64)"/><rect class="cls-1" x="392.98" y="1112.19" width="41.38" height="15.59" transform="translate(-9.72 3.64) rotate(-0.5)"/><rect class="cls-1" x="392.98" y="1093.03" width="41.38" height="15.59" transform="translate(-9.55 3.64) rotate(-0.5)"/><rect class="cls-1" x="392.98" y="1072.27" width="41.38" height="15.59" transform="translate(-9.37 3.64) rotate(-0.5)"/><rect class="cls-1" x="392.98" y="1053.11" width="41.38" height="15.59" transform="translate(-9.2 3.63) rotate(-0.5)"/><rect class="cls-1" x="593.57" y="1191.63" width="15.59" height="41.38" transform="translate(-10.51 5.27) rotate(-0.5)"/><rect class="cls-1" x="574.41" y="1191.63" width="15.59" height="41.38" transform="translate(-10.51 5.11) rotate(-0.5)"/><rect class="cls-1" x="555.25" y="1191.63" width="15.59" height="41.38" transform="translate(-10.51 4.94) rotate(-0.5)"/><rect class="cls-1" x="534.49" y="1191.63" width="15.59" height="41.38" transform="translate(-10.51 4.76) rotate(-0.5)"/><rect class="cls-1" x="515.33" y="1191.63" width="15.59" height="41.38" transform="translate(-10.52 4.59) rotate(-0.5)"/><rect class="cls-1" x="496.17" y="1191.63" width="15.59" height="41.38" transform="translate(-10.52 4.43) rotate(-0.5)"/><path class="cls-1" d="M479.85,1191.61h12.67v41.73H459.66a14.94,14.94,0,0,1-10.73-4.23l-31.83-33.27a14.86,14.86,0,0,0-10.72-4.23h0c-7.43,0-13.46-4.79-13.46-10.69v-31.14h40.66l35.5,37.56A14.87,14.87,0,0,0,479.85,1191.61Z"/><rect class="cls-1" x="710.57" y="1191.63" width="15.59" height="41.38" transform="translate(-10.51 6.29) rotate(-0.5)"/><rect class="cls-1" x="691.41" y="1191.63" width="15.59" height="41.38" transform="translate(-10.51 6.12) rotate(-0.5)"/><rect class="cls-1" x="672.25" y="1191.63" width="15.59" height="41.38" transform="translate(-10.51 5.96) rotate(-0.5)"/><rect class="cls-1" x="651.49" y="1191.63" width="15.59" height="41.38" transform="translate(-10.51 5.77) rotate(-0.5)"/><rect class="cls-1" x="632.33" y="1191.63" width="15.59" height="41.38" transform="translate(-10.51 5.61) rotate(-0.5)"/><rect class="cls-1" x="613.16" y="1191.63" width="15.59" height="41.38" transform="translate(-10.51 5.44) rotate(-0.5)"/><rect class="cls-1" x="828.13" y="1191.63" width="15.59" height="41.38" transform="translate(-10.5 7.31) rotate(-0.5)"/><rect class="cls-1" x="808.97" y="1191.63" width="15.59" height="41.38" transform="translate(-10.5 7.14) rotate(-0.5)"/><rect class="cls-1" x="789.81" y="1191.63" width="15.59" height="41.38" transform="translate(-10.5 6.98) rotate(-0.5)"/><rect class="cls-1" x="769.05" y="1191.63" width="15.59" height="41.38" transform="translate(-10.51 6.8) rotate(-0.5)"/><rect class="cls-1" x="749.89" y="1191.63" width="15.59" height="41.38" transform="translate(-10.51 6.63) rotate(-0.5)"/><rect class="cls-1" x="730.73" y="1191.63" width="15.59" height="41.38" transform="translate(-10.51 6.46) rotate(-0.5)"/><rect class="cls-1" x="945.13" y="1191.63" width="15.59" height="41.38" transform="translate(-10.5 8.33) rotate(-0.5)"/><rect class="cls-1" x="925.97" y="1191.63" width="15.59" height="41.38" transform="translate(-10.5 8.16) rotate(-0.5)"/><rect class="cls-1" x="906.81" y="1191.63" width="15.59" height="41.38" transform="translate(-10.5 7.99) rotate(-0.5)"/><rect class="cls-1" x="886.05" y="1191.63" width="15.59" height="41.38" transform="translate(-10.5 7.81) rotate(-0.5)"/><rect class="cls-1" x="866.89" y="1191.63" width="15.59" height="41.38" transform="translate(-10.5 7.65) rotate(-0.5)"/><rect class="cls-1" x="847.73" y="1191.63" width="15.59" height="41.38" transform="translate(-10.5 7.48) rotate(-0.5)"/><rect class="cls-1" x="1063.86" y="1191.63" width="15.59" height="41.38" transform="translate(-10.49 9.36) rotate(-0.5)"/><rect class="cls-1" x="1044.7" y="1191.63" width="15.59" height="41.38" transform="translate(-10.5 9.19) rotate(-0.5)"/><rect class="cls-1" x="1025.54" y="1191.63" width="15.59" height="41.38" transform="translate(-10.5 9.03) rotate(-0.5)"/><rect class="cls-1" x="1004.78" y="1191.63" width="15.59" height="41.38" transform="translate(-10.5 8.84) rotate(-0.5)"/><rect class="cls-1" x="985.62" y="1191.63" width="15.59" height="41.38" transform="translate(-10.5 8.68) rotate(-0.5)"/><rect class="cls-1" x="966.46" y="1191.63" width="15.59" height="41.38" transform="translate(-10.5 8.51) rotate(-0.5)"/><rect class="cls-1" x="1180.86" y="1191.63" width="15.59" height="41.38" transform="translate(-10.49 10.38) rotate(-0.5)"/><rect class="cls-1" x="1161.7" y="1191.63" width="15.59" height="41.38" transform="translate(-10.49 10.21) rotate(-0.5)"/><rect class="cls-1" x="1142.54" y="1191.63" width="15.59" height="41.38" transform="translate(-10.49 10.04) rotate(-0.5)"/><rect class="cls-1" x="1121.78" y="1191.63" width="15.59" height="41.38" transform="translate(-10.49 9.86) rotate(-0.5)"/><rect class="cls-1" x="1102.62" y="1191.63" width="15.59" height="41.38" transform="translate(-10.49 9.7) rotate(-0.5)"/><rect class="cls-1" x="1083.46" y="1191.63" width="15.59" height="41.38" transform="translate(-10.49 9.53) rotate(-0.5)"/><rect class="cls-1" x="1298.43" y="1191.63" width="15.59" height="41.38" transform="translate(-10.49 11.4) rotate(-0.5)"/><rect class="cls-1" x="1279.27" y="1191.63" width="15.59" height="41.38" transform="translate(-10.49 11.23) rotate(-0.5)"/><rect class="cls-1" x="1260.1" y="1191.63" width="15.59" height="41.38" transform="translate(-10.49 11.06) rotate(-0.5)"/><rect class="cls-1" x="1239.35" y="1191.63" width="15.59" height="41.38" transform="translate(-10.49 10.88) rotate(-0.5)"/><rect class="cls-1" x="1220.18" y="1191.63" width="15.59" height="41.38" transform="translate(-10.49 10.72) rotate(-0.5)"/><rect class="cls-1" x="1201.02" y="1191.63" width="15.59" height="41.38" transform="translate(-10.49 10.55) rotate(-0.5)"/><rect class="cls-1" x="1415.43" y="1191.63" width="15.59" height="41.38" transform="translate(-10.48 12.41) rotate(-0.5)"/><rect class="cls-1" x="1396.27" y="1191.63" width="15.59" height="41.38" transform="translate(-10.48 12.25) rotate(-0.5)"/><rect class="cls-1" x="1377.1" y="1191.63" width="15.59" height="41.38" transform="translate(-10.48 12.08) rotate(-0.5)"/><rect class="cls-1" x="1356.35" y="1191.63" width="15.59" height="41.38" transform="translate(-10.48 11.9) rotate(-0.5)"/><rect class="cls-1" x="1337.18" y="1191.63" width="15.59" height="41.38" transform="translate(-10.48 11.73) rotate(-0.5)"/><rect class="cls-1" x="1318.02" y="1191.63" width="15.59" height="41.38" transform="translate(-10.48 11.57) rotate(-0.5)"/><rect class="cls-1" x="405.07" y="73.49" width="15.59" height="41.38" transform="translate(315.09 506.21) rotate(-89.5)"/><rect class="cls-1" x="405.07" y="92.66" width="15.59" height="41.38" transform="translate(295.93 525.21) rotate(-89.5)"/><rect class="cls-1" x="405.07" y="111.82" width="15.59" height="41.38" transform="translate(276.77 544.2) rotate(-89.5)"/><rect class="cls-1" x="405.07" y="132.58" width="15.59" height="41.38" transform="translate(256.01 564.78) rotate(-89.5)"/><rect class="cls-1" x="405.07" y="151.74" width="15.59" height="41.38" transform="translate(236.85 583.78) rotate(-89.5)"/><rect class="cls-1" x="579.86" y="13.22" width="41.38" height="15.59" transform="translate(574.31 621.37) rotate(-89.5)"/><rect class="cls-1" x="560.7" y="13.22" width="41.38" height="15.59" transform="translate(555.32 602.21) rotate(-89.5)"/><rect class="cls-1" x="541.54" y="13.22" width="41.38" height="15.59" transform="translate(536.32 583.04) rotate(-89.5)"/><rect class="cls-1" x="520.78" y="13.22" width="41.38" height="15.59" transform="translate(515.75 562.29) rotate(-89.5)"/><rect class="cls-1" x="501.62" y="13.22" width="41.38" height="15.59" transform="translate(496.75 543.13) rotate(-89.5)"/><rect class="cls-1" x="482.46" y="13.22" width="41.38" height="15.59" transform="translate(477.76 523.97) rotate(-89.5)"/><path class="cls-1" d="M479,41.72H491.7V0H458.84a14.91,14.91,0,0,0-10.72,4.22L416.29,37.5a14.91,14.91,0,0,1-10.72,4.22h0c-7.44,0-13.47,4.79-13.47,10.7V83.56h40.66L468.27,46A14.87,14.87,0,0,1,479,41.72Z"/><rect class="cls-1" x="696.86" y="13.22" width="41.38" height="15.59" transform="translate(690.3 738.36) rotate(-89.5)"/><rect class="cls-1" x="677.7" y="13.22" width="41.38" height="15.59" transform="translate(671.3 719.2) rotate(-89.5)"/><rect class="cls-1" x="658.54" y="13.22" width="41.38" height="15.59" transform="translate(652.31 700.04) rotate(-89.5)"/><rect class="cls-1" x="637.78" y="13.22" width="41.38" height="15.59" transform="translate(631.73 679.28) rotate(-89.5)"/><rect class="cls-1" x="618.62" y="13.22" width="41.38" height="15.59" transform="translate(612.73 660.12) rotate(-89.5)"/><rect class="cls-1" x="599.46" y="13.22" width="41.38" height="15.59" transform="translate(593.74 640.96) rotate(-89.5)"/><rect class="cls-1" x="814.42" y="13.22" width="41.38" height="15.59" transform="translate(806.84 855.92) rotate(-89.5)"/><rect class="cls-1" x="795.26" y="13.22" width="41.38" height="15.59" transform="translate(787.85 836.76) rotate(-89.5)"/><rect class="cls-1" x="776.1" y="13.22" width="41.38" height="15.59" transform="translate(768.85 817.6) rotate(-89.5)"/><rect class="cls-1" x="755.34" y="13.22" width="41.38" height="15.59" transform="translate(748.27 796.84) rotate(-89.5)"/><rect class="cls-1" x="736.18" y="13.22" width="41.38" height="15.59" transform="translate(729.28 777.68) rotate(-89.5)"/><rect class="cls-1" x="717.02" y="13.22" width="41.38" height="15.59" transform="translate(710.28 758.52) rotate(-89.5)"/><rect class="cls-1" x="853.18" y="13.22" width="41.38" height="15.59" transform="translate(845.26 894.68) rotate(-89.5)"/><rect class="cls-1" x="834.02" y="13.22" width="41.38" height="15.59" transform="translate(826.26 875.52) rotate(-89.5)"/></g></g></svg>