<?xml version="1.0" encoding="utf-8"?>
<!-- Generator: Adobe Illustrator 24.0.2, SVG Export Plug-In . SVG Version: 6.00 Build 0)  -->
<svg version="1.1" id="Слой_1" xmlns="http://www.w3.org/2000/svg" xmlns:xlink="http://www.w3.org/1999/xlink" x="0px" y="0px"
	 viewBox="0 0 1306.1 1178.7" style="enable-background:new 0 0 1306.1 1178.7;" xml:space="preserve">
<style type="text/css">
	.st0{fill:#999999;}
	.st1{fill:#424242;}
	.st2{fill:#757575;}
	.st3{fill:#333333;}
	.st4{fill:#FF6633;}
</style>
<title>logoDialog_2</title>
<g>
	<rect x="381.8" y="304.6" transform="matrix(0.866 -0.5 0.5 0.866 -109.0023 303.4674)" class="st0" width="260" height="101"/>
	<polygon class="st1" points="589.5,309.7 599.1,246.4 649.6,333.9 640,397.2 	"/>
	<rect x="605.4" y="268.2" transform="matrix(0.866 -0.5 0.5 0.866 -68.8995 380.1732)" class="st0" width="139.1" height="101"/>
	<polygon class="st2" points="564.5,266.4 593.3,366.4 614.8,353.5 590,310.6 599.1,246.4 	"/>
	<path class="st0" d="M959.2,212.7l-110.1,5.6l59.9-92.5L619.3,292.5c17.5,28.8,35.1,57.6,52.9,86.1L959.2,212.7z"/>
	<path class="st0" d="M237.7,955.9l50.2-98.1l50.2,98.1l0.4-334.3c-33.6,0.7-67.5,1.6-101,2.8L237.7,955.9z"/>
	<circle class="st3" cx="288" cy="419.7" r="288"/>
	<circle class="st0" cx="288" cy="419.7" r="254.1"/>
	<path class="st4" d="M360.8,284.1c3.8,2.9,5.7,7.7,4.8,12.4c-1.6,7.6,0,16.4,0,24.4c-0.4,16.8-7.2,33.2-4,50
		c3.6,19.6,20.8,23.2,30,40.4c2.4,4.4-0.8,9.6-5.6,10.4c-3.6,0.4-6.8,2-7.6,5.6c-0.8,2.4,0.8,13.2,0.8,15.6
		c0,9.2-26.4,14.8-34.4,19.2c6.4,1.2,23.6,6.4,28.4,12.4c0.9,1.2,0.7,3-0.5,3.9c-0.3,0.2-0.7,0.4-1.1,0.5
		c-6.8,2.4-11.2,10.4-12.4,18c-1.2,8.8,0.4,17.6-1.6,26c-4.4,18.4-30.4,12-47.2,2.8l1.6,48.4l-119.2-20v-10.8c0,0,3.2-40-10.8-66
		c-7.6-14.4-13.2-28-20.8-42.4c-10-20-14.4-41.6-15.6-63.6C140.4,270.1,258,205.7,360.8,284.1z"/>
	<rect x="396.4" y="457.7" class="st4" width="81.6" height="12.4"/>
	<polygon class="st4" points="401.6,442.5 451.2,420.9 446,409.7 396.8,431.3 	"/>
	<polygon class="st4" points="401.6,485 451.2,506.6 446,518.2 396.8,496.5 	"/>
	
		<rect x="565" y="721.4" transform="matrix(8.726535e-03 -1 1 8.726535e-03 -148.5809 1308.5681)" class="st3" width="41.4" height="15.6"/>
	
		<rect x="545.9" y="721.4" transform="matrix(8.726535e-03 -1 1 8.726535e-03 -167.5702 1289.411)" class="st3" width="41.4" height="15.6"/>
	
		<rect x="526.7" y="721.4" transform="matrix(8.726535e-03 -1 1 8.726535e-03 -186.5693 1270.2438)" class="st3" width="41.4" height="15.6"/>
	
		<rect x="507.6" y="721.4" transform="matrix(8.726535e-03 -1 1 8.726535e-03 -205.5487 1251.0767)" class="st3" width="41.4" height="15.6"/>
	
		<rect x="488.4" y="721.4" transform="matrix(8.726535e-03 -1 1 8.726535e-03 -224.5479 1231.9094)" class="st3" width="41.4" height="15.6"/>
	
		<rect x="467.6" y="721.4" transform="matrix(8.726535e-03 -1 1 8.726535e-03 -245.1371 1211.1582)" class="st3" width="41.4" height="15.6"/>
	
		<rect x="448.5" y="721.4" transform="matrix(8.726535e-03 -1 1 8.726535e-03 -264.1263 1192.001)" class="st3" width="41.4" height="15.6"/>
	
		<rect x="429.3" y="721.4" transform="matrix(8.726535e-03 -1 1 8.726535e-03 -283.1156 1172.824)" class="st3" width="41.4" height="15.6"/>
	
		<rect x="410.1" y="721.4" transform="matrix(8.726535e-03 -1 1 8.726535e-03 -302.115 1153.6765)" class="st3" width="41.4" height="15.6"/>
	
		<rect x="391" y="721.4" transform="matrix(8.726535e-03 -1 1 8.726535e-03 -321.1142 1134.5093)" class="st3" width="41.4" height="15.6"/>
	
		<rect x="370.2" y="721.4" transform="matrix(8.726535e-03 -1 1 8.726535e-03 -341.6833 1113.7583)" class="st3" width="41.4" height="15.6"/>
	
		<rect x="351.1" y="721.4" transform="matrix(8.726535e-03 -1 1 8.726535e-03 -360.6926 1094.6008)" class="st3" width="41.4" height="15.6"/>
	
		<rect x="331.9" y="721.4" transform="matrix(8.726535e-03 -1 1 8.726535e-03 -379.672 1075.4338)" class="st3" width="41.4" height="15.6"/>
	
		<rect x="622.5" y="721.4" transform="matrix(8.726535e-03 -1 1 8.726535e-03 -91.5831 1366.0499)" class="st3" width="41.4" height="15.6"/>
	
		<rect x="603.4" y="721.4" transform="matrix(8.726535e-03 -1 1 8.726535e-03 -110.5822 1346.8827)" class="st3" width="41.4" height="15.6"/>
	
		<rect x="584.2" y="721.4" transform="matrix(8.726535e-03 -1 1 8.726535e-03 -129.5816 1327.7354)" class="st3" width="41.4" height="15.6"/>
	
		<rect x="408.5" y="766.2" transform="matrix(8.726535e-03 -1 1 8.726535e-03 -348.4452 1196.4209)" class="st3" width="41.4" height="15.6"/>
	
		<rect x="389.4" y="766.2" transform="matrix(8.726535e-03 -1 1 8.726535e-03 -367.4443 1177.2537)" class="st3" width="41.4" height="15.6"/>
	
		<rect x="370.2" y="766.2" transform="matrix(8.726535e-03 -1 1 8.726535e-03 -386.4336 1158.0964)" class="st3" width="41.4" height="15.6"/>
	
		<rect x="351" y="766.2" transform="matrix(8.726535e-03 -1 1 8.726535e-03 -405.443 1138.9391)" class="st3" width="41.4" height="15.6"/>
	
		<rect x="331.9" y="766.2" transform="matrix(8.726535e-03 -1 1 8.726535e-03 -424.4222 1119.772)" class="st3" width="41.4" height="15.6"/>
	
		<rect x="466" y="766.2" transform="matrix(8.726535e-03 -1 1 8.726535e-03 -291.4673 1253.9025)" class="st3" width="41.4" height="15.6"/>
	
		<rect x="446.9" y="766.2" transform="matrix(8.726535e-03 -1 1 8.726535e-03 -310.4566 1234.7452)" class="st3" width="41.4" height="15.6"/>
	
		<rect x="427.7" y="766.2" transform="matrix(8.726535e-03 -1 1 8.726535e-03 -329.4558 1215.578)" class="st3" width="41.4" height="15.6"/>
	
		<rect x="331.9" y="810.9" transform="matrix(8.726535e-03 -1 1 8.726535e-03 -469.1626 1164.1202)" class="st3" width="41.4" height="15.6"/>
	
		<rect x="389.4" y="810.9" transform="matrix(8.726535e-03 -1 1 8.726535e-03 -412.1748 1221.6119)" class="st3" width="41.4" height="15.6"/>
	
		<rect x="370.2" y="810.9" transform="matrix(8.726535e-03 -1 1 8.726535e-03 -431.174 1202.4447)" class="st3" width="41.4" height="15.6"/>
	
		<rect x="351.1" y="810.9" transform="matrix(8.726535e-03 -1 1 8.726535e-03 -450.1734 1183.2974)" class="st3" width="41.4" height="15.6"/>
	
		<rect x="351.1" y="855.7" transform="matrix(8.726535e-03 -1 1 8.726535e-03 -494.9138 1227.6456)" class="st3" width="41.4" height="15.6"/>
	
		<rect x="331.9" y="855.7" transform="matrix(8.726535e-03 -1 1 8.726535e-03 -513.913 1208.4784)" class="st3" width="41.4" height="15.6"/>
	
		<rect x="267.3" y="978.1" transform="matrix(1 -8.726535e-03 8.726535e-03 1 -8.5921 2.5511)" class="st3" width="41.4" height="15.6"/>
	
		<rect x="267.3" y="958.9" transform="matrix(1 -8.726535e-03 8.726535e-03 1 -8.4249 2.5504)" class="st3" width="41.4" height="15.6"/>
	
		<rect x="269.3" y="1076.3" transform="matrix(0.9999 -9.999500e-03 9.999500e-03 0.9999 -10.8263 2.9538)" class="st3" width="41.4" height="15.6"/>
	
		<rect x="267.9" y="1057.5" transform="matrix(1 -8.726535e-03 8.726535e-03 1 -9.2854 2.5588)" class="st3" width="41.4" height="15.6"/>
	
		<rect x="267.9" y="1038.3" transform="matrix(1 -8.726535e-03 8.726535e-03 1 -9.1182 2.5581)" class="st3" width="41.4" height="15.6"/>
	
		<rect x="267.9" y="1017.6" transform="matrix(1 -8.726535e-03 8.726535e-03 1 -8.937 2.5573)" class="st3" width="41.4" height="15.6"/>
	
		<rect x="267.9" y="998.4" transform="matrix(1 -8.726535e-03 8.726535e-03 1 -8.7698 2.5566)" class="st3" width="41.4" height="15.6"/>
	
		<rect x="468.5" y="1136.9" transform="matrix(1 -8.726535e-03 8.726535e-03 1 -10.0838 4.2003)" class="st3" width="15.6" height="41.4"/>
	
		<rect x="449.3" y="1136.9" transform="matrix(1 -8.726535e-03 8.726535e-03 1 -10.0846 4.0331)" class="st3" width="15.6" height="41.4"/>
	
		<rect x="430.2" y="1136.9" transform="matrix(1 -8.726535e-03 8.726535e-03 1 -10.0853 3.866)" class="st3" width="15.6" height="41.4"/>
	
		<rect x="409.4" y="1136.9" transform="matrix(1 -8.726535e-03 8.726535e-03 1 -10.0861 3.6848)" class="st3" width="15.6" height="41.4"/>
	
		<rect x="390.2" y="1136.9" transform="matrix(1 -8.726535e-03 8.726535e-03 1 -10.0868 3.5176)" class="st3" width="15.6" height="41.4"/>
	
		<rect x="371.1" y="1136.9" transform="matrix(1 -8.726535e-03 8.726535e-03 1 -10.0876 3.3502)" class="st3" width="15.6" height="41.4"/>
	<path class="st3" d="M354.7,1136.9h12.7v41.7h-32.9c-4,0.1-7.9-1.4-10.7-4.2l-31.8-33.3c-2.9-2.8-6.7-4.3-10.7-4.2l0,0
		c-7.4,0-13.5-4.8-13.5-10.7v-31.1h40.7l35.5,37.6C346.8,1135.5,350.7,1137,354.7,1136.9z"/>
	
		<rect x="585.5" y="1136.9" transform="matrix(1 -8.726535e-03 8.726535e-03 1 -10.0793 5.2213)" class="st3" width="15.6" height="41.4"/>
	
		<rect x="566.3" y="1136.9" transform="matrix(1 -8.726535e-03 8.726535e-03 1 -10.08 5.0541)" class="st3" width="15.6" height="41.4"/>
	
		<rect x="547.2" y="1136.9" transform="matrix(1 -8.726535e-03 8.726535e-03 1 -10.0808 4.8868)" class="st3" width="15.6" height="41.4"/>
	
		<rect x="526.4" y="1136.9" transform="matrix(1 -8.726535e-03 8.726535e-03 1 -10.0816 4.7058)" class="st3" width="15.6" height="41.4"/>
	
		<rect x="507.2" y="1136.9" transform="matrix(1 -8.726535e-03 8.726535e-03 1 -10.0823 4.5385)" class="st3" width="15.6" height="41.4"/>
	
		<rect x="488.1" y="1136.9" transform="matrix(1 -8.726535e-03 8.726535e-03 1 -10.083 4.3713)" class="st3" width="15.6" height="41.4"/>
	
		<rect x="703" y="1136.9" transform="matrix(1 -8.726535e-03 8.726535e-03 1 -10.0748 6.2472)" class="st3" width="15.6" height="41.4"/>
	
		<rect x="683.9" y="1136.9" transform="matrix(1 -8.726535e-03 8.726535e-03 1 -10.0755 6.0801)" class="st3" width="15.6" height="41.4"/>
	
		<rect x="664.7" y="1136.9" transform="matrix(1 -8.726535e-03 8.726535e-03 1 -10.0763 5.9129)" class="st3" width="15.6" height="41.4"/>
	
		<rect x="644" y="1136.9" transform="matrix(1 -8.726535e-03 8.726535e-03 1 -10.0771 5.7316)" class="st3" width="15.6" height="41.4"/>
	
		<rect x="624.8" y="1136.9" transform="matrix(1 -8.726535e-03 8.726535e-03 1 -10.0778 5.5644)" class="st3" width="15.6" height="41.4"/>
	
		<rect x="605.6" y="1136.9" transform="matrix(1 -8.726535e-03 8.726535e-03 1 -10.0785 5.3972)" class="st3" width="15.6" height="41.4"/>
	
		<rect x="820" y="1136.9" transform="matrix(1 -8.726535e-03 8.726535e-03 1 -10.0703 7.2682)" class="st3" width="15.6" height="41.4"/>
	
		<rect x="800.9" y="1136.9" transform="matrix(1 -8.726535e-03 8.726535e-03 1 -10.071 7.101)" class="st3" width="15.6" height="41.4"/>
	
		<rect x="781.7" y="1136.9" transform="matrix(1 -8.726535e-03 8.726535e-03 1 -10.0717 6.9338)" class="st3" width="15.6" height="41.4"/>
	
		<rect x="761" y="1136.9" transform="matrix(1 -8.726535e-03 8.726535e-03 1 -10.0725 6.7527)" class="st3" width="15.6" height="41.4"/>
	
		<rect x="741.8" y="1136.9" transform="matrix(1 -8.726535e-03 8.726535e-03 1 -10.0733 6.5855)" class="st3" width="15.6" height="41.4"/>
	
		<rect x="722.6" y="1136.9" transform="matrix(1 -8.726535e-03 8.726535e-03 1 -10.074 6.4183)" class="st3" width="15.6" height="41.4"/>
	
		<rect x="938.8" y="1136.9" transform="matrix(1 -8.726535e-03 8.726535e-03 1 -10.0658 8.3044)" class="st3" width="15.6" height="41.4"/>
	
		<rect x="919.6" y="1136.9" transform="matrix(1 -8.726535e-03 8.726535e-03 1 -10.0665 8.1372)" class="st3" width="15.6" height="41.4"/>
	
		<rect x="900.4" y="1136.9" transform="matrix(1 -8.726535e-03 8.726535e-03 1 -10.0673 7.9699)" class="st3" width="15.6" height="41.4"/>
	
		<rect x="879.7" y="1136.9" transform="matrix(1 -8.726535e-03 8.726535e-03 1 -10.0681 7.7887)" class="st3" width="15.6" height="41.4"/>
	
		<rect x="860.5" y="1136.9" transform="matrix(1 -8.726535e-03 8.726535e-03 1 -10.0688 7.6215)" class="st3" width="15.6" height="41.4"/>
	
		<rect x="841.4" y="1136.9" transform="matrix(1 -8.726535e-03 8.726535e-03 1 -10.0695 7.4543)" class="st3" width="15.6" height="41.4"/>
	
		<rect x="1055.8" y="1136.9" transform="matrix(1 -8.726535e-03 8.726535e-03 1 -10.0613 9.3253)" class="st3" width="15.6" height="41.4"/>
	
		<rect x="1036.6" y="1136.9" transform="matrix(1 -8.726535e-03 8.726535e-03 1 -10.062 9.1581)" class="st3" width="15.6" height="41.4"/>
	
		<rect x="1017.5" y="1136.9" transform="matrix(1 -8.726535e-03 8.726535e-03 1 -10.0627 8.9909)" class="st3" width="15.6" height="41.4"/>
	
		<rect x="996.7" y="1136.9" transform="matrix(1 -8.726535e-03 8.726535e-03 1 -10.0635 8.8098)" class="st3" width="15.6" height="41.4"/>
	
		<rect x="977.5" y="1136.9" transform="matrix(1 -8.726535e-03 8.726535e-03 1 -10.0643 8.6426)" class="st3" width="15.6" height="41.4"/>
	
		<rect x="958.4" y="1136.9" transform="matrix(1 -8.726535e-03 8.726535e-03 1 -10.065 8.4754)" class="st3" width="15.6" height="41.4"/>
	
		<rect x="1173.3" y="1136.9" transform="matrix(1 -8.726535e-03 8.726535e-03 1 -10.0568 10.3513)" class="st3" width="15.6" height="41.4"/>
	
		<rect x="1154.2" y="1136.9" transform="matrix(1 -8.726535e-03 8.726535e-03 1 -10.0575 10.184)" class="st3" width="15.6" height="41.4"/>
	
		<rect x="1135" y="1136.9" transform="matrix(1 -8.726535e-03 8.726535e-03 1 -10.0582 10.0168)" class="st3" width="15.6" height="41.4"/>
	
		<rect x="1114.2" y="1136.9" transform="matrix(1 -8.726535e-03 8.726535e-03 1 -10.059 9.8356)" class="st3" width="15.6" height="41.4"/>
	
		<rect x="1095.1" y="1136.9" transform="matrix(1 -8.726535e-03 8.726535e-03 1 -10.0598 9.6684)" class="st3" width="15.6" height="41.4"/>
	
		<rect x="1075.9" y="1136.9" transform="matrix(1 -8.726535e-03 8.726535e-03 1 -10.0605 9.5012)" class="st3" width="15.6" height="41.4"/>
	
		<rect x="1290.3" y="1136.9" transform="matrix(1 -8.726535e-03 8.726535e-03 1 -10.0522 11.3722)" class="st3" width="15.6" height="41.4"/>
	
		<rect x="1271.2" y="1136.9" transform="matrix(1 -8.726535e-03 8.726535e-03 1 -10.053 11.205)" class="st3" width="15.6" height="41.4"/>
	
		<rect x="1252" y="1136.9" transform="matrix(1 -8.726535e-03 8.726535e-03 1 -10.0537 11.0378)" class="st3" width="15.6" height="41.4"/>
	
		<rect x="1231.3" y="1136.9" transform="matrix(1 -8.726535e-03 8.726535e-03 1 -10.0545 10.8567)" class="st3" width="15.6" height="41.4"/>
	
		<rect x="1212.1" y="1136.9" transform="matrix(1 -8.726535e-03 8.726535e-03 1 -10.0552 10.6895)" class="st3" width="15.6" height="41.4"/>
	
		<rect x="1192.9" y="1136.9" transform="matrix(1 -8.726535e-03 8.726535e-03 1 -10.056 10.5223)" class="st3" width="15.6" height="41.4"/>
	
		<rect x="279.9" y="73.5" transform="matrix(8.726535e-03 -1 1 8.726535e-03 190.9821 381.0317)" class="st3" width="15.6" height="41.4"/>
	
		<rect x="279.9" y="92.7" transform="matrix(8.726535e-03 -1 1 8.726535e-03 171.8247 400.041)" class="st3" width="15.6" height="41.4"/>
	
		<rect x="454.7" y="13.2" transform="matrix(8.726535e-03 -1 1 8.726535e-03 450.2034 496.1924)" class="st3" width="41.4" height="15.6"/>
	
		<rect x="435.5" y="13.2" transform="matrix(8.726535e-03 -1 1 8.726535e-03 431.1941 477.035)" class="st3" width="41.4" height="15.6"/>
	
		<rect x="416.4" y="13.2" transform="matrix(8.726535e-03 -1 1 8.726535e-03 412.2048 457.8778)" class="st3" width="41.4" height="15.6"/>
	
		<rect x="395.6" y="13.2" transform="matrix(8.726535e-03 -1 1 8.726535e-03 391.6357 437.1069)" class="st3" width="41.4" height="15.6"/>
	
		<rect x="376.4" y="13.2" transform="matrix(8.726535e-03 -1 1 8.726535e-03 372.6363 417.9595)" class="st3" width="41.4" height="15.6"/>
	
		<rect x="357.3" y="13.2" transform="matrix(8.726535e-03 -1 1 8.726535e-03 353.6371 398.7923)" class="st3" width="41.4" height="15.6"/>
	<path class="st3" d="M353.8,41.7h12.7V0h-32.9c-4-0.1-7.9,1.4-10.7,4.2l-31.8,33.3c-2.9,2.8-6.7,4.3-10.7,4.2l0,0
		c-7.4,0-13.5,4.8-13.5,10.7v31.1h40.7L343.1,46C345.9,43.2,349.8,41.6,353.8,41.7z"/>
	
		<rect x="571.7" y="13.2" transform="matrix(8.726535e-03 -1 1 8.726535e-03 566.189 613.1835)" class="st3" width="41.4" height="15.6"/>
	
		<rect x="552.5" y="13.2" transform="matrix(8.726535e-03 -1 1 8.726535e-03 547.1896 594.0361)" class="st3" width="41.4" height="15.6"/>
	
		<rect x="533.4" y="13.2" transform="matrix(8.726535e-03 -1 1 8.726535e-03 528.1904 574.8688)" class="st3" width="41.4" height="15.6"/>
	
		<rect x="512.6" y="13.2" transform="matrix(8.726535e-03 -1 1 8.726535e-03 507.6111 554.1077)" class="st3" width="41.4" height="15.6"/>
	
		<rect x="493.4" y="13.2" transform="matrix(8.726535e-03 -1 1 8.726535e-03 488.6219 534.9506)" class="st3" width="41.4" height="15.6"/>
	
		<rect x="474.3" y="13.2" transform="matrix(8.726535e-03 -1 1 8.726535e-03 469.6227 515.7833)" class="st3" width="41.4" height="15.6"/>
	
		<rect x="689.2" y="13.2" transform="matrix(8.726535e-03 -1 1 8.726535e-03 682.7244 730.7493)" class="st3" width="41.4" height="15.6"/>
	
		<rect x="670.1" y="13.2" transform="matrix(8.726535e-03 -1 1 8.726535e-03 663.7351 711.5921)" class="st3" width="41.4" height="15.6"/>
	
		<rect x="650.9" y="13.2" transform="matrix(8.726535e-03 -1 1 8.726535e-03 644.7359 692.4249)" class="st3" width="41.4" height="15.6"/>
	
		<rect x="630.2" y="13.2" transform="matrix(8.726535e-03 -1 1 8.726535e-03 624.1666 671.6738)" class="st3" width="41.4" height="15.6"/>
	
		<rect x="611" y="13.2" transform="matrix(8.726535e-03 -1 1 8.726535e-03 605.1674 652.5065)" class="st3" width="41.4" height="15.6"/>
	
		<rect x="591.8" y="13.2" transform="matrix(8.726535e-03 -1 1 8.726535e-03 586.1781 633.3494)" class="st3" width="41.4" height="15.6"/>
	
		<rect x="728" y="13.2" transform="matrix(8.726535e-03 -1 1 8.726535e-03 721.1429 769.5076)" class="st3" width="41.4" height="15.6"/>
	
		<rect x="708.9" y="13.2" transform="matrix(8.726535e-03 -1 1 8.726535e-03 702.1536 750.3503)" class="st3" width="41.4" height="15.6"/>
	
		<image style="overflow:visible;" width="338" height="338" xlink:href="C:\Users\kisler_pc\Downloads\Без имени-1-assets\gaz.png"  transform="matrix(1.542 0 0 1.542 26.3735 159.1388)">
	</image>
	
		<image style="overflow:visible;opacity:0.69;" width="1600" height="1600" xlink:href="C:\Users\kisler_pc\Downloads\megaphone_PNG109.png"  transform="matrix(0.1945 0 0 0.1945 112.1838 286.9056)">
	</image>
</g>
</svg>
