<svg xmlns="http://www.w3.org/2000/svg" viewBox="0 0 1431.21 1178.65"><defs><style>.cls-1{fill:#333;}.cls-2{fill:#999;}.cls-3{fill:#424242;}.cls-4{fill:#757575;}.cls-5{fill:#f63;}</style></defs><title>logoDialog_1</title><g id="Слой_2" data-name="Слой 2"><g id="Слой_1-2" data-name="Слой 1"><polygon class="cls-1" points="202.43 252.76 186.84 252.65 187.22 220.42 202.81 220.53 202.43 252.76"/><polygon class="cls-1" points="183.27 252.76 167.68 252.65 168.06 220.42 183.65 220.53 183.27 252.76"/><polygon class="cls-1" points="164.11 252.76 148.52 252.65 148.9 220.42 164.49 220.53 164.11 252.76"/><polygon class="cls-1" points="144.95 252.76 129.36 252.65 129.73 220.42 145.32 220.53 144.95 252.76"/><polygon class="cls-1" points="124.19 252.76 108.6 252.65 108.98 220.42 124.57 220.53 124.19 252.76"/><polygon class="cls-1" points="105.03 252.76 89.44 252.65 89.81 220.42 105.41 220.53 105.03 252.76"/><rect class="cls-1" x="0.33" y="401.75" width="41.38" height="15.59" transform="translate(-3.56 0.2) rotate(-0.5)"/><rect class="cls-1" x="0.33" y="382.58" width="41.38" height="15.59" transform="translate(-3.39 0.2) rotate(-0.5)"/><rect class="cls-1" x="0.33" y="363.42" width="41.38" height="15.59" transform="translate(-3.23 0.2) rotate(-0.5)"/><rect class="cls-1" x="0.33" y="342.67" width="41.38" height="15.59" transform="translate(-3.04 0.2) rotate(-0.5)"/><rect class="cls-1" x="0.33" y="323.5" width="41.38" height="15.59" transform="translate(-2.88 0.2) rotate(-0.5)"/><rect class="cls-1" x="0.33" y="304.34" width="41.38" height="15.59" transform="translate(-2.71 0.19) rotate(-0.5)"/><path class="cls-1" d="M41.72,289.47v10.06H0v-26.1a10.72,10.72,0,0,1,4.22-8.52L37.5,239.63a10.69,10.69,0,0,0,4.22-8.52h0a10.7,10.7,0,0,1,10.7-10.69H83.56v32.3L46,280.92A10.69,10.69,0,0,0,41.72,289.47Z"/><polygon class="cls-1" points="202.65 586.71 187.06 586.82 187.44 619.05 203.03 618.95 202.65 586.71"/><polygon class="cls-1" points="183.49 586.71 167.9 586.82 168.28 619.05 183.87 618.95 183.49 586.71"/><polygon class="cls-1" points="164.33 586.71 148.74 586.82 149.12 619.05 164.71 618.95 164.33 586.71"/><polygon class="cls-1" points="145.17 586.71 129.58 586.82 129.96 619.05 145.55 618.95 145.17 586.71"/><polygon class="cls-1" points="124.41 586.71 108.82 586.82 109.2 619.05 124.79 618.95 124.41 586.71"/><polygon class="cls-1" points="105.25 586.71 89.66 586.82 90.04 619.05 105.63 618.95 105.25 586.71"/><rect class="cls-1" x="13.45" y="409.24" width="15.59" height="41.38" transform="translate(-408.86 447.43) rotate(-89.5)"/><rect class="cls-1" x="13.45" y="428.4" width="15.59" height="41.38" transform="translate(-428.02 466.43) rotate(-89.5)"/><rect class="cls-1" x="13.45" y="447.56" width="15.59" height="41.38" transform="translate(-447.18 485.42) rotate(-89.5)"/><rect class="cls-1" x="13.45" y="468.32" width="15.59" height="41.38" transform="translate(-467.93 506) rotate(-89.5)"/><rect class="cls-1" x="13.45" y="487.48" width="15.59" height="41.38" transform="translate(-487.1 525) rotate(-89.5)"/><rect class="cls-1" x="13.45" y="506.64" width="15.59" height="41.38" transform="translate(-506.26 543.99) rotate(-89.5)"/><path class="cls-1" d="M42,550V539.94H.22V566a10.7,10.7,0,0,0,4.23,8.52l33.27,25.28A10.7,10.7,0,0,1,42,608.36h0a10.69,10.69,0,0,0,10.69,10.69H83.78v-32.3L46.22,558.56A10.7,10.7,0,0,1,42,550Z"/><rect class="cls-2" x="506.92" y="304.64" width="260" height="101" transform="translate(1366.07 344.23) rotate(150)"/><polygon class="cls-3" points="714.61 309.7 724.25 246.4 774.75 333.87 765.11 397.17 714.61 309.7"/><rect class="cls-2" x="730.54" y="268.16" width="139.11" height="101" transform="translate(1652.33 194.58) rotate(150)"/><polygon class="cls-4" points="689.61 266.4 718.46 366.37 739.88 353.47 715.11 310.57 724.25 246.4 689.61 266.4"/><path class="cls-2" d="M1084.31,212.67l-110.07,5.59,59.88-92.53L744.42,292.49c17.45,28.77,35.1,57.64,52.93,86.07Z"/><path class="cls-2" d="M362.81,955.86,413,857.74l50.19,98.12.43-334.27c-33.64.73-67.47,1.58-101,2.81Z"/><circle class="cls-1" cx="413.13" cy="419.74" r="288"/><circle class="cls-2" cx="413.13" cy="419.74" r="254.06"/><path class="cls-5" d="M486,284.11a12.61,12.61,0,0,1,4.8,12.4c-1.6,7.6,0,16.4,0,24.4-.4,16.81-7.2,33.21-4,50,3.6,19.61,20.8,23.21,30,40.41,2.41,4.4-.8,9.61-5.6,10.41-3.6.4-6.8,2-7.6,5.6-.8,2.4.8,13.2.8,15.6,0,9.2-26.4,14.8-34.41,19.21,6.41,1.2,23.61,6.4,28.41,12.4a2.78,2.78,0,0,1-1.6,4.4c-6.8,2.4-11.2,10.4-12.4,18-1.2,8.8.4,17.61-1.6,26-4.4,18.4-30.41,12-47.21,2.8l1.6,48.41-119.23-20V543.36s3.2-40-10.8-66c-7.6-14.4-13.21-28-20.81-42.41-10-20-14.4-41.61-15.6-63.62C265.5,270.1,383.12,205.69,486,284.11Z"/><rect class="cls-5" x="521.56" y="457.74" width="81.62" height="12.4"/><polygon class="cls-5" points="526.76 442.54 576.37 420.94 571.17 409.73 521.96 431.34 526.76 442.54"/><polygon class="cls-5" points="526.76 484.95 576.37 506.56 571.17 518.16 521.96 496.55 526.76 484.95"/><rect class="cls-1" x="690.14" y="721.4" width="41.38" height="15.59" transform="translate(-24.5 1433.66) rotate(-89.5)"/><rect class="cls-1" x="670.98" y="721.4" width="41.38" height="15.59" transform="translate(-43.5 1414.5) rotate(-89.5)"/><rect class="cls-1" x="651.82" y="721.4" width="41.38" height="15.59" transform="translate(-62.49 1395.34) rotate(-89.5)"/><rect class="cls-1" x="632.66" y="721.4" width="41.38" height="15.59" transform="translate(-81.49 1376.18) rotate(-89.5)"/><rect class="cls-1" x="613.5" y="721.4" width="41.38" height="15.59" transform="translate(-100.48 1357.02) rotate(-89.5)"/><rect class="cls-1" x="592.74" y="721.4" width="41.38" height="15.59" transform="translate(-121.06 1336.26) rotate(-89.5)"/><rect class="cls-1" x="573.58" y="721.4" width="41.38" height="15.59" transform="translate(-140.06 1317.1) rotate(-89.5)"/><rect class="cls-1" x="554.42" y="721.4" width="41.38" height="15.59" transform="translate(-159.05 1297.94) rotate(-89.5)"/><rect class="cls-1" x="535.26" y="721.4" width="41.38" height="15.59" transform="translate(-178.05 1278.78) rotate(-89.5)"/><rect class="cls-1" x="516.09" y="721.4" width="41.38" height="15.59" transform="translate(-197.04 1259.62) rotate(-89.5)"/><rect class="cls-1" x="495.34" y="721.4" width="41.38" height="15.59" transform="translate(-217.62 1238.86) rotate(-89.5)"/><rect class="cls-1" x="476.18" y="721.4" width="41.38" height="15.59" transform="translate(-236.61 1219.7) rotate(-89.5)"/><rect class="cls-1" x="457.01" y="721.4" width="41.38" height="15.59" transform="translate(-255.61 1200.54) rotate(-89.5)"/><rect class="cls-1" x="747.63" y="721.4" width="41.38" height="15.59" transform="translate(32.48 1491.15) rotate(-89.5)"/><rect class="cls-1" x="728.47" y="721.4" width="41.38" height="15.59" transform="translate(13.49 1471.98) rotate(-89.5)"/><rect class="cls-1" x="709.31" y="721.4" width="41.38" height="15.59" transform="translate(-5.51 1452.82) rotate(-89.5)"/><rect class="cls-1" x="533.66" y="766.13" width="41.38" height="15.59" transform="translate(-224.37 1321.53) rotate(-89.5)"/><rect class="cls-1" x="514.5" y="766.13" width="41.38" height="15.59" transform="translate(-243.36 1302.37) rotate(-89.5)"/><rect class="cls-1" x="495.34" y="766.13" width="41.38" height="15.59" transform="translate(-262.36 1283.21) rotate(-89.5)"/><rect class="cls-1" x="476.18" y="766.13" width="41.38" height="15.59" transform="translate(-281.35 1264.05) rotate(-89.5)"/><rect class="cls-1" x="457.01" y="766.13" width="41.38" height="15.59" transform="translate(-300.35 1244.89) rotate(-89.5)"/><rect class="cls-1" x="591.14" y="766.13" width="41.38" height="15.59" transform="translate(-167.38 1379.02) rotate(-89.5)"/><rect class="cls-1" x="571.98" y="766.13" width="41.38" height="15.59" transform="translate(-186.38 1359.86) rotate(-89.5)"/><rect class="cls-1" x="552.82" y="766.13" width="41.38" height="15.59" transform="translate(-205.37 1340.7) rotate(-89.5)"/><rect class="cls-1" x="457.01" y="810.87" width="41.38" height="15.59" transform="translate(-345.08 1289.24) rotate(-89.5)"/><rect class="cls-1" x="514.5" y="810.87" width="41.38" height="15.59" transform="translate(-288.1 1346.72) rotate(-89.5)"/><rect class="cls-1" x="495.34" y="810.87" width="41.38" height="15.59" transform="translate(-307.09 1327.56) rotate(-89.5)"/><rect class="cls-1" x="476.18" y="810.87" width="41.38" height="15.59" transform="translate(-326.09 1308.4) rotate(-89.5)"/><rect class="cls-1" x="476.18" y="855.61" width="41.38" height="15.59" transform="translate(-370.83 1352.75) rotate(-89.5)"/><rect class="cls-1" x="457.01" y="855.61" width="41.38" height="15.59" transform="translate(-389.82 1333.59) rotate(-89.5)"/><rect class="cls-1" x="392.44" y="978.07" width="41.38" height="15.59" transform="translate(-8.55 3.63) rotate(-0.5)"/><rect class="cls-1" x="392.44" y="958.91" width="41.38" height="15.59" transform="translate(-8.38 3.63) rotate(-0.5)"/><rect class="cls-1" x="392.98" y="1076.67" width="41.38" height="15.59" transform="matrix(1, -0.01, 0.01, 1, -9.41, 3.64)"/><rect class="cls-1" x="392.98" y="1057.51" width="41.38" height="15.59" transform="translate(-9.24 3.64) rotate(-0.5)"/><rect class="cls-1" x="392.98" y="1038.35" width="41.38" height="15.59" transform="translate(-9.08 3.63) rotate(-0.5)"/><rect class="cls-1" x="392.98" y="1017.59" width="41.38" height="15.59" transform="translate(-8.89 3.63) rotate(-0.5)"/><rect class="cls-1" x="392.98" y="998.43" width="41.38" height="15.59" transform="translate(-8.73 3.63) rotate(-0.5)"/><rect class="cls-1" x="593.57" y="1136.94" width="15.59" height="41.38" transform="translate(-10.04 5.27) rotate(-0.5)"/><rect class="cls-1" x="574.41" y="1136.94" width="15.59" height="41.38" transform="translate(-10.04 5.1) rotate(-0.5)"/><rect class="cls-1" x="555.25" y="1136.94" width="15.59" height="41.38" transform="translate(-10.04 4.94) rotate(-0.5)"/><rect class="cls-1" x="534.49" y="1136.94" width="15.59" height="41.38" transform="translate(-10.04 4.76) rotate(-0.5)"/><rect class="cls-1" x="515.33" y="1136.94" width="15.59" height="41.38" transform="translate(-10.04 4.59) rotate(-0.5)"/><rect class="cls-1" x="496.17" y="1136.94" width="15.59" height="41.38" transform="translate(-10.04 4.42) rotate(-0.5)"/><path class="cls-1" d="M479.85,1136.93h12.67v41.72H459.66a14.93,14.93,0,0,1-10.73-4.22l-31.83-33.28a14.89,14.89,0,0,0-10.72-4.22h0c-7.43,0-13.46-4.79-13.46-10.7V1095.1h40.66l35.5,37.56A14.87,14.87,0,0,0,479.85,1136.93Z"/><rect class="cls-1" x="710.57" y="1136.94" width="15.59" height="41.38" transform="translate(-10.03 6.29) rotate(-0.5)"/><rect class="cls-1" x="691.41" y="1136.94" width="15.59" height="41.38" transform="translate(-10.03 6.12) rotate(-0.5)"/><rect class="cls-1" x="672.25" y="1136.94" width="15.59" height="41.38" transform="translate(-10.03 5.95) rotate(-0.5)"/><rect class="cls-1" x="651.49" y="1136.94" width="15.59" height="41.38" transform="translate(-10.03 5.77) rotate(-0.5)"/><rect class="cls-1" x="632.33" y="1136.94" width="15.59" height="41.38" transform="translate(-10.04 5.61) rotate(-0.5)"/><rect class="cls-1" x="613.16" y="1136.94" width="15.59" height="41.38" transform="translate(-10.04 5.44) rotate(-0.5)"/><rect class="cls-1" x="828.13" y="1136.94" width="15.59" height="41.38" transform="translate(-10.03 7.31) rotate(-0.5)"/><rect class="cls-1" x="808.97" y="1136.94" width="15.59" height="41.38" transform="translate(-10.03 7.14) rotate(-0.5)"/><rect class="cls-1" x="789.81" y="1136.94" width="15.59" height="41.38" transform="translate(-10.03 6.97) rotate(-0.5)"/><rect class="cls-1" x="769.05" y="1136.94" width="15.59" height="41.38" transform="translate(-10.03 6.79) rotate(-0.5)"/><rect class="cls-1" x="749.89" y="1136.94" width="15.59" height="41.38" transform="translate(-10.03 6.63) rotate(-0.5)"/><rect class="cls-1" x="730.73" y="1136.94" width="15.59" height="41.38" transform="translate(-10.03 6.46) rotate(-0.5)"/><rect class="cls-1" x="945.13" y="1136.94" width="15.59" height="41.38" transform="translate(-10.02 8.32) rotate(-0.5)"/><rect class="cls-1" x="925.97" y="1136.94" width="15.59" height="41.38" transform="translate(-10.02 8.16) rotate(-0.5)"/><rect class="cls-1" x="906.81" y="1136.94" width="15.59" height="41.38" transform="translate(-10.03 7.99) rotate(-0.5)"/><rect class="cls-1" x="886.05" y="1136.94" width="15.59" height="41.38" transform="translate(-10.03 7.81) rotate(-0.5)"/><rect class="cls-1" x="866.89" y="1136.94" width="15.59" height="41.38" transform="translate(-10.03 7.64) rotate(-0.5)"/><rect class="cls-1" x="847.73" y="1136.94" width="15.59" height="41.38" transform="translate(-10.03 7.48) rotate(-0.5)"/><rect class="cls-1" x="1063.86" y="1136.94" width="15.59" height="41.38" transform="translate(-10.02 9.36) rotate(-0.5)"/><rect class="cls-1" x="1044.7" y="1136.94" width="15.59" height="41.38" transform="translate(-10.02 9.19) rotate(-0.5)"/><rect class="cls-1" x="1025.54" y="1136.94" width="15.59" height="41.38" transform="translate(-10.02 9.02) rotate(-0.5)"/><rect class="cls-1" x="1004.78" y="1136.94" width="15.59" height="41.38" transform="translate(-10.02 8.84) rotate(-0.5)"/><rect class="cls-1" x="985.62" y="1136.94" width="15.59" height="41.38" transform="translate(-10.02 8.68) rotate(-0.5)"/><rect class="cls-1" x="966.46" y="1136.94" width="15.59" height="41.38" transform="translate(-10.02 8.51) rotate(-0.5)"/><rect class="cls-1" x="1180.86" y="1136.94" width="15.59" height="41.38" transform="translate(-10.01 10.37) rotate(-0.5)"/><rect class="cls-1" x="1161.7" y="1136.94" width="15.59" height="41.38" transform="translate(-10.02 10.21) rotate(-0.5)"/><rect class="cls-1" x="1142.54" y="1136.94" width="15.59" height="41.38" transform="translate(-10.02 10.04) rotate(-0.5)"/><rect class="cls-1" x="1121.78" y="1136.94" width="15.59" height="41.38" transform="translate(-10.02 9.86) rotate(-0.5)"/><rect class="cls-1" x="1102.62" y="1136.94" width="15.59" height="41.38" transform="translate(-10.02 9.69) rotate(-0.5)"/><rect class="cls-1" x="1083.46" y="1136.94" width="15.59" height="41.38" transform="translate(-10.02 9.53) rotate(-0.5)"/><rect class="cls-1" x="1298.43" y="1136.94" width="15.59" height="41.38" transform="translate(-10.01 11.39) rotate(-0.5)"/><rect class="cls-1" x="1279.27" y="1136.94" width="15.59" height="41.38" transform="translate(-10.01 11.23) rotate(-0.5)"/><rect class="cls-1" x="1260.1" y="1136.94" width="15.59" height="41.38" transform="translate(-10.01 11.06) rotate(-0.5)"/><rect class="cls-1" x="1239.35" y="1136.94" width="15.59" height="41.38" transform="translate(-10.01 10.88) rotate(-0.5)"/><rect class="cls-1" x="1220.18" y="1136.94" width="15.59" height="41.38" transform="translate(-10.01 10.71) rotate(-0.5)"/><rect class="cls-1" x="1201.02" y="1136.94" width="15.59" height="41.38" transform="translate(-10.01 10.55) rotate(-0.5)"/><rect class="cls-1" x="1415.43" y="1136.94" width="15.59" height="41.38" transform="translate(-10.01 12.41) rotate(-0.5)"/><rect class="cls-1" x="1396.27" y="1136.94" width="15.59" height="41.38" transform="translate(-10.01 12.24) rotate(-0.5)"/><rect class="cls-1" x="1377.1" y="1136.94" width="15.59" height="41.38" transform="translate(-10.01 12.08) rotate(-0.5)"/><rect class="cls-1" x="1356.35" y="1136.94" width="15.59" height="41.38" transform="translate(-10.01 11.9) rotate(-0.5)"/><rect class="cls-1" x="1337.18" y="1136.94" width="15.59" height="41.38" transform="translate(-10.01 11.73) rotate(-0.5)"/><rect class="cls-1" x="1318.02" y="1136.94" width="15.59" height="41.38" transform="translate(-10.01 11.56) rotate(-0.5)"/><rect class="cls-1" x="405" y="73.49" width="15.59" height="41.38" transform="translate(315.03 506.15) rotate(-89.5)"/><rect class="cls-1" x="405" y="92.66" width="15.59" height="41.38" transform="translate(295.87 525.15) rotate(-89.5)"/><rect class="cls-1" x="579.8" y="13.22" width="41.38" height="15.59" transform="translate(574.25 621.3) rotate(-89.5)"/><rect class="cls-1" x="560.64" y="13.22" width="41.38" height="15.59" transform="translate(555.26 602.14) rotate(-89.5)"/><rect class="cls-1" x="541.48" y="13.22" width="41.38" height="15.59" transform="translate(536.26 582.98) rotate(-89.5)"/><rect class="cls-1" x="520.72" y="13.22" width="41.38" height="15.59" transform="translate(515.68 562.22) rotate(-89.5)"/><rect class="cls-1" x="501.56" y="13.22" width="41.38" height="15.59" transform="translate(496.69 543.06) rotate(-89.5)"/><rect class="cls-1" x="482.39" y="13.22" width="41.38" height="15.59" transform="translate(477.69 523.9) rotate(-89.5)"/><path class="cls-1" d="M479,41.72h12.67V0H458.78a14.91,14.91,0,0,0-10.72,4.22L416.23,37.5a14.93,14.93,0,0,1-10.72,4.22h0c-7.44,0-13.47,4.79-13.47,10.7V83.56H432.7L468.2,46A14.92,14.92,0,0,1,479,41.72Z"/><rect class="cls-1" x="696.8" y="13.22" width="41.38" height="15.59" transform="translate(690.23 738.3) rotate(-89.5)"/><rect class="cls-1" x="677.64" y="13.22" width="41.38" height="15.59" transform="translate(671.24 719.14) rotate(-89.5)"/><rect class="cls-1" x="658.47" y="13.22" width="41.38" height="15.59" transform="translate(652.24 699.98) rotate(-89.5)"/><rect class="cls-1" x="637.72" y="13.22" width="41.38" height="15.59" transform="translate(631.67 679.22) rotate(-89.5)"/><rect class="cls-1" x="618.55" y="13.22" width="41.38" height="15.59" transform="translate(612.67 660.06) rotate(-89.5)"/><rect class="cls-1" x="599.39" y="13.22" width="41.38" height="15.59" transform="translate(593.68 640.9) rotate(-89.5)"/><rect class="cls-1" x="814.36" y="13.22" width="41.38" height="15.59" transform="translate(806.78 855.86) rotate(-89.5)"/><rect class="cls-1" x="795.2" y="13.22" width="41.38" height="15.59" transform="translate(787.78 836.7) rotate(-89.5)"/><rect class="cls-1" x="776.04" y="13.22" width="41.38" height="15.59" transform="translate(768.79 817.54) rotate(-89.5)"/><rect class="cls-1" x="755.28" y="13.22" width="41.38" height="15.59" transform="translate(748.21 796.78) rotate(-89.5)"/><rect class="cls-1" x="736.12" y="13.22" width="41.38" height="15.59" transform="translate(729.22 777.62) rotate(-89.5)"/><rect class="cls-1" x="716.96" y="13.22" width="41.38" height="15.59" transform="translate(710.22 758.46) rotate(-89.5)"/><rect class="cls-1" x="853.12" y="13.22" width="41.38" height="15.59" transform="translate(845.2 894.61) rotate(-89.5)"/><rect class="cls-1" x="833.96" y="13.22" width="41.38" height="15.59" transform="translate(826.2 875.45) rotate(-89.5)"/></g></g></svg>