<?xml version="1.0" encoding="utf-8"?>
<!-- Generator: Adobe Illustrator 23.1.0, SVG Export Plug-In . SVG Version: 6.00 Build 0)  -->
<svg version="1.1" id="Слой_1" xmlns="http://www.w3.org/2000/svg" xmlns:xlink="http://www.w3.org/1999/xlink" x="0px" y="0px"
	 viewBox="0 0 65.4 432.5" style="enable-background:new 0 0 65.4 432.5;" xml:space="preserve">
<style type="text/css">
	.st0{fill:#999999;}
</style>
<title>longliine</title>
<g>
	<g id="Слой_1-2">
		<rect y="0" class="st0" width="26.1" height="9.6"/>
		<rect y="12.2" class="st0" width="26.1" height="9.6"/>
		<rect y="24.4" class="st0" width="26.1" height="9.6"/>
		<rect y="36.3" class="st0" width="26.1" height="9.6"/>
		<rect y="48.5" class="st0" width="26.1" height="9.6"/>
		<rect y="60.6" class="st0" width="26.1" height="9.6"/>
		<rect y="73" class="st0" width="26.1" height="9.6"/>
		<rect y="85.2" class="st0" width="26.1" height="9.6"/>
		<rect y="97.4" class="st0" width="26.1" height="9.6"/>
		<rect y="109.4" class="st0" width="26.1" height="9.6"/>
		<rect y="121.6" class="st0" width="26.1" height="9.6"/>
		<rect y="133.8" class="st0" width="26.1" height="9.6"/>
		<rect y="145.7" class="st0" width="26.1" height="9.6"/>
		<rect y="157.9" class="st0" width="26.1" height="9.6"/>
		<rect y="170" class="st0" width="26.1" height="9.6"/>
		<rect y="181.4" class="st0" width="26.1" height="9.6"/>
		<rect y="193.6" class="st0" width="26.1" height="9.6"/>
		<rect y="205.8" class="st0" width="26.1" height="9.6"/>
		<rect y="217.1" class="st0" width="26.1" height="9.6"/>
		<rect y="229.3" class="st0" width="26.1" height="9.6"/>
		<rect y="241.5" class="st0" width="26.1" height="9.6"/>
		<rect y="253.4" class="st0" width="26.1" height="9.6"/>
		<rect y="265.6" class="st0" width="26.1" height="9.6"/>
		<rect y="277.7" class="st0" width="26.1" height="9.6"/>
		<rect y="290.1" class="st0" width="26.1" height="9.6"/>
		<rect y="302.3" class="st0" width="26.1" height="9.6"/>
		<rect y="314.5" class="st0" width="26.1" height="9.6"/>
		<rect y="326.5" class="st0" width="26.1" height="9.6"/>
		<rect y="338.7" class="st0" width="26.1" height="9.6"/>
		<rect y="350.8" class="st0" width="26.1" height="9.6"/>
		<rect y="362.8" class="st0" width="26.1" height="9.6"/>
		<rect y="374.9" class="st0" width="26.1" height="9.6"/>
		<rect y="387.1" class="st0" width="26.1" height="9.6"/>
		<rect y="398.5" class="st0" width="26.1" height="9.6"/>
		<rect y="410.7" class="st0" width="26.1" height="9.6"/>
		<rect y="422.9" class="st0" width="26.1" height="9.6"/>
	</g>
</g>
<g>
	<g id="Слой_1-2_1_">
		<rect x="39.3" y="0" class="st0" width="26.1" height="9.6"/>
		<rect x="39.3" y="12.2" class="st0" width="26.1" height="9.6"/>
		<rect x="39.3" y="24.4" class="st0" width="26.1" height="9.6"/>
		<rect x="39.3" y="36.3" class="st0" width="26.1" height="9.6"/>
		<rect x="39.3" y="48.5" class="st0" width="26.1" height="9.6"/>
		<rect x="39.3" y="60.6" class="st0" width="26.1" height="9.6"/>
		<rect x="39.3" y="73" class="st0" width="26.1" height="9.6"/>
		<rect x="39.3" y="85.2" class="st0" width="26.1" height="9.6"/>
		<rect x="39.3" y="97.4" class="st0" width="26.1" height="9.6"/>
		<rect x="39.3" y="109.4" class="st0" width="26.1" height="9.6"/>
		<rect x="39.3" y="121.6" class="st0" width="26.1" height="9.6"/>
		<rect x="39.3" y="133.8" class="st0" width="26.1" height="9.6"/>
		<rect x="39.3" y="145.7" class="st0" width="26.1" height="9.6"/>
		<rect x="39.3" y="157.9" class="st0" width="26.1" height="9.6"/>
		<rect x="39.3" y="170" class="st0" width="26.1" height="9.6"/>
		<rect x="39.3" y="181.4" class="st0" width="26.1" height="9.6"/>
		<rect x="39.3" y="193.6" class="st0" width="26.1" height="9.6"/>
		<rect x="39.3" y="205.8" class="st0" width="26.1" height="9.6"/>
		<rect x="39.3" y="217.1" class="st0" width="26.1" height="9.6"/>
		<rect x="39.3" y="229.3" class="st0" width="26.1" height="9.6"/>
		<rect x="39.3" y="241.5" class="st0" width="26.1" height="9.6"/>
		<rect x="39.3" y="253.4" class="st0" width="26.1" height="9.6"/>
		<rect x="39.3" y="265.6" class="st0" width="26.1" height="9.6"/>
		<rect x="39.3" y="277.7" class="st0" width="26.1" height="9.6"/>
		<rect x="39.3" y="290.1" class="st0" width="26.1" height="9.6"/>
		<rect x="39.3" y="302.3" class="st0" width="26.1" height="9.6"/>
		<rect x="39.3" y="314.5" class="st0" width="26.1" height="9.6"/>
		<rect x="39.3" y="326.5" class="st0" width="26.1" height="9.6"/>
		<rect x="39.3" y="338.7" class="st0" width="26.1" height="9.6"/>
		<rect x="39.3" y="350.8" class="st0" width="26.1" height="9.6"/>
		<rect x="39.3" y="362.8" class="st0" width="26.1" height="9.6"/>
		<rect x="39.3" y="374.9" class="st0" width="26.1" height="9.6"/>
		<rect x="39.3" y="387.1" class="st0" width="26.1" height="9.6"/>
		<rect x="39.3" y="398.5" class="st0" width="26.1" height="9.6"/>
		<rect x="39.3" y="410.7" class="st0" width="26.1" height="9.6"/>
		<rect x="39.3" y="422.9" class="st0" width="26.1" height="9.6"/>
	</g>
</g>
</svg>
