<svg xmlns="http://www.w3.org/2000/svg" viewBox="0 0 26.45 708.73"><defs><style>.cls-1{fill:#999;}</style></defs><title>longlongline_1</title><g id="Слой_2" data-name="Слой 2"><g id="Слой_1-2" data-name="Слой 1"><rect class="cls-1" x="0.35" width="26.1" height="9.6"/><rect class="cls-1" x="0.35" y="12.2" width="26.1" height="9.6"/><rect class="cls-1" x="0.35" y="24.4" width="26.1" height="9.6"/><rect class="cls-1" x="0.35" y="36.3" width="26.1" height="9.6"/><rect class="cls-1" x="0.35" y="48.5" width="26.1" height="9.6"/><rect class="cls-1" x="0.35" y="60.6" width="26.1" height="9.6"/><rect class="cls-1" x="0.35" y="73" width="26.1" height="9.6"/><rect class="cls-1" x="0.35" y="85.2" width="26.1" height="9.6"/><rect class="cls-1" x="0.35" y="97.4" width="26.1" height="9.6"/><rect class="cls-1" x="0.35" y="109.4" width="26.1" height="9.6"/><rect class="cls-1" x="0.35" y="121.6" width="26.1" height="9.6"/><rect class="cls-1" x="0.35" y="133.8" width="26.1" height="9.6"/><rect class="cls-1" x="0.35" y="145.7" width="26.1" height="9.6"/><rect class="cls-1" x="0.35" y="157.9" width="26.1" height="9.6"/><rect class="cls-1" x="0.35" y="170" width="26.1" height="9.6"/><rect class="cls-1" x="0.35" y="181.4" width="26.1" height="9.6"/><rect class="cls-1" x="0.35" y="193.6" width="26.1" height="9.6"/><rect class="cls-1" x="0.35" y="205.8" width="26.1" height="9.6"/><rect class="cls-1" x="0.35" y="217.1" width="26.1" height="9.6"/><rect class="cls-1" x="0.35" y="229.3" width="26.1" height="9.6"/><rect class="cls-1" x="0.35" y="241.5" width="26.1" height="9.6"/><rect class="cls-1" x="0.35" y="253.4" width="26.1" height="9.6"/><rect class="cls-1" x="0.35" y="265.6" width="26.1" height="9.6"/><rect class="cls-1" x="0.35" y="277.7" width="26.1" height="9.6"/><rect class="cls-1" x="0.35" y="290.1" width="26.1" height="9.6"/><rect class="cls-1" x="0.35" y="302.3" width="26.1" height="9.6"/><rect class="cls-1" x="0.35" y="314.5" width="26.1" height="9.6"/><rect class="cls-1" x="0.35" y="326.5" width="26.1" height="9.6"/><rect class="cls-1" x="0.35" y="338.7" width="26.1" height="9.6"/><rect class="cls-1" x="0.35" y="350.8" width="26.1" height="9.6"/><rect class="cls-1" x="0.35" y="362.8" width="26.1" height="9.6"/><rect class="cls-1" x="0.35" y="374.9" width="26.1" height="9.6"/><rect class="cls-1" x="0.35" y="387.1" width="26.1" height="9.6"/><rect class="cls-1" x="0.35" y="398.5" width="26.1" height="9.6"/><rect class="cls-1" x="0.35" y="410.7" width="26.1" height="9.6"/><rect class="cls-1" x="0.35" y="422.9" width="26.1" height="9.6"/><rect class="cls-1" y="434.18" width="26.1" height="9.6"/><rect class="cls-1" y="445.58" width="26.1" height="9.6"/><rect class="cls-1" y="457.78" width="26.1" height="9.6"/><rect class="cls-1" y="469.98" width="26.1" height="9.6"/><rect class="cls-1" y="481.98" width="26.1" height="9.6"/><rect class="cls-1" y="494.18" width="26.1" height="9.6"/><rect class="cls-1" y="506.28" width="26.1" height="9.6"/><rect class="cls-1" y="518.28" width="26.1" height="9.6"/><rect class="cls-1" y="530.38" width="26.1" height="9.6"/><rect class="cls-1" y="542.58" width="26.1" height="9.6"/><rect class="cls-1" y="553.98" width="26.1" height="9.6"/><rect class="cls-1" y="566.18" width="26.1" height="9.6"/><rect class="cls-1" y="578.38" width="26.1" height="9.6"/><rect class="cls-1" x="0.33" y="590.73" width="26.1" height="9.6"/><rect class="cls-1" x="0.33" y="602.73" width="26.1" height="9.6"/><rect class="cls-1" x="0.33" y="614.93" width="26.1" height="9.6"/><rect class="cls-1" x="0.33" y="627.03" width="26.1" height="9.6"/><rect class="cls-1" x="0.33" y="639.03" width="26.1" height="9.6"/><rect class="cls-1" x="0.33" y="651.13" width="26.1" height="9.6"/><rect class="cls-1" x="0.33" y="663.33" width="26.1" height="9.6"/><rect class="cls-1" x="0.33" y="674.73" width="26.1" height="9.6"/><rect class="cls-1" x="0.33" y="686.93" width="26.1" height="9.6"/><rect class="cls-1" x="0.33" y="699.13" width="26.1" height="9.6"/></g></g></svg>