<svg xmlns="http://www.w3.org/2000/svg" viewBox="0 0 65.73 457.04"><defs><style>.cls-1{fill:#999;}</style></defs><title>longline</title><g id="Слой_2" data-name="Слой 2"><g id="Слой_1-2" data-name="Слой 1"><rect class="cls-1" x="0.33" width="26.1" height="9.6"/><rect class="cls-1" x="0.33" y="12.2" width="26.1" height="9.6"/><rect class="cls-1" x="0.33" y="24.4" width="26.1" height="9.6"/><rect class="cls-1" x="0.33" y="36.3" width="26.1" height="9.6"/><rect class="cls-1" x="0.33" y="48.5" width="26.1" height="9.6"/><rect class="cls-1" x="0.33" y="60.6" width="26.1" height="9.6"/><rect class="cls-1" x="0.33" y="73" width="26.1" height="9.6"/><rect class="cls-1" x="0.33" y="85.2" width="26.1" height="9.6"/><rect class="cls-1" x="0.33" y="97.4" width="26.1" height="9.6"/><rect class="cls-1" x="0.33" y="109.4" width="26.1" height="9.6"/><rect class="cls-1" x="0.33" y="121.6" width="26.1" height="9.6"/><rect class="cls-1" x="0.33" y="133.8" width="26.1" height="9.6"/><rect class="cls-1" x="0.33" y="145.7" width="26.1" height="9.6"/><rect class="cls-1" x="0.33" y="157.9" width="26.1" height="9.6"/><rect class="cls-1" x="0.33" y="170" width="26.1" height="9.6"/><rect class="cls-1" x="0.33" y="181.4" width="26.1" height="9.6"/><rect class="cls-1" x="0.33" y="193.6" width="26.1" height="9.6"/><rect class="cls-1" x="0.33" y="205.8" width="26.1" height="9.6"/><rect class="cls-1" x="0.33" y="217.1" width="26.1" height="9.6"/><rect class="cls-1" x="0.33" y="229.3" width="26.1" height="9.6"/><rect class="cls-1" x="0.33" y="241.5" width="26.1" height="9.6"/><rect class="cls-1" x="0.33" y="253.4" width="26.1" height="9.6"/><rect class="cls-1" x="0.33" y="265.6" width="26.1" height="9.6"/><rect class="cls-1" x="0.33" y="277.7" width="26.1" height="9.6"/><rect class="cls-1" x="0.33" y="290.1" width="26.1" height="9.6"/><rect class="cls-1" x="0.33" y="302.3" width="26.1" height="9.6"/><rect class="cls-1" x="0.33" y="314.5" width="26.1" height="9.6"/><rect class="cls-1" x="0.33" y="326.5" width="26.1" height="9.6"/><rect class="cls-1" x="0.33" y="338.7" width="26.1" height="9.6"/><rect class="cls-1" x="0.33" y="350.8" width="26.1" height="9.6"/><rect class="cls-1" x="0.33" y="362.8" width="26.1" height="9.6"/><rect class="cls-1" x="0.33" y="374.9" width="26.1" height="9.6"/><rect class="cls-1" x="0.33" y="387.1" width="26.1" height="9.6"/><rect class="cls-1" x="0.33" y="398.5" width="26.1" height="9.6"/><rect class="cls-1" x="0.33" y="410.7" width="26.1" height="9.6"/><rect class="cls-1" x="0.33" y="422.9" width="26.1" height="9.6"/><rect class="cls-1" x="39.63" width="26.1" height="9.6"/><rect class="cls-1" x="39.63" y="12.2" width="26.1" height="9.6"/><rect class="cls-1" x="39.63" y="24.4" width="26.1" height="9.6"/><rect class="cls-1" x="39.63" y="36.3" width="26.1" height="9.6"/><rect class="cls-1" x="39.63" y="48.5" width="26.1" height="9.6"/><rect class="cls-1" x="39.63" y="60.6" width="26.1" height="9.6"/><rect class="cls-1" x="39.63" y="73" width="26.1" height="9.6"/><rect class="cls-1" x="39.63" y="85.2" width="26.1" height="9.6"/><rect class="cls-1" x="39.63" y="97.4" width="26.1" height="9.6"/><rect class="cls-1" x="39.63" y="109.4" width="26.1" height="9.6"/><rect class="cls-1" x="39.63" y="121.6" width="26.1" height="9.6"/><rect class="cls-1" x="39.63" y="133.8" width="26.1" height="9.6"/><rect class="cls-1" x="39.63" y="145.7" width="26.1" height="9.6"/><rect class="cls-1" x="39.63" y="157.9" width="26.1" height="9.6"/><rect class="cls-1" x="39.63" y="170" width="26.1" height="9.6"/><rect class="cls-1" x="39.63" y="181.4" width="26.1" height="9.6"/><rect class="cls-1" x="39.63" y="193.6" width="26.1" height="9.6"/><rect class="cls-1" x="39.63" y="205.8" width="26.1" height="9.6"/><rect class="cls-1" x="39.63" y="217.1" width="26.1" height="9.6"/><rect class="cls-1" x="39.63" y="229.3" width="26.1" height="9.6"/><rect class="cls-1" x="39.63" y="241.5" width="26.1" height="9.6"/><rect class="cls-1" x="39.63" y="253.4" width="26.1" height="9.6"/><rect class="cls-1" x="39.63" y="265.6" width="26.1" height="9.6"/><rect class="cls-1" x="39.63" y="277.7" width="26.1" height="9.6"/><rect class="cls-1" x="39.63" y="290.1" width="26.1" height="9.6"/><rect class="cls-1" x="39.63" y="302.3" width="26.1" height="9.6"/><rect class="cls-1" x="39.63" y="314.5" width="26.1" height="9.6"/><rect class="cls-1" x="39.63" y="326.5" width="26.1" height="9.6"/><rect class="cls-1" x="39.63" y="338.7" width="26.1" height="9.6"/><rect class="cls-1" x="39.63" y="350.8" width="26.1" height="9.6"/><rect class="cls-1" x="39.63" y="362.8" width="26.1" height="9.6"/><rect class="cls-1" x="39.63" y="374.9" width="26.1" height="9.6"/><rect class="cls-1" x="39.63" y="387.1" width="26.1" height="9.6"/><rect class="cls-1" x="39.63" y="398.5" width="26.1" height="9.6"/><rect class="cls-1" x="39.63" y="410.7" width="26.1" height="9.6"/><rect class="cls-1" x="39.63" y="422.9" width="26.1" height="9.6"/><rect class="cls-1" y="435.24" width="26.1" height="9.6"/><rect class="cls-1" y="447.44" width="26.1" height="9.6"/><rect class="cls-1" x="39.3" y="435.24" width="26.1" height="9.6"/><rect class="cls-1" x="39.3" y="447.44" width="26.1" height="9.6"/></g></g></svg>