<svg xmlns="http://www.w3.org/2000/svg" viewBox="0 0 583.62 931.24"><defs><style>.cls-1{fill:#333;}.cls-2{font-size:48.79px;}.cls-2,.cls-8{font-family:Izvestija;}.cls-3{fill:#ccc;}.cls-4{fill:#999;}.cls-5{fill:#424242;}.cls-6{fill:#757575;}.cls-7{fill:#f63;}.cls-8{font-size:54.02px;}</style></defs><g id="Слой_2" data-name="Слой 2"><g id="Слой_1-2" data-name="Слой 1"><rect class="cls-1" x="91.73" y="600.96" width="15.59" height="41.38" transform="translate(-522.97 715.78) rotate(-89.5)"/><rect class="cls-1" x="78.84" y="672.14" width="41.38" height="15.59" transform="translate(-5.91 0.89) rotate(-0.5)"/><rect class="cls-1" x="78.84" y="691.71" width="41.38" height="15.59" transform="translate(-6.08 0.89) rotate(-0.5)"/><rect class="cls-1" x="78.84" y="633.01" width="41.38" height="15.59" transform="matrix(1, -0.01, 0.01, 1, -5.56, 0.89)"/><rect class="cls-1" x="78.84" y="652.58" width="41.38" height="15.59" transform="translate(-5.74 0.89) rotate(-0.5)"/><rect class="cls-1" x="78.84" y="535.59" width="41.38" height="15.59" transform="translate(-4.72 0.89) rotate(-0.5)"/><rect class="cls-1" x="78.84" y="555.16" width="41.38" height="15.59" transform="translate(-4.89 0.89) rotate(-0.5)"/><rect class="cls-1" x="78.84" y="574.73" width="41.38" height="15.59" transform="translate(-5.06 0.89) rotate(-0.5)"/><rect class="cls-1" x="78.84" y="594.29" width="41.38" height="15.59" transform="matrix(1, -0.01, 0.01, 1, -5.23, 0.89)"/><text class="cls-2" transform="translate(493.06 109.17)">е</text><circle class="cls-1" cx="299.95" cy="177.48" r="177.48"/><circle class="cls-3" cx="299.95" cy="177.48" r="168.09"/><rect class="cls-4" x="146.84" y="191.16" width="126.86" height="49.28"/><polygon class="cls-5" points="166.36 216.05 146.84 240.44 146.84 191.16 166.36 166.76 166.36 216.05"/><path class="cls-4" d="M16.28,166.61l43.6,24.49-43.6,24.49,148.52.21c-.32-16.41-.7-32.92-1.24-49.28Z"/><rect class="cls-4" x="158.55" y="166.52" width="7.81" height="49.28"/><polygon class="cls-5" points="273.7 240.44 234.67 166.76 234.67 117.48 273.7 191.16 273.7 240.44"/><rect class="cls-4" x="234.67" y="117" width="98.07" height="49.28"/><polygon class="cls-6" points="225.88 191.16 247.59 191.45 273.7 240.44 261.99 240.44 225.88 191.16"/><polygon class="cls-6" points="166.36 240.44 178.56 191.16 166.36 191.39 166.36 215.56 146.84 240.44 166.36 240.44"/><rect class="cls-4" x="326.2" y="42.8" width="126.86" height="49.28" transform="translate(779.27 134.89) rotate(180)"/><polygon class="cls-5" points="433.55 67.2 453.07 42.8 453.07 92.08 433.55 116.48 433.55 67.2"/><path class="cls-4" d="M583.62,116.64,540,92.15l43.59-24.5L435.1,67.44c.33,16.42.71,32.92,1.25,49.29Z"/><rect class="cls-4" x="433.55" y="67.44" width="7.81" height="49.28" transform="translate(874.9 184.17) rotate(180)"/><polygon class="cls-5" points="326.2 42.8 365.24 116.48 365.24 165.76 326.2 92.08 326.2 42.8"/><rect class="cls-4" x="267.16" y="116.97" width="98.07" height="49.28" transform="translate(632.4 283.22) rotate(180)"/><polygon class="cls-6" points="374.02 92.08 352.31 91.8 326.2 42.8 337.91 42.8 374.02 92.08"/><polygon class="cls-6" points="433.55 42.8 421.35 92.08 433.55 91.86 433.55 67.69 453.07 42.8 433.55 42.8"/><text/><rect class="cls-1" x="345.11" y="188.72" width="10.53" height="27.94" transform="translate(144.64 551.29) rotate(-89.5)"/><rect class="cls-1" x="345.11" y="175.51" width="10.53" height="27.94" transform="matrix(0.01, -1, 1, 0.01, 157.85, 538.19)"/><rect class="cls-1" x="345.11" y="162.3" width="10.53" height="27.94" transform="translate(171.07 525.1) rotate(-89.5)"/><rect class="cls-1" x="345.11" y="201.93" width="10.53" height="27.94" transform="translate(131.43 564.39) rotate(-89.5)"/><rect class="cls-1" x="390.8" y="147.05" width="27.94" height="10.53" transform="matrix(0.01, -1, 1, 0.01, 248.95, 555.74)"/><rect class="cls-1" x="377.59" y="147.05" width="27.94" height="10.53" transform="matrix(0.01, -1, 1, 0.01, 235.85, 542.53)"/><rect class="cls-1" x="364.37" y="147.05" width="27.94" height="10.53" transform="matrix(0.01, -1, 1, 0.01, 222.75, 529.32)"/><circle class="cls-7" cx="257.85" cy="65.22" r="21.81"/><circle class="cls-7" cx="404.32" cy="215.8" r="21.81"/><text class="cls-2" transform="translate(81.69 209.96)">НАс</text><text class="cls-2" transform="translate(172.22 233.33)">тро</text><text class="cls-2" transform="translate(283.53 162.14)">е</text><text class="cls-2" transform="translate(365.34 85.64)">ни</text><text class="cls-8" transform="translate(481.17 112.67)">e</text><rect class="cls-1" x="345.11" y="268" width="10.53" height="27.94" transform="translate(65.37 629.88) rotate(-89.5)"/><rect class="cls-1" x="345.11" y="254.78" width="10.53" height="27.94" transform="translate(78.58 616.78) rotate(-89.5)"/><rect class="cls-1" x="345.11" y="241.57" width="10.53" height="27.94" transform="translate(91.8 603.68) rotate(-89.5)"/><rect class="cls-1" x="345.11" y="228.36" width="10.53" height="27.94" transform="translate(105.01 590.58) rotate(-89.5)"/><rect class="cls-1" x="345.11" y="215.15" width="10.53" height="27.94" transform="translate(118.22 577.49) rotate(-89.5)"/><rect class="cls-1" x="345.11" y="294.42" width="10.53" height="27.94" transform="matrix(0.01, -1, 1, 0.01, 38.95, 656.07)"/><rect class="cls-1" x="345.11" y="281.21" width="10.53" height="27.94" transform="translate(52.16 642.97) rotate(-89.5)"/><circle class="cls-7" cx="254.19" cy="287.36" r="21.81"/><rect class="cls-1" x="78.84" y="418.19" width="41.38" height="15.59" transform="translate(-3.7 0.88) rotate(-0.5)"/><rect class="cls-1" x="78.84" y="437.76" width="41.38" height="15.59" transform="translate(-3.87 0.88) rotate(-0.5)"/><rect class="cls-1" x="78.84" y="457.33" width="41.38" height="15.59" transform="translate(-4.04 0.88) rotate(-0.5)"/><rect class="cls-1" x="78.84" y="476.89" width="41.38" height="15.59" transform="matrix(1, -0.01, 0.01, 1, -4.21, 0.88)"/><rect class="cls-1" x="78.84" y="496.46" width="41.38" height="15.59" transform="matrix(1, -0.01, 0.01, 1, -4.38, 0.88)"/><rect class="cls-1" x="78.84" y="516.03" width="41.38" height="15.59" transform="translate(-4.55 0.88) rotate(-0.5)"/><rect class="cls-1" x="78.84" y="300.79" width="41.38" height="15.59" transform="translate(-2.68 0.88) rotate(-0.5)"/><rect class="cls-1" x="78.84" y="320.36" width="41.38" height="15.59" transform="translate(-2.85 0.88) rotate(-0.5)"/><rect class="cls-1" x="78.84" y="339.92" width="41.38" height="15.59" transform="translate(-3.02 0.88) rotate(-0.5)"/><rect class="cls-1" x="78.84" y="359.49" width="41.38" height="15.59" transform="matrix(1, -0.01, 0.01, 1, -3.19, 0.88)"/><rect class="cls-1" x="78.84" y="379.06" width="41.38" height="15.59" transform="matrix(1, -0.01, 0.01, 1, -3.36, 0.88)"/><rect class="cls-1" x="78.84" y="398.62" width="41.38" height="15.59" transform="translate(-3.53 0.88) rotate(-0.5)"/><rect class="cls-1" x="78.84" y="261.66" width="41.38" height="15.59" transform="translate(-2.34 0.88) rotate(-0.5)"/><rect class="cls-1" x="78.84" y="281.22" width="41.38" height="15.59" transform="translate(-2.51 0.88) rotate(-0.5)"/><rect class="cls-1" x="78.84" y="222.52" width="41.38" height="15.59" transform="translate(-2 0.87) rotate(-0.5)"/><rect class="cls-1" x="78.84" y="242.09" width="41.38" height="15.59" transform="translate(-2.17 0.87) rotate(-0.5)"/><rect class="cls-1" x="91.19" y="716.03" width="15.81" height="41.82" transform="translate(-638.68 829.62) rotate(-89.5)"/><rect class="cls-1" x="91.19" y="696.51" width="15.81" height="41.82" transform="translate(-619.16 810.27) rotate(-89.5)"/><rect class="cls-1" x="-12.92" y="902.04" width="41.96" height="15.76" transform="translate(-901.89 910.06) rotate(-89.5)"/><path class="cls-1" d="M32.44,888.94H19.63v42.3H52.84A15,15,0,0,0,63.68,927l32.17-33.75a15.06,15.06,0,0,1,10.84-4.27h0c7.5,0,13.6-4.86,13.6-10.85V846.51H79.2L43.32,884.6A15,15,0,0,1,32.44,888.94Z"/><rect class="cls-1" x="91.19" y="813.64" width="15.81" height="41.82" transform="translate(-736.29 926.38) rotate(-89.5)"/><rect class="cls-1" x="91.19" y="794.12" width="15.81" height="41.82" transform="translate(-716.77 907.03) rotate(-89.5)"/><rect class="cls-1" x="91.19" y="774.6" width="15.81" height="41.82" transform="translate(-697.25 887.68) rotate(-89.5)"/><rect class="cls-1" x="91.19" y="755.08" width="15.81" height="41.82" transform="translate(-677.72 868.32) rotate(-89.5)"/><rect class="cls-1" x="91.19" y="735.55" width="15.81" height="41.82" transform="translate(-658.2 848.97) rotate(-89.5)"/></g></g></svg>