<svg xmlns="http://www.w3.org/2000/svg" viewBox="0 0 883.7 2075.22"><defs><style>.cls-1{font-size:72.26px;}.cls-1,.cls-8{font-family:Izvestija;}.cls-2{fill:#333;}.cls-3{fill:#ccc;}.cls-4{fill:#999;}.cls-5{fill:#424242;}.cls-6{fill:#757575;}.cls-7{fill:#f63;}.cls-8{font-size:80px;}</style></defs><title>nastroenie_3</title><g id="Слой_2" data-name="Слой 2"><g id="Слой_1-2" data-name="Слой 1"><text/><text class="cls-1" transform="translate(706.09 382.48)">е</text><rect class="cls-2" x="247.09" y="73.95" width="15.59" height="41.38" transform="translate(158.03 348.69) rotate(-89.5)"/><rect class="cls-2" x="247.09" y="93.5" width="15.59" height="41.38" transform="translate(138.48 368.07) rotate(-89.5)"/><rect class="cls-2" x="422.31" y="12.96" width="41.38" height="15.59" transform="translate(418.39 463.56) rotate(-89.5)"/><rect class="cls-2" x="402.74" y="12.96" width="41.38" height="15.59" transform="matrix(0.01, -1, 1, 0.01, 399, 444)"/><rect class="cls-2" x="383.18" y="12.96" width="41.38" height="15.59" transform="matrix(0.01, -1, 1, 0.01, 379.6, 424.43)"/><rect class="cls-2" x="363.61" y="12.96" width="41.38" height="15.59" transform="translate(360.2 404.86) rotate(-89.5)"/><rect class="cls-2" x="344.04" y="12.96" width="41.38" height="15.59" transform="translate(340.81 385.3) rotate(-89.5)"/><rect class="cls-2" x="324.47" y="12.96" width="41.38" height="15.59" transform="translate(321.41 365.73) rotate(-89.5)"/><path class="cls-2" d="M321.05,42.18h12.67V.46H300.86a14.91,14.91,0,0,0-10.72,4.22L258.31,38a14.91,14.91,0,0,1-10.72,4.22h0c-7.44,0-13.47,4.79-13.47,10.7V84h40.66l35.51-37.55A14.87,14.87,0,0,1,321.05,42.18Z"/><rect class="cls-2" x="539.71" y="12.96" width="41.38" height="15.59" transform="translate(534.77 580.96) rotate(-89.5)"/><rect class="cls-2" x="520.14" y="12.96" width="41.38" height="15.59" transform="matrix(0.01, -1, 1, 0.01, 515.38, 561.39)"/><rect class="cls-2" x="500.58" y="12.96" width="41.38" height="15.59" transform="translate(495.98 541.83) rotate(-89.5)"/><rect class="cls-2" x="481.01" y="12.96" width="41.38" height="15.59" transform="translate(476.58 522.26) rotate(-89.5)"/><rect class="cls-2" x="461.44" y="12.96" width="41.38" height="15.59" transform="translate(457.19 502.69) rotate(-89.5)"/><rect class="cls-2" x="441.88" y="12.96" width="41.38" height="15.59" transform="translate(437.79 483.13) rotate(-89.5)"/><rect class="cls-2" x="657.11" y="12.96" width="41.38" height="15.59" transform="translate(651.15 698.35) rotate(-89.5)"/><rect class="cls-2" x="637.54" y="12.96" width="41.38" height="15.59" transform="matrix(0.01, -1, 1, 0.01, 631.76, 678.79)"/><rect class="cls-2" x="617.98" y="12.96" width="41.38" height="15.59" transform="translate(612.36 659.22) rotate(-89.5)"/><rect class="cls-2" x="598.41" y="12.96" width="41.38" height="15.59" transform="translate(592.96 639.66) rotate(-89.5)"/><rect class="cls-2" x="578.84" y="12.96" width="41.38" height="15.59" transform="translate(573.57 620.09) rotate(-89.5)"/><rect class="cls-2" x="559.28" y="12.96" width="41.38" height="15.59" transform="translate(554.17 600.52) rotate(-89.5)"/><rect class="cls-2" x="676.68" y="12.96" width="41.38" height="15.59" transform="translate(670.55 717.92) rotate(-89.5)"/><rect class="cls-2" x="247.09" y="152.15" width="15.59" height="41.38" transform="translate(79.83 426.21) rotate(-89.5)"/><rect class="cls-2" x="247.09" y="132.6" width="15.59" height="41.38" transform="translate(99.38 406.83) rotate(-89.5)"/><rect class="cls-2" x="247.09" y="113.05" width="15.59" height="41.38" transform="translate(118.93 387.45) rotate(-89.5)"/><circle class="cls-2" cx="420.1" cy="483.64" r="262.84"/><circle class="cls-3" cx="420.1" cy="483.64" r="248.93"/><rect class="cls-4" x="193.35" y="503.89" width="187.87" height="72.98"/><polygon class="cls-5" points="222.25 540.75 193.35 576.88 193.35 503.89 222.25 467.76 222.25 540.75"/><path class="cls-4" d="M0,467.53,64.56,503.8,0,540.07l220,.32c-.48-24.31-1-48.76-1.85-73Z"/><rect class="cls-4" x="210.69" y="467.4" width="11.56" height="72.98"/><polygon class="cls-5" points="381.22 576.88 323.42 467.76 323.42 394.78 381.22 503.89 381.22 576.88"/><rect class="cls-4" x="323.42" y="394.06" width="145.24" height="72.98"/><polygon class="cls-6" points="310.41 503.89 342.56 504.32 381.22 576.88 363.88 576.88 310.41 503.89"/><polygon class="cls-6" points="222.25 576.88 240.32 503.89 222.25 504.23 222.25 540.02 193.35 576.88 222.25 576.88"/><rect class="cls-4" x="458.97" y="284.19" width="187.87" height="72.98" transform="translate(1105.82 641.35) rotate(180)"/><polygon class="cls-5" points="617.95 320.31 646.85 284.19 646.85 357.17 617.95 393.3 617.95 320.31"/><path class="cls-4" d="M840.2,393.53l-64.56-36.27L840.2,321l-220-.31c.48,24.3,1,48.75,1.85,73Z"/><rect class="cls-4" x="617.95" y="320.68" width="11.56" height="72.98" transform="translate(1247.45 714.33) rotate(180)"/><polygon class="cls-5" points="458.98 284.19 516.78 393.3 516.78 466.28 458.98 357.17 458.98 284.19"/><rect class="cls-4" x="371.54" y="394.02" width="145.24" height="72.98" transform="translate(888.32 861.02) rotate(180)"/><polygon class="cls-6" points="529.79 357.17 497.64 356.74 458.98 284.19 476.32 284.19 529.79 357.17"/><polygon class="cls-6" points="617.95 284.19 599.88 357.17 617.95 356.83 617.95 321.04 646.85 284.19 617.95 284.19"/><text/><text class="cls-1" transform="translate(96.86 531.73)">НАс</text><text class="cls-1" transform="translate(230.94 566.34)">тро</text><text class="cls-1" transform="translate(395.77 460.92)">е</text><text class="cls-1" transform="translate(516.93 347.63)">ни</text><rect class="cls-2" x="486.97" y="500.28" width="15.59" height="41.38" transform="translate(-30.48 1011.19) rotate(-89.5)"/><rect class="cls-2" x="486.97" y="480.71" width="15.59" height="41.38" transform="translate(-10.92 991.8) rotate(-89.5)"/><rect class="cls-2" x="486.97" y="461.15" width="15.59" height="41.38" transform="translate(8.65 972.4) rotate(-89.5)"/><rect class="cls-2" x="486.97" y="617.68" width="15.59" height="41.38" transform="translate(-147.88 1127.57) rotate(-89.5)"/><rect class="cls-2" x="486.97" y="598.11" width="15.59" height="41.38" transform="matrix(0.01, -1, 1, 0.01, -128.31, 1108.18)"/><rect class="cls-2" x="486.97" y="578.55" width="15.59" height="41.38" transform="translate(-108.75 1088.78) rotate(-89.5)"/><rect class="cls-2" x="486.97" y="558.98" width="15.59" height="41.38" transform="translate(-89.18 1069.38) rotate(-89.5)"/><rect class="cls-2" x="486.97" y="539.41" width="15.59" height="41.38" transform="translate(-69.62 1049.99) rotate(-89.5)"/><rect class="cls-2" x="486.97" y="519.85" width="15.59" height="41.38" transform="translate(-50.05 1030.59) rotate(-89.5)"/><rect class="cls-2" x="486.97" y="656.81" width="15.59" height="41.38" transform="translate(-187.01 1166.37) rotate(-89.5)"/><rect class="cls-2" x="486.97" y="637.25" width="15.59" height="41.38" transform="translate(-167.45 1146.97) rotate(-89.5)"/><rect class="cls-2" x="123.2" y="931.24" width="15.59" height="41.38" transform="translate(-822.04 1074.65) rotate(-89.5)"/><rect class="cls-2" x="247.08" y="210.43" width="15.59" height="41.38" transform="translate(21.54 483.98) rotate(-89.5)"/><rect class="cls-2" x="247.08" y="190.87" width="15.59" height="41.38" transform="translate(41.11 464.58) rotate(-89.5)"/><rect class="cls-2" x="247.08" y="171.3" width="15.59" height="41.38" transform="translate(60.67 445.18) rotate(-89.5)"/><rect class="cls-2" x="247.08" y="327.83" width="15.59" height="41.38" transform="translate(-95.85 600.36) rotate(-89.5)"/><rect class="cls-2" x="247.08" y="308.27" width="15.59" height="41.38" transform="translate(-76.29 580.96) rotate(-89.5)"/><rect class="cls-2" x="247.08" y="288.7" width="15.59" height="41.38" transform="translate(-56.72 561.56) rotate(-89.5)"/><rect class="cls-2" x="247.08" y="269.13" width="15.59" height="41.38" transform="translate(-37.16 542.17) rotate(-89.5)"/><rect class="cls-2" x="247.08" y="249.57" width="15.59" height="41.38" transform="translate(-17.59 522.77) rotate(-89.5)"/><rect class="cls-2" x="247.08" y="230" width="15.59" height="41.38" transform="translate(1.98 503.37) rotate(-89.5)"/><rect class="cls-2" x="247.08" y="445.23" width="15.59" height="41.38" transform="translate(-213.25 716.74) rotate(-89.5)"/><rect class="cls-2" x="247.08" y="425.67" width="15.59" height="41.38" transform="translate(-193.68 697.34) rotate(-89.5)"/><rect class="cls-2" x="247.08" y="406.1" width="15.59" height="41.38" transform="translate(-174.12 677.95) rotate(-89.5)"/><rect class="cls-2" x="247.08" y="386.53" width="15.59" height="41.38" transform="translate(-154.55 658.55) rotate(-89.5)"/><rect class="cls-2" x="247.08" y="366.97" width="15.59" height="41.38" transform="translate(-134.99 639.15) rotate(-89.5)"/><rect class="cls-2" x="247.08" y="347.4" width="15.59" height="41.38" transform="translate(-115.42 619.75) rotate(-89.5)"/><rect class="cls-2" x="247.08" y="464.8" width="15.59" height="41.38" transform="translate(-232.82 736.14) rotate(-89.5)"/><rect class="cls-2" x="554.63" y="438.56" width="41.38" height="15.59" transform="translate(123.98 1017.78) rotate(-89.5)"/><rect class="cls-2" x="535.07" y="438.56" width="41.38" height="15.59" transform="matrix(0.01, -1, 1, 0.01, 104.59, 998.22)"/><rect class="cls-2" x="515.5" y="438.56" width="41.38" height="15.59" transform="matrix(0.01, -1, 1, 0.01, 85.19, 978.65)"/><rect class="cls-2" x="110.31" y="1002.42" width="41.38" height="15.59" transform="translate(-8.77 1.18) rotate(-0.5)"/><rect class="cls-2" x="110.31" y="1021.99" width="41.38" height="15.59" transform="translate(-8.94 1.18) rotate(-0.5)"/><rect class="cls-2" x="110.31" y="963.29" width="41.38" height="15.59" transform="matrix(1, -0.01, 0.01, 1, -8.43, 1.18)"/><rect class="cls-2" x="110.31" y="982.85" width="41.38" height="15.59" transform="translate(-8.6 1.18) rotate(-0.5)"/><circle class="cls-7" cx="352.32" cy="646.36" r="32.3"/><circle class="cls-7" cx="357.75" cy="317.38" r="32.3"/><rect class="cls-2" x="110.31" y="865.87" width="41.38" height="15.59" transform="translate(-7.59 1.17) rotate(-0.5)"/><rect class="cls-2" x="110.31" y="885.44" width="41.38" height="15.59" transform="translate(-7.76 1.17) rotate(-0.5)"/><rect class="cls-2" x="110.31" y="905" width="41.38" height="15.59" transform="translate(-7.93 1.17) rotate(-0.5)"/><rect class="cls-2" x="110.31" y="924.57" width="41.38" height="15.59" transform="matrix(1, -0.01, 0.01, 1, -8.1, 1.17)"/><rect class="cls-2" x="110.31" y="748.47" width="41.38" height="15.59" transform="translate(-6.57 1.17) rotate(-0.5)"/><rect class="cls-2" x="110.31" y="768.04" width="41.38" height="15.59" transform="translate(-6.74 1.17) rotate(-0.5)"/><rect class="cls-2" x="110.31" y="787.6" width="41.38" height="15.59" transform="translate(-6.91 1.17) rotate(-0.5)"/><rect class="cls-2" x="110.31" y="807.17" width="41.38" height="15.59" transform="matrix(1, -0.01, 0.01, 1, -7.08, 1.17)"/><rect class="cls-2" x="110.31" y="826.74" width="41.38" height="15.59" transform="matrix(1, -0.01, 0.01, 1, -7.25, 1.17)"/><rect class="cls-2" x="110.31" y="846.3" width="41.38" height="15.59" transform="translate(-7.42 1.17) rotate(-0.5)"/><rect class="cls-2" x="110.31" y="631.07" width="41.38" height="15.59" transform="translate(-5.55 1.16) rotate(-0.5)"/><rect class="cls-2" x="110.31" y="650.64" width="41.38" height="15.59" transform="translate(-5.72 1.16) rotate(-0.5)"/><rect class="cls-2" x="110.31" y="670.2" width="41.38" height="15.59" transform="translate(-5.89 1.16) rotate(-0.5)"/><rect class="cls-2" x="110.31" y="689.77" width="41.38" height="15.59" transform="matrix(1, -0.01, 0.01, 1, -6.06, 1.16)"/><rect class="cls-2" x="110.31" y="709.34" width="41.38" height="15.59" transform="matrix(1, -0.01, 0.01, 1, -6.23, 1.17)"/><rect class="cls-2" x="110.31" y="728.9" width="41.38" height="15.59" transform="translate(-6.4 1.17) rotate(-0.5)"/><rect class="cls-2" x="110.31" y="591.94" width="41.38" height="15.59" transform="translate(-5.21 1.16) rotate(-0.5)"/><rect class="cls-2" x="110.31" y="611.5" width="41.38" height="15.59" transform="translate(-5.38 1.16) rotate(-0.5)"/><rect class="cls-2" x="110.31" y="552.8" width="41.38" height="15.59" transform="translate(-4.87 1.16) rotate(-0.5)"/><rect class="cls-2" x="110.31" y="572.37" width="41.38" height="15.59" transform="translate(-5.04 1.16) rotate(-0.5)"/><circle class="cls-7" cx="574.67" cy="540.39" r="32.3"/><text class="cls-8" transform="translate(688.47 387.66)">e</text><rect class="cls-2" x="170.22" y="1753.05" width="15.59" height="41.38" transform="translate(-1597.2 1936.33) rotate(-89.5)"/><rect class="cls-2" x="170.22" y="1772.61" width="15.59" height="41.38" transform="translate(-1616.77 1955.73) rotate(-89.5)"/><rect class="cls-2" x="170.22" y="1792.18" width="15.59" height="41.38" transform="translate(-1636.34 1975.13) rotate(-89.5)"/><rect class="cls-2" x="170.22" y="1811.75" width="15.59" height="41.38" transform="translate(-1655.9 1994.52) rotate(-89.5)"/><rect class="cls-2" x="170.22" y="1831.31" width="15.59" height="41.38" transform="translate(-1675.47 2013.92) rotate(-89.5)"/><rect class="cls-2" x="170.22" y="1850.88" width="15.59" height="41.38" transform="translate(-1695.03 2033.32) rotate(-89.5)"/><rect class="cls-2" x="170.22" y="1635.65" width="15.59" height="41.38" transform="translate(-1479.81 1819.95) rotate(-89.5)"/><rect class="cls-2" x="170.22" y="1655.21" width="15.59" height="41.38" transform="translate(-1499.37 1839.35) rotate(-89.5)"/><rect class="cls-2" x="170.22" y="1674.78" width="15.59" height="41.38" transform="translate(-1518.94 1858.75) rotate(-89.5)"/><rect class="cls-2" x="170.22" y="1694.35" width="15.59" height="41.38" transform="translate(-1538.51 1878.14) rotate(-89.5)"/><rect class="cls-2" x="170.22" y="1713.91" width="15.59" height="41.38" transform="translate(-1558.07 1897.54) rotate(-89.5)"/><rect class="cls-2" x="170.22" y="1733.48" width="15.59" height="41.38" transform="translate(-1577.64 1916.94) rotate(-89.5)"/><rect class="cls-2" x="170.22" y="1518.24" width="15.59" height="41.38" transform="translate(-1362.41 1703.57) rotate(-89.5)"/><rect class="cls-2" x="170.22" y="1537.81" width="15.59" height="41.38" transform="translate(-1381.98 1722.97) rotate(-89.5)"/><rect class="cls-2" x="170.22" y="1557.38" width="15.59" height="41.38" transform="translate(-1401.54 1742.36) rotate(-89.5)"/><rect class="cls-2" x="170.22" y="1576.95" width="15.59" height="41.38" transform="translate(-1421.11 1761.76) rotate(-89.5)"/><rect class="cls-2" x="170.22" y="1596.51" width="15.59" height="41.38" transform="translate(-1440.67 1781.16) rotate(-89.5)"/><rect class="cls-2" x="170.22" y="1616.08" width="15.59" height="41.38" transform="translate(-1460.24 1800.55) rotate(-89.5)"/><rect class="cls-2" x="170.22" y="1479.11" width="15.59" height="41.38" transform="translate(-1323.28 1664.78) rotate(-89.5)"/><rect class="cls-2" x="170.22" y="1498.68" width="15.59" height="41.38" transform="translate(-1342.84 1684.17) rotate(-89.5)"/><rect class="cls-2" x="170.22" y="1400.84" width="15.59" height="41.38" transform="translate(-1245.01 1587.19) rotate(-89.5)"/><rect class="cls-2" x="170.22" y="1420.41" width="15.59" height="41.38" transform="translate(-1264.58 1606.59) rotate(-89.5)"/><rect class="cls-2" x="170.22" y="1439.98" width="15.59" height="41.38" transform="translate(-1284.15 1625.98) rotate(-89.5)"/><rect class="cls-2" x="170.22" y="1459.54" width="15.59" height="41.38" transform="translate(-1303.71 1645.38) rotate(-89.5)"/><rect class="cls-2" x="170.22" y="1361.71" width="15.59" height="41.38" transform="translate(-1205.88 1548.4) rotate(-89.5)"/><rect class="cls-2" x="170.22" y="1381.28" width="15.59" height="41.38" transform="translate(-1225.45 1567.79) rotate(-89.5)"/><rect class="cls-2" x="157.32" y="1276.77" width="41.38" height="15.59" transform="translate(-11.16 1.6) rotate(-0.5)"/><rect class="cls-2" x="157.32" y="1296.34" width="41.38" height="15.59" transform="translate(-11.33 1.6) rotate(-0.5)"/><rect class="cls-2" x="157.32" y="1315.91" width="41.38" height="15.59" transform="translate(-11.5 1.6) rotate(-0.5)"/><rect class="cls-2" x="157.32" y="1335.47" width="41.38" height="15.59" transform="matrix(1, -0.01, 0.01, 1, -11.67, 1.6)"/><rect class="cls-2" x="157.32" y="1355.04" width="41.38" height="15.59" transform="matrix(1, -0.01, 0.01, 1, -11.84, 1.6)"/><rect class="cls-2" x="157.32" y="1159.37" width="41.38" height="15.59" transform="translate(-10.14 1.59) rotate(-0.5)"/><rect class="cls-2" x="157.32" y="1178.94" width="41.38" height="15.59" transform="translate(-10.31 1.59) rotate(-0.5)"/><rect class="cls-2" x="157.32" y="1198.51" width="41.38" height="15.59" transform="translate(-10.48 1.59) rotate(-0.5)"/><rect class="cls-2" x="157.32" y="1218.07" width="41.38" height="15.59" transform="translate(-10.65 1.59) rotate(-0.5)"/><rect class="cls-2" x="157.32" y="1237.64" width="41.38" height="15.59" transform="matrix(1, -0.01, 0.01, 1, -10.82, 1.59)"/><rect class="cls-2" x="157.32" y="1257.21" width="41.38" height="15.59" transform="translate(-10.99 1.59) rotate(-0.5)"/><rect class="cls-2" x="157.32" y="1041.97" width="41.38" height="15.59" transform="translate(-9.12 1.59) rotate(-0.5)"/><rect class="cls-2" x="157.32" y="1061.54" width="41.38" height="15.59" transform="translate(-9.29 1.59) rotate(-0.5)"/><rect class="cls-2" x="157.32" y="1081.1" width="41.38" height="15.59" transform="translate(-9.46 1.59) rotate(-0.5)"/><rect class="cls-2" x="157.32" y="1100.67" width="41.38" height="15.59" transform="translate(-9.63 1.59) rotate(-0.5)"/><rect class="cls-2" x="157.32" y="1120.24" width="41.38" height="15.59" transform="matrix(1, -0.01, 0.01, 1, -9.8, 1.59)"/><rect class="cls-2" x="157.32" y="1139.81" width="41.38" height="15.59" transform="translate(-9.97 1.59) rotate(-0.5)"/><rect class="cls-2" x="157.32" y="1002.84" width="41.38" height="15.59" transform="matrix(1, -0.01, 0.01, 1, -8.78, 1.59)"/><rect class="cls-2" x="157.32" y="1022.4" width="41.38" height="15.59" transform="translate(-8.95 1.59) rotate(-0.5)"/><rect class="cls-2" x="157.32" y="924.57" width="41.38" height="15.59" transform="translate(-8.1 1.58) rotate(-0.5)"/><rect class="cls-2" x="157.32" y="944.14" width="41.38" height="15.59" transform="translate(-8.27 1.58) rotate(-0.5)"/><rect class="cls-2" x="157.32" y="963.7" width="41.38" height="15.59" transform="translate(-8.44 1.58) rotate(-0.5)"/><rect class="cls-2" x="157.32" y="983.27" width="41.38" height="15.59" transform="matrix(1, -0.01, 0.01, 1, -8.61, 1.58)"/><rect class="cls-2" x="157.32" y="885.44" width="41.38" height="15.59" transform="translate(-7.76 1.58) rotate(-0.5)"/><rect class="cls-2" x="157.32" y="905" width="41.38" height="15.59" transform="translate(-7.93 1.58) rotate(-0.5)"/><rect class="cls-2" x="123.2" y="1948.71" width="15.59" height="41.38" transform="matrix(0.01, -1, 1, 0.01, -1839.47, 2083.28)"/><rect class="cls-2" x="123.2" y="1968.28" width="15.59" height="41.38" transform="translate(-1859.04 2102.68) rotate(-89.5)"/><rect class="cls-2" x="123.2" y="1987.85" width="15.59" height="41.38" transform="translate(-1878.6 2122.08) rotate(-89.5)"/><rect class="cls-2" x="123.2" y="2007.41" width="15.59" height="41.38" transform="translate(-1898.17 2141.47) rotate(-89.5)"/><rect class="cls-2" x="123.2" y="2026.98" width="15.59" height="41.38" transform="translate(-1917.74 2160.87) rotate(-89.5)"/><rect class="cls-2" x="123.2" y="2046.55" width="15.59" height="41.38" transform="matrix(0.01, -1, 1, 0.01, -1937.3, 2180.27)"/><rect class="cls-2" x="123.2" y="1831.31" width="15.59" height="41.38" transform="translate(-1722.08 1966.9) rotate(-89.5)"/><rect class="cls-2" x="123.2" y="1850.88" width="15.59" height="41.38" transform="translate(-1741.64 1986.3) rotate(-89.5)"/><rect class="cls-2" x="123.2" y="1870.45" width="15.59" height="41.38" transform="translate(-1761.21 2005.7) rotate(-89.5)"/><rect class="cls-2" x="123.2" y="1890.01" width="15.59" height="41.38" transform="translate(-1780.77 2025.09) rotate(-89.5)"/><rect class="cls-2" x="123.2" y="1909.58" width="15.59" height="41.38" transform="translate(-1800.34 2044.49) rotate(-89.5)"/><rect class="cls-2" x="123.2" y="1929.15" width="15.59" height="41.38" transform="matrix(0.01, -1, 1, 0.01, -1819.91, 2063.89)"/><rect class="cls-2" x="123.2" y="1772.61" width="15.59" height="41.38" transform="translate(-1663.38 1908.71) rotate(-89.5)"/><rect class="cls-2" x="123.2" y="1792.18" width="15.59" height="41.38" transform="translate(-1682.94 1928.11) rotate(-89.5)"/><rect class="cls-2" x="123.2" y="1811.75" width="15.59" height="41.38" transform="translate(-1702.51 1947.51) rotate(-89.5)"/></g></g></svg>