<svg xmlns="http://www.w3.org/2000/svg" viewBox="0 0 709.92 502.87"><defs><style>.cls-1{fill:#999;}.cls-2{fill:#424242;}.cls-3{fill:#757575;}</style></defs><title>rightPlace</title><g id="Слой_2" data-name="Слой 2"><g id="Слой_1-2" data-name="Слой 1"><rect class="cls-1" x="409.8" y="200.3" width="260" height="101"/><polygon class="cls-2" points="449.8 250.3 409.8 200.3 409.8 301.3 449.8 351.3 449.8 250.3"/><path class="cls-1" d="M0,351.12l98.12-50.2L0,250.73l334.27-.43c-.73,33.64-1.58,67.47-2.81,101Z"/><rect class="cls-1" x="310.69" y="250.3" width="139.11" height="101"/><polygon class="cls-3" points="449.8 200.3 474.8 301.3 449.8 300.84 449.8 251.3 409.8 200.3 449.8 200.3"/><rect class="cls-1" x="626.69" y="181.33" width="41.38" height="15.59" transform="translate(-1.62 5.63) rotate(-0.5)"/><rect class="cls-1" x="626.69" y="162.16" width="41.38" height="15.59" transform="translate(-1.45 5.63) rotate(-0.5)"/><rect class="cls-1" x="626.69" y="143" width="41.38" height="15.59" transform="translate(-1.29 5.63) rotate(-0.5)"/><rect class="cls-1" x="626.69" y="122.24" width="41.38" height="15.59" transform="translate(-1.11 5.63) rotate(-0.5)"/><rect class="cls-1" x="626.69" y="103.08" width="41.38" height="15.59" transform="translate(-0.94 5.63) rotate(-0.5)"/><rect class="cls-1" x="626.69" y="83.92" width="41.38" height="15.59" transform="translate(-0.77 5.63) rotate(-0.5)"/><path class="cls-1" d="M668.08,69.05V79.11H626.36V53a10.72,10.72,0,0,1,4.22-8.52l33.28-25.28a10.69,10.69,0,0,0,4.22-8.52h0A10.7,10.7,0,0,1,678.78,0h31.14V32.3L672.36,60.5A10.69,10.69,0,0,0,668.08,69.05Z"/><rect class="cls-1" x="639.58" y="293.06" width="15.59" height="41.38" transform="translate(328.02 958.38) rotate(-89.5)"/><rect class="cls-1" x="639.58" y="312.22" width="15.59" height="41.38" transform="translate(308.86 977.37) rotate(-89.5)"/><rect class="cls-1" x="639.58" y="331.38" width="15.59" height="41.38" transform="translate(289.7 996.37) rotate(-89.5)"/><rect class="cls-1" x="639.58" y="352.14" width="15.59" height="41.38" transform="translate(268.94 1016.95) rotate(-89.5)"/><rect class="cls-1" x="639.58" y="371.3" width="15.59" height="41.38" transform="translate(249.78 1035.94) rotate(-89.5)"/><rect class="cls-1" x="639.58" y="390.46" width="15.59" height="41.38" transform="translate(230.62 1054.94) rotate(-89.5)"/><path class="cls-1" d="M668.08,433.82V423.76H626.36v26.1a10.72,10.72,0,0,0,4.22,8.52l33.28,25.28a10.69,10.69,0,0,1,4.22,8.52h0a10.7,10.7,0,0,0,10.7,10.69h31.14v-32.3l-37.56-28.19A10.71,10.71,0,0,1,668.08,433.82Z"/></g></g></svg>