<svg xmlns="http://www.w3.org/2000/svg" viewBox="0 0 296.39 271.92"><defs><style>.cls-1{fill:#333;}.cls-2{fill:#f63;}</style></defs><g id="Слой_2" data-name="Слой 2"><g id="Слой_1-2" data-name="Слой 1"><path class="cls-1" d="M129.36,64.11h-13V21.81H150a15.28,15.28,0,0,1,11,4.28l32.57,33.75a15.33,15.33,0,0,0,11,4.27h0c7.6,0,13.76,4.86,13.76,10.85v31.58H176.68L140.37,68.45A15.33,15.33,0,0,0,129.36,64.11Z"/><rect class="cls-1" x="280.45" y="229.7" width="15.76" height="41.87" transform="matrix(1, -0.01, 0.01, 1, -2.17, 2.52)"/><path class="cls-1" d="M264,229.7h12.81v42.22H243.55a15.06,15.06,0,0,1-10.84-4.27L200.54,234a15.06,15.06,0,0,0-10.84-4.27h0c-7.51,0-13.6-4.84-13.6-10.82V187.37h41.09l35.88,38A15,15,0,0,0,264,229.7Z"/><rect class="cls-1" x="176.39" y="168.29" width="41.82" height="15.77" transform="translate(-1.53 1.73) rotate(-0.5)"/><rect class="cls-1" x="176.39" y="148.81" width="41.82" height="15.77" transform="translate(-1.36 1.73) rotate(-0.5)"/><rect class="cls-1" x="176.39" y="129.33" width="41.82" height="15.77" transform="translate(-1.19 1.72) rotate(-0.5)"/><rect class="cls-1" x="176.39" y="109.84" width="41.82" height="15.77" transform="translate(-1.02 1.72) rotate(-0.5)"/><rect class="cls-1" x="98.24" y="21.98" width="15.81" height="41.82" transform="translate(-0.37 0.92) rotate(-0.5)"/><rect class="cls-1" x="78.72" y="21.98" width="15.81" height="41.82" transform="matrix(1, -0.01, 0.01, 1, -0.37, 0.75)"/><path class="cls-2" d="M64.83,1,3.54,36.53a7.15,7.15,0,0,0,0,12.34L64.83,84.43a7.09,7.09,0,0,0,10.64-6.17V7.14A7.09,7.09,0,0,0,64.83,1Z"/></g></g></svg>