<svg xmlns="http://www.w3.org/2000/svg" viewBox="0 0 67.32 456.93"><defs><style>.cls-1{fill:#999;}</style></defs><title>twoinone_revers</title><g id="Слой_2" data-name="Слой 2"><g id="Слой_1-2" data-name="Слой 1"><rect class="cls-1" x="47.69" y="402.73" width="9.6" height="26.1" transform="translate(-363.74 464.54) rotate(-89.49)"/><rect class="cls-1" x="47.8" y="390.53" width="9.6" height="26.1" transform="translate(-351.43 452.56) rotate(-89.49)"/><rect class="cls-1" x="47.91" y="378.33" width="9.6" height="26.1" transform="translate(-339.12 440.58) rotate(-89.49)"/><rect class="cls-1" x="48.02" y="366.43" width="9.6" height="26.1" transform="translate(-327.12 428.89) rotate(-89.49)"/><rect class="cls-1" x="48.13" y="354.23" width="9.6" height="26.1" transform="translate(-314.81 416.91) rotate(-89.49)"/><rect class="cls-1" x="48.24" y="342.13" width="9.6" height="26.1" transform="translate(-302.6 405.03) rotate(-89.49)"/><rect class="cls-1" x="48.35" y="329.73" width="9.6" height="26.1" transform="translate(-290.09 392.85) rotate(-89.49)"/><rect class="cls-1" x="48.46" y="317.53" width="9.6" height="26.1" transform="translate(-277.79 380.87) rotate(-89.49)"/><rect class="cls-1" x="48.57" y="305.33" width="9.6" height="26.1" transform="translate(-265.48 368.89) rotate(-89.49)"/><rect class="cls-1" x="48.67" y="293.33" width="9.6" height="26.1" transform="translate(-253.37 357.11) rotate(-89.49)"/><rect class="cls-1" x="48.78" y="281.13" width="9.6" height="26.1" transform="translate(-241.07 345.13) rotate(-89.49)"/><rect class="cls-1" x="48.89" y="268.93" width="9.6" height="26.1" transform="translate(-228.76 333.15) rotate(-89.49)"/><rect class="cls-1" x="49" y="257.03" width="9.6" height="26.1" transform="translate(-216.75 321.46) rotate(-89.49)"/><rect class="cls-1" x="49.11" y="244.83" width="9.6" height="26.1" transform="translate(-204.45 309.48) rotate(-89.49)"/><rect class="cls-1" x="49.22" y="232.73" width="9.6" height="26.1" transform="translate(-192.24 297.6) rotate(-89.49)"/><rect class="cls-1" x="49.32" y="221.33" width="9.6" height="26.1" transform="translate(-180.74 286.4) rotate(-89.49)"/><rect class="cls-1" x="49.43" y="209.13" width="9.6" height="26.1" transform="translate(-168.43 274.42) rotate(-89.49)"/><rect class="cls-1" x="48.94" y="197.33" width="9.6" height="25.3" transform="translate(-156.72 261.83) rotate(-89.49)"/><rect class="cls-1" x="40.99" y="193.71" width="24.5" height="9.6"/><rect class="cls-1" x="47.95" y="174.62" width="9.6" height="23.71" transform="translate(-134.19 237.54) rotate(-89.49)"/><rect class="cls-1" x="47.45" y="162.81" width="9.6" height="22.91" transform="translate(-122.47 224.95) rotate(-89.49)"/><rect class="cls-1" x="46.96" y="151.31" width="9.6" height="22.11" transform="translate(-111.06 212.66) rotate(-89.49)"/><rect class="cls-1" x="46.47" y="139.5" width="9.6" height="21.31" transform="translate(-99.34 200.08) rotate(-89.49)"/><rect class="cls-1" x="45.98" y="127.79" width="9.6" height="20.51" transform="translate(-87.72 187.59) rotate(-89.49)"/><rect class="cls-1" x="45.49" y="115.79" width="9.6" height="19.71" transform="translate(-75.8 174.8) rotate(-89.49)"/><rect class="cls-1" x="44.99" y="103.98" width="9.6" height="18.92" transform="translate(-64.09 162.22) rotate(-89.49)"/><rect class="cls-1" x="44.5" y="92.18" width="9.6" height="18.12" transform="translate(-52.37 149.63) rotate(-89.49)"/><rect class="cls-1" x="44.01" y="80.57" width="9.6" height="17.32" transform="translate(-40.85 137.24) rotate(-89.49)"/><rect class="cls-1" x="43.52" y="68.76" width="9.6" height="16.52" transform="translate(-29.14 124.65) rotate(-89.49)"/><rect class="cls-1" x="42.42" y="57.45" width="9.6" height="14.93" transform="translate(-18.11 111.56) rotate(-89.49)"/><rect class="cls-1" x="41.93" y="45.85" width="9.6" height="14.13" transform="translate(-6.6 99.17) rotate(-89.49)"/><rect class="cls-1" x="41.44" y="34.14" width="9.6" height="13.33" transform="translate(5.02 86.68) rotate(-89.49)"/><rect class="cls-1" x="40.95" y="22.33" width="9.6" height="12.53" transform="translate(16.74 74.09) rotate(-89.49)"/><rect class="cls-1" x="40.45" y="11.33" width="9.6" height="11.73" transform="translate(27.65 62.29) rotate(-89.49)"/><rect class="cls-1" x="39.57" y="-0.22" width="9.6" height="10.42" transform="translate(38.98 49.31) rotate(-89.49)"/><rect class="cls-1" x="8.39" y="402.37" width="9.6" height="26.1" transform="translate(-402.33 424.9) rotate(-89.49)"/><rect class="cls-1" x="8.5" y="390.17" width="9.6" height="26.1" transform="translate(-390.02 412.91) rotate(-89.49)"/><rect class="cls-1" x="8.61" y="377.98" width="9.6" height="26.1" transform="translate(-377.72 400.93) rotate(-89.49)"/><rect class="cls-1" x="8.72" y="366.08" width="9.6" height="26.1" transform="translate(-365.71 389.25) rotate(-89.49)"/><rect class="cls-1" x="8.83" y="353.88" width="9.6" height="26.1" transform="translate(-353.4 377.27) rotate(-89.49)"/><rect class="cls-1" x="8.94" y="341.78" width="9.6" height="26.1" transform="translate(-341.2 365.38) rotate(-89.49)"/><rect class="cls-1" x="9.05" y="329.38" width="9.6" height="26.1" transform="translate(-328.69 353.21) rotate(-89.49)"/><rect class="cls-1" x="9.16" y="317.18" width="9.6" height="26.1" transform="translate(-316.38 341.23) rotate(-89.49)"/><rect class="cls-1" x="9.27" y="304.98" width="9.6" height="26.1" transform="translate(-304.07 329.25) rotate(-89.49)"/><rect class="cls-1" x="9.38" y="292.98" width="9.6" height="26.1" transform="translate(-291.97 317.46) rotate(-89.49)"/><rect class="cls-1" x="9.48" y="280.78" width="9.6" height="26.1" transform="translate(-279.66 305.48) rotate(-89.49)"/><rect class="cls-1" x="9.59" y="268.58" width="9.6" height="26.1" transform="translate(-267.35 293.5) rotate(-89.49)"/><rect class="cls-1" x="9.7" y="256.68" width="9.6" height="26.1" transform="translate(-255.35 281.81) rotate(-89.49)"/><rect class="cls-1" x="9.81" y="244.48" width="9.6" height="26.1" transform="translate(-243.04 269.83) rotate(-89.49)"/><rect class="cls-1" x="9.92" y="232.38" width="9.6" height="26.1" transform="translate(-230.83 257.95) rotate(-89.49)"/><rect class="cls-1" x="10.02" y="220.98" width="9.6" height="26.1" transform="translate(-219.33 246.75) rotate(-89.49)"/><rect class="cls-1" x="10.13" y="208.78" width="9.6" height="26.1" transform="translate(-207.03 234.77) rotate(-89.49)"/><rect class="cls-1" x="10.84" y="196.99" width="9.6" height="25.3" transform="translate(-194.13 223.4) rotate(-89.49)"/><rect class="cls-1" x="4.09" y="193.71" width="24.5" height="9.6"/><rect class="cls-1" x="12.25" y="174.3" width="9.6" height="23.71" transform="translate(-169.24 201.53) rotate(-89.49)"/><rect class="cls-1" x="12.96" y="162.5" width="9.6" height="22.91" transform="translate(-156.34 190.16) rotate(-89.49)"/><rect class="cls-1" x="13.67" y="151.01" width="9.6" height="22.11" transform="translate(-143.75 179.08) rotate(-89.49)"/><rect class="cls-1" x="14.38" y="139.21" width="9.6" height="21.31" transform="translate(-130.85 167.7) rotate(-89.49)"/><rect class="cls-1" x="15.09" y="127.52" width="9.6" height="20.51" transform="translate(-118.06 156.43) rotate(-89.49)"/><rect class="cls-1" x="15.8" y="115.52" width="9.6" height="19.71" transform="translate(-104.96 144.86) rotate(-89.49)"/><rect class="cls-1" x="16.51" y="103.73" width="9.6" height="18.92" transform="translate(-92.06 133.48) rotate(-89.49)"/><rect class="cls-1" x="17.22" y="91.93" width="9.6" height="18.12" transform="translate(-79.16 122.11) rotate(-89.49)"/><rect class="cls-1" x="17.93" y="80.34" width="9.6" height="17.32" transform="translate(-66.47 110.93) rotate(-89.49)"/><rect class="cls-1" x="18.64" y="68.54" width="9.6" height="16.52" transform="translate(-53.57 99.55) rotate(-89.49)"/><rect class="cls-1" x="19.95" y="57.25" width="9.6" height="14.93" transform="translate(-40.18 88.88) rotate(-89.49)"/><rect class="cls-1" x="20.66" y="45.66" width="9.6" height="14.13" transform="translate(-27.49 77.71) rotate(-89.49)"/><rect class="cls-1" x="21.37" y="33.96" width="9.6" height="13.33" transform="translate(-14.69 66.43) rotate(-89.49)"/><rect class="cls-1" x="22.08" y="22.17" width="9.6" height="12.53" transform="translate(-1.79 55.05) rotate(-89.49)"/><rect class="cls-1" x="22.78" y="11.17" width="9.6" height="11.73" transform="translate(10.3 44.47) rotate(-89.49)"/><rect class="cls-1" x="23.88" y="-0.36" width="9.6" height="10.42" transform="translate(23.58 33.49) rotate(-89.49)"/><rect class="cls-1" x="47.59" y="438.96" width="9.6" height="26.1" transform="translate(-400.07 500.35) rotate(-89.49)"/><rect class="cls-1" x="47.7" y="426.76" width="9.6" height="26.1" transform="translate(-387.76 488.37) rotate(-89.49)"/><rect class="cls-1" x="47.81" y="414.56" width="9.6" height="26.1" transform="translate(-375.45 476.38) rotate(-89.49)"/><rect class="cls-1" x="8.29" y="438.61" width="9.6" height="26.1" transform="translate(-438.66 460.7) rotate(-89.49)"/><rect class="cls-1" x="8.4" y="426.41" width="9.6" height="26.1" transform="translate(-426.36 448.72) rotate(-89.49)"/><rect class="cls-1" x="8.51" y="414.21" width="9.6" height="26.1" transform="translate(-414.05 436.74) rotate(-89.49)"/></g></g></svg>