<svg xmlns="http://www.w3.org/2000/svg" viewBox="0 0 14.2 14.2"><defs><style>.cls-1{fill:#f63;}</style></defs><g id="Слой_2" data-name="Слой 2"><g id="Capa_1" data-name="Capa 1"><path class="cls-1" d="M13.3,0H.9A.9.9,0,0,0,0,.9V13.3a.9.9,0,0,0,.9.9H13.3a.9.9,0,0,0,.9-.9V.9A.9.9,0,0,0,13.3,0ZM11.8,8.6c.3.3.8.7.7,1.2s-.7.3-1.3.3a2.25,2.25,0,0,1-1.5-.3c-.2-.2-.3-.4-.5-.6s-.4-.5-.7-.5c-.5.1-.4.8-.6,1.3C5,10.5,3.8,8.7,2.8,6.9c-.4-.8-1.2-2.6-1.2-2.6h2s.7,1.2.8,1.5a2,2,0,0,1,.6.7c.1.2.4.5.6.5.4,0,.5-1.6.2-2.1a1,1,0,0,0-.5-.4c0-.5,2.3-.6,2.6-.2.5.6-.3,2.2.4,2.7,1-.5,1.9-2.7,1.9-2.7h2.4A7.44,7.44,0,0,1,11.8,6c-.2.3-1,1-1,1.5S11.4,8.3,11.8,8.6Z"/></g></g></svg>